<?xml version="1.0" encoding="utf-8"?>
<!-- Generator: Adobe Illustrator 27.0.1, SVG Export Plug-In . SVG Version: 6.00 Build 0)  -->
<svg version="1.1" xmlns="http://www.w3.org/2000/svg" xmlns:xlink="http://www.w3.org/1999/xlink" x="0px" y="0px"
	 viewBox="0 0 1080 1080" style="enable-background:new 0 0 1080 1080;" xml:space="preserve">
<style type="text/css">
	.st0{fill:#F1DED1;}
	.st1{opacity:0.12;fill:#EDA777;}
	.st2{fill:#8B949E;stroke:#122B35;stroke-width:2;stroke-miterlimit:10;}
	.st3{fill:#5E2716;}
	.st4{display:none;}
	.st5{opacity:0.67;fill:#5D9DD5;}
	.st6{fill:none;stroke:#28343D;stroke-width:7;stroke-miterlimit:10;}
	.st7{fill:#49311E;stroke:#302417;stroke-width:2;stroke-miterlimit:10;}
	.st8{fill:#23150D;stroke:#000000;stroke-width:2;stroke-miterlimit:10;}
	.st9{fill:#302115;stroke:#26150D;stroke-width:2;stroke-miterlimit:10;}
	.st10{fill:#5B4027;stroke:#3F1E1E;stroke-width:2;stroke-miterlimit:10;}
	.st11{opacity:0.51;fill:#302115;}
	.st12{fill:#425A49;stroke:#092626;stroke-width:2;stroke-miterlimit:10;}
	.st13{fill:#425A49;}
	.st14{fill:#CC6537;stroke:#5E2716;stroke-width:2;stroke-miterlimit:10;}
	.st15{fill:#A14528;stroke:#5E2716;stroke-width:2;stroke-miterlimit:10;}
	.st16{fill:#663D33;stroke:#3D1E1E;stroke-width:2;stroke-miterlimit:10;}
	.st17{opacity:0.43;fill:#A03C22;}
	.st18{opacity:0.54;fill:#311414;}
	.st19{opacity:0.27;fill:#5E2716;}
	.st20{fill:#101F17;stroke:#151813;stroke-width:2;stroke-miterlimit:10;}
	.st21{fill:#CEC0C0;stroke:#664E55;stroke-width:2;stroke-miterlimit:10;}
	.st22{fill:#F4F2F2;stroke:#6D6B6B;stroke-width:2;stroke-miterlimit:10;}
	.st23{fill:#161532;stroke:#000000;stroke-width:2;stroke-miterlimit:10;}
	.st24{fill:#131B11;stroke:#213519;stroke-width:2;stroke-miterlimit:10;}
	.st25{opacity:0.62;fill:#A03C22;}
	.st26{fill:#294420;stroke:#192215;stroke-width:2;stroke-miterlimit:10;}
	.st27{opacity:0.69;fill:#0E1410;}
	.st28{fill:#311414;}
	.st29{fill:#092626;}
	.st30{opacity:0.43;fill:#0E1410;}
	.st31{fill:#6F8C79;stroke:#092626;stroke-width:2;stroke-miterlimit:10;}
	.st32{fill:none;}
	.st33{opacity:0.6;fill:#5D9DD5;}
	.st34{display:none;fill:none;stroke:#5E2716;stroke-miterlimit:10;}
	.st35{fill:#1D2B1A;}
	.st36{fill:#6F8C79;}
	.st37{fill:#0F4B4C;}
	.st38{fill:#072626;}
	.st39{fill:#DF8E6F;}
	.st40{fill:#5E2615;}
	.st41{fill:#A03C22;}
	.st42{opacity:0.35;fill:#141B11;}
	.st43{fill:#3B592E;}
	.st44{fill:#0C0C11;}
	.st45{fill:#4D728D;}
	.st46{opacity:0.39;fill:#9DB5A4;}
</style>
<g id="Layer_4">
	<rect class="st0" width="1080" height="1080"/>
</g>
<g id="Layer_3">
	<path class="st1" d="M1059.2,46.3c0,0-4.2-52.1-114.4-29.5c0,0,10.5,8.1,20.4,23.6c8.9,14,22,25.1,37.9,29.6
		c11.5,3.2,24.7,3.7,36.7-3.4C1039.8,66.7,1052.9,58.6,1059.2,46.3z"/>
	<path class="st1" d="M867.5,49.5c0,0-4.2-52.1-114.4-29.5c0,0,10.5,8.1,20.4,23.6c8.9,14,22,25.1,37.9,29.6
		c11.5,3.2,24.7,3.7,36.7-3.4C848.1,69.9,861.2,61.9,867.5,49.5z"/>
	<path class="st1" d="M678.5,49.5c0,0-4.2-52.1-114.4-29.5c0,0,10.5,8.1,20.4,23.6c8.9,14,22,25.1,37.9,29.6
		c11.5,3.2,24.7,3.7,36.7-3.4C659.2,69.9,672.3,61.9,678.5,49.5z"/>
	<path class="st1" d="M478.9,49.5c0,0-4.2-52.1-114.4-29.5c0,0,10.5,8.1,20.4,23.6c8.9,14,22,25.1,37.9,29.6
		c11.5,3.2,24.7,3.7,36.7-3.4C459.6,69.9,472.7,61.9,478.9,49.5z"/>
	<path class="st1" d="M279.4,46.3c0,0-4.2-52.1-114.4-29.5c0,0,10.5,8.1,20.4,23.6c8.9,14,22,25.1,37.9,29.6
		c11.5,3.2,24.7,3.7,36.7-3.4C260.1,66.7,273.2,58.6,279.4,46.3z"/>
	<path class="st1" d="M99.1,46.3c0,0-4.2-52.1-114.4-29.5c0,0,10.5,8.1,20.4,23.6C14,54.5,27.1,65.6,43,70
		c11.5,3.2,24.7,3.7,36.7-3.4C79.8,66.7,92.9,58.6,99.1,46.3z"/>
	<path class="st1" d="M1187.8,140.6c0,0-4.2-52.1-114.4-29.5c0,0,10.5,8.1,20.4,23.6c8.9,14,22,25.1,37.9,29.6
		c11.5,3.2,24.7,3.7,36.7-3.4C1168.4,161,1181.5,153,1187.8,140.6z"/>
	<path class="st1" d="M996.1,143.9c0,0-4.2-52.1-114.4-29.5c0,0,10.5,8.1,20.4,23.6c8.9,14,22,25.1,37.9,29.6
		c11.5,3.2,24.7,3.7,36.7-3.4C976.7,164.2,989.8,156.2,996.1,143.9z"/>
	<path class="st1" d="M807.1,143.9c0,0-4.2-52.1-114.4-29.5c0,0,10.5,8.1,20.4,23.6c8.9,14,22,25.1,37.9,29.6
		c11.5,3.2,24.7,3.7,36.7-3.4C787.8,164.2,800.8,156.2,807.1,143.9z"/>
	<path class="st1" d="M607.5,143.9c0,0-4.2-52.1-114.4-29.5c0,0,10.5,8.1,20.4,23.6c8.9,14,22,25.1,37.9,29.6
		c11.5,3.2,24.7,3.7,36.7-3.4C588.2,164.2,601.3,156.2,607.5,143.9z"/>
	<path class="st1" d="M408,140.6c0,0-4.2-52.1-114.4-29.5c0,0,10.5,8.1,20.4,23.6c8.9,14,22,25.1,37.9,29.6
		c11.5,3.2,24.7,3.7,36.7-3.4C388.7,161,401.8,153,408,140.6z"/>
	<path class="st1" d="M227.7,140.6c0,0-4.2-52.1-114.4-29.5c0,0,10.5,8.1,20.4,23.6c8.9,14,22,25.1,37.9,29.6
		c11.5,3.2,24.7,3.7,36.7-3.4C208.4,161,221.4,153,227.7,140.6z"/>
	<path class="st1" d="M1096.4,230.1c0,0-4.2-52.1-114.4-29.5c0,0,10.5,8.1,20.4,23.6c8.9,14,22,25.1,37.9,29.6
		c11.5,3.2,24.7,3.7,36.7-3.4C1077.1,250.5,1090.2,242.5,1096.4,230.1z"/>
	<path class="st1" d="M904.7,233.4c0,0-4.2-52.1-114.4-29.5c0,0,10.5,8.1,20.4,23.6c8.9,14,22,25.1,37.9,29.6
		c11.5,3.2,24.7,3.7,36.7-3.4C885.4,253.7,898.5,245.7,904.7,233.4z"/>
	<path class="st1" d="M715.7,233.4c0,0-4.2-52.1-114.4-29.5c0,0,10.5,8.1,20.4,23.6c8.9,14,22,25.1,37.9,29.6
		c11.5,3.2,24.7,3.7,36.7-3.4C696.4,253.7,709.5,245.7,715.7,233.4z"/>
	<path class="st1" d="M516.2,233.4c0,0-4.2-52.1-114.4-29.5c0,0,10.5,8.1,20.4,23.6c8.9,14,22,25.1,37.9,29.6
		c11.5,3.2,24.7,3.7,36.7-3.4C496.8,253.7,509.9,245.7,516.2,233.4z"/>
	<path class="st1" d="M316.7,230.1c0,0-4.2-52.1-114.4-29.5c0,0,10.5,8.1,20.4,23.6c8.9,14,22,25.1,37.9,29.6
		c11.5,3.2,24.7,3.7,36.7-3.4C297.3,250.5,310.4,242.5,316.7,230.1z"/>
	<path class="st1" d="M136.3,230.1c0,0-4.2-52.1-114.4-29.5c0,0,10.5,8.1,20.4,23.6c8.9,14,22,25.1,37.9,29.6
		c11.5,3.2,24.7,3.7,36.7-3.4C117,250.5,130.1,242.5,136.3,230.1z"/>
	<path class="st1" d="M1228.9,337.5c0,0-4.2-52.1-114.4-29.5c0,0,10.5,8.1,20.4,23.6c8.9,14,22,25.1,37.9,29.6
		c11.5,3.2,24.7,3.7,36.7-3.4C1209.6,357.9,1222.7,349.8,1228.9,337.5z"/>
	<path class="st1" d="M1037.2,340.7c0,0-4.2-52.1-114.4-29.5c0,0,10.5,8.1,20.4,23.6c8.9,14,22,25.1,37.9,29.6
		c11.5,3.2,24.7,3.7,36.7-3.4C1017.9,361.1,1031,353.1,1037.2,340.7z"/>
	<path class="st1" d="M848.3,340.7c0,0-4.2-52.1-114.4-29.5c0,0,10.5,8.1,20.4,23.6c8.9,14,22,25.1,37.9,29.6
		c11.5,3.2,24.7,3.7,36.7-3.4C828.9,361.1,842,353.1,848.3,340.7z"/>
	<path class="st1" d="M648.7,340.7c0,0-4.2-52.1-114.4-29.5c0,0,10.5,8.1,20.4,23.6c8.9,14,22,25.1,37.9,29.6
		c11.5,3.2,24.7,3.7,36.7-3.4C629.4,361.1,642.5,353.1,648.7,340.7z"/>
	<path class="st1" d="M449.2,337.5c0,0-4.2-52.1-114.4-29.5c0,0,10.5,8.1,20.4,23.6c8.9,14,22,25.1,37.9,29.6
		c11.5,3.2,24.7,3.7,36.7-3.4C429.9,357.9,443,349.8,449.2,337.5z"/>
	<path class="st1" d="M268.9,337.5c0,0-4.2-52.1-114.4-29.5c0,0,10.5,8.1,20.4,23.6c8.9,14,22,25.1,37.9,29.6
		c11.5,3.2,24.7,3.7,36.7-3.4C249.5,357.9,262.6,349.8,268.9,337.5z"/>
	<path class="st1" d="M99.1,340.7c0,0-4.2-52.1-114.4-29.5c0,0,10.5,8.1,20.4,23.6c8.9,14,22,25.1,37.9,29.6
		c11.5,3.2,24.7,3.7,36.7-3.4C79.8,361.1,92.9,353.1,99.1,340.7z"/>
	<path class="st1" d="M955.9,450.2c0,0-4.2-52.1-114.4-29.5c0,0,10.5,8.1,20.4,23.6c8.9,14,22,25.1,37.9,29.6
		c11.5,3.2,24.7,3.7,36.7-3.4C936.6,470.5,949.7,462.5,955.9,450.2z"/>
	<path class="st1" d="M1120.3,450.2c0,0-4.2-52.1-114.4-29.5c0,0,10.5,8.1,20.4,23.6c8.9,14,22,25.1,37.9,29.6
		c11.5,3.2,24.7,3.7,36.7-3.4C1101,470.5,1114.1,462.5,1120.3,450.2z"/>
	<path class="st1" d="M764.2,453.4c0,0-4.2-52.1-114.4-29.5c0,0,10.5,8.1,20.4,23.6c8.9,14,22,25.1,37.9,29.6
		c11.5,3.2,24.7,3.7,36.7-3.4C744.9,473.8,758,465.8,764.2,453.4z"/>
	<path class="st1" d="M575.3,453.4c0,0-4.2-52.1-114.4-29.5c0,0,10.5,8.1,20.4,23.6c8.9,14,22,25.1,37.9,29.6
		c11.5,3.2,24.7,3.7,36.7-3.4C555.9,473.8,569,465.8,575.3,453.4z"/>
	<path class="st1" d="M375.7,453.4c0,0-4.2-52.1-114.4-29.5c0,0,10.5,8.1,20.4,23.6c8.9,14,22,25.1,37.9,29.6
		c11.5,3.2,24.7,3.7,36.7-3.4C356.4,473.8,369.5,465.8,375.7,453.4z"/>
	<path class="st1" d="M176.2,450.2c0,0-4.2-52.1-114.4-29.5c0,0,10.5,8.1,20.4,23.6c8.9,14,22,25.1,37.9,29.6
		c11.5,3.2,24.7,3.7,36.7-3.4C156.9,470.5,170,462.5,176.2,450.2z"/>
	<path class="st1" d="M-4.1,450.2c0,0-4.2-52.1-114.4-29.5c0,0,10.5,8.1,20.4,23.6c8.9,14,22,25.1,37.9,29.6
		c11.5,3.2,24.7,3.7,36.7-3.4C-23.5,470.5-10.4,462.5-4.1,450.2z"/>
	<path class="st1" d="M1087.6,552.1c0,0-4.2-52.1-114.4-29.5c0,0,10.5,8.1,20.4,23.6c8.9,14,22,25.1,37.9,29.6
		c11.5,3.2,24.7,3.7,36.7-3.4C1068.2,572.4,1081.3,564.4,1087.6,552.1z"/>
	<path class="st1" d="M895.9,555.3c0,0-4.2-52.1-114.4-29.5c0,0,10.5,8.1,20.4,23.6c8.9,14,22,25.1,37.9,29.6
		c11.5,3.2,24.7,3.7,36.7-3.4C876.5,575.7,889.6,567.6,895.9,555.3z"/>
	<path class="st1" d="M706.9,555.3c0,0-4.2-52.1-114.4-29.5c0,0,10.5,8.1,20.4,23.6c8.9,14,22,25.1,37.9,29.6
		c11.5,3.2,24.7,3.7,36.7-3.4C687.6,575.7,700.6,567.6,706.9,555.3z"/>
	<path class="st1" d="M507.3,555.3c0,0-4.2-52.1-114.4-29.5c0,0,10.5,8.1,20.4,23.6c8.9,14,22,25.1,37.9,29.6
		c11.5,3.2,24.7,3.7,36.7-3.4C488,575.7,501.1,567.6,507.3,555.3z"/>
	<path class="st1" d="M307.8,552.1c0,0-4.2-52.1-114.4-29.5c0,0,10.5,8.1,20.4,23.6c8.9,14,22,25.1,37.9,29.6
		c11.5,3.2,24.7,3.7,36.7-3.4C288.5,572.4,301.6,564.4,307.8,552.1z"/>
	<path class="st1" d="M127.5,552.1c0,0-4.2-52.1-114.4-29.5c0,0,10.5,8.1,20.4,23.6c8.9,14,22,25.1,37.9,29.6
		c11.5,3.2,24.7,3.7,36.7-3.4C108.2,572.4,121.2,564.4,127.5,552.1z"/>
	<path class="st1" d="M1014.5,667.1c0,0-4.2-52.1-114.4-29.5c0,0,10.5,8.1,20.4,23.6c8.9,14,22,25.1,37.9,29.6
		c11.5,3.2,24.7,3.7,36.7-3.4C995.2,687.4,1008.3,679.4,1014.5,667.1z"/>
	<path class="st1" d="M1225.9,664.9c0,0-4.2-52.1-114.4-29.5c0,0,10.5,8.1,20.4,23.6c8.9,14,22,25.1,37.9,29.6
		c11.5,3.2,24.7,3.7,36.7-3.4C1206.5,685.3,1219.6,677.3,1225.9,664.9z"/>
	<path class="st1" d="M1270.4,521.5c0,0-4.2-52.1-114.4-29.5c0,0,10.5,8.1,20.4,23.6c8.9,14,22,25.1,37.9,29.6
		c11.5,3.2,24.7,3.7,36.7-3.4C1251,541.8,1264.1,533.8,1270.4,521.5z"/>
	<path class="st1" d="M822.8,670.3c0,0-4.2-52.1-114.4-29.5c0,0,10.5,8.1,20.4,23.6c8.9,14,22,25.1,37.9,29.6
		c11.5,3.2,24.7,3.7,36.7-3.4C803.5,690.7,816.6,682.6,822.8,670.3z"/>
	<path class="st1" d="M633.8,670.3c0,0-4.2-52.1-114.4-29.5c0,0,10.5,8.1,20.4,23.6c8.9,14,22,25.1,37.9,29.6
		c11.5,3.2,24.7,3.7,36.7-3.4C614.5,690.7,627.6,682.6,633.8,670.3z"/>
	<path class="st1" d="M434.3,670.3c0,0-4.2-52.1-114.4-29.5c0,0,10.5,8.1,20.4,23.6c8.9,14,22,25.1,37.9,29.6
		c11.5,3.2,24.7,3.7,36.7-3.4C414.9,690.7,428,682.6,434.3,670.3z"/>
	<path class="st1" d="M234.8,667.1c0,0-4.2-52.1-114.4-29.5c0,0,10.5,8.1,20.4,23.6c8.9,14,22,25.1,37.9,29.6
		c11.5,3.2,24.7,3.7,36.7-3.4C215.4,687.4,228.5,679.4,234.8,667.1z"/>
	<path class="st1" d="M54.4,667.1c0,0-4.2-52.1-114.4-29.5c0,0,10.5,8.1,20.4,23.6c8.9,14,22,25.1,37.9,29.6
		c11.5,3.2,24.7,3.7,36.7-3.4C35.1,687.4,48.2,679.4,54.4,667.1z"/>
	<path class="st1" d="M1144.8,768.1c0,0-4.2-52.1-114.4-29.5c0,0,10.5,8.1,20.4,23.6c8.9,14,22,25.1,37.9,29.6
		c11.5,3.2,24.7,3.7,36.7-3.4C1125.4,788.5,1138.5,780.4,1144.8,768.1z"/>
	<path class="st1" d="M953.1,771.3c0,0-4.2-52.1-114.4-29.5c0,0,10.5,8.1,20.4,23.6c8.9,14,22,25.1,37.9,29.6
		c11.5,3.2,24.7,3.7,36.7-3.4C933.7,791.7,946.8,783.7,953.1,771.3z"/>
	<path class="st1" d="M764.1,771.3c0,0-4.2-52.1-114.4-29.5c0,0,10.5,8.1,20.4,23.6c8.9,14,22,25.1,37.9,29.6
		c11.5,3.2,24.7,3.7,36.7-3.4C744.8,791.7,757.9,783.7,764.1,771.3z"/>
	<path class="st1" d="M564.5,771.3c0,0-4.2-52.1-114.4-29.5c0,0,10.5,8.1,20.4,23.6c8.9,14,22,25.1,37.9,29.6
		c11.5,3.2,24.7,3.7,36.7-3.4C545.2,791.7,558.3,783.7,564.5,771.3z"/>
	<path class="st1" d="M365,768.1c0,0-4.2-52.1-114.4-29.5c0,0,10.5,8.1,20.4,23.6c8.9,14,22,25.1,37.9,29.6
		c11.5,3.2,24.7,3.7,36.7-3.4C345.7,788.5,358.8,780.4,365,768.1z"/>
	<path class="st1" d="M184.7,768.1c0,0-4.2-52.1-114.4-29.5c0,0,10.5,8.1,20.4,23.6c8.9,14,22,25.1,37.9,29.6
		c11.5,3.2,24.7,3.7,36.7-3.4C165.4,788.5,178.5,780.4,184.7,768.1z"/>
	<path class="st1" d="M1034.4,891.2c0,0-4.2-52.1-114.4-29.5c0,0,10.5,8.1,20.4,23.6c8.9,14,22,25.1,37.9,29.6
		c11.5,3.2,24.7,3.7,36.7-3.4C1015.1,911.5,1028.2,903.5,1034.4,891.2z"/>
	<path class="st1" d="M842.7,894.4c0,0-4.2-52.1-114.4-29.5c0,0,10.5,8.1,20.4,23.6c8.9,14,22,25.1,37.9,29.6
		c11.5,3.2,24.7,3.7,36.7-3.4C823.4,914.8,836.5,906.8,842.7,894.4z"/>
	<path class="st1" d="M653.8,894.4c0,0-4.2-52.1-114.4-29.5c0,0,10.5,8.1,20.4,23.6c8.9,14,22,25.1,37.9,29.6
		c11.5,3.2,24.7,3.7,36.7-3.4C634.4,914.8,647.5,906.8,653.8,894.4z"/>
	<path class="st1" d="M454.2,894.4c0,0-4.2-52.1-114.4-29.5c0,0,10.5,8.1,20.4,23.6c8.9,14,22,25.1,37.9,29.6
		c11.5,3.2,24.7,3.7,36.7-3.4C434.9,914.8,447.9,906.8,454.2,894.4z"/>
	<path class="st1" d="M254.7,891.2c0,0-4.2-52.1-114.4-29.5c0,0,10.5,8.1,20.4,23.6c8.9,14,22,25.1,37.9,29.6
		c11.5,3.2,24.7,3.7,36.7-3.4C235.4,911.5,248.4,903.5,254.7,891.2z"/>
	<path class="st1" d="M74.4,891.2c0,0-4.2-52.1-114.4-29.5c0,0,10.5,8.1,20.4,23.6c8.9,14,22,25.1,37.9,29.6
		c11.5,3.2,24.7,3.7,36.7-3.4C55,911.5,68.1,903.5,74.4,891.2z"/>
	<path class="st1" d="M1146.6,1003.6c0,0-4.2-52.1-114.4-29.5c0,0,10.5,8.1,20.4,23.6c8.9,14,22,25.1,37.9,29.6
		c11.5,3.2,24.7,3.7,36.7-3.4C1127.2,1024,1140.3,1016,1146.6,1003.6z"/>
	<path class="st1" d="M954.9,1006.9c0,0-4.2-52.1-114.4-29.5c0,0,10.5,8.1,20.4,23.6c8.9,14,22,25.1,37.9,29.6
		c11.5,3.2,24.7,3.7,36.7-3.4C935.5,1027.2,948.6,1019.2,954.9,1006.9z"/>
	<path class="st1" d="M765.9,1006.9c0,0-4.2-52.1-114.4-29.5c0,0,10.5,8.1,20.4,23.6c8.9,14,22,25.1,37.9,29.6
		c11.5,3.2,24.7,3.7,36.7-3.4C746.6,1027.2,759.7,1019.2,765.9,1006.9z"/>
	<path class="st1" d="M566.3,1006.9c0,0-4.2-52.1-114.4-29.5c0,0,10.5,8.1,20.4,23.6c8.9,14,22,25.1,37.9,29.6
		c11.5,3.2,24.7,3.7,36.7-3.4C547,1027.2,560.1,1019.2,566.3,1006.9z"/>
	<path class="st1" d="M366.8,1003.6c0,0-4.2-52.1-114.4-29.5c0,0,10.5,8.1,20.4,23.6c8.9,14,22,25.1,37.9,29.6
		c11.5,3.2,24.7,3.7,36.7-3.4C347.5,1024,360.6,1016,366.8,1003.6z"/>
	<path class="st1" d="M186.5,1003.6c0,0-4.2-52.1-114.4-29.5c0,0,10.5,8.1,20.4,23.6c8.9,14,22,25.1,37.9,29.6
		c11.5,3.2,24.7,3.7,36.7-3.4C167.2,1024,180.3,1016,186.5,1003.6z"/>
	<path class="st1" d="M1046.4,1094.5c0,0-4.2-52.1-114.4-29.5c0,0,10.5,8.1,20.4,23.6c8.9,14,22,25.1,37.9,29.6
		c11.5,3.2,24.7,3.7,36.7-3.4C1027,1114.9,1040.1,1106.9,1046.4,1094.5z"/>
	<path class="st1" d="M854.7,1097.8c0,0-4.2-52.1-114.4-29.5c0,0,10.5,8.1,20.4,23.6c8.9,14,22,25.1,37.9,29.6
		c11.5,3.2,24.7,3.7,36.7-3.4C835.3,1118.1,848.4,1110.1,854.7,1097.8z"/>
	<path class="st1" d="M665.7,1097.8c0,0-4.2-52.1-114.4-29.5c0,0,10.5,8.1,20.4,23.6c8.9,14,22,25.1,37.9,29.6
		c11.5,3.2,24.7,3.7,36.7-3.4C646.4,1118.1,659.5,1110.1,665.7,1097.8z"/>
	<path class="st1" d="M466.1,1097.8c0,0-4.2-52.1-114.4-29.5c0,0,10.5,8.1,20.4,23.6c8.9,14,22,25.1,37.9,29.6
		c11.5,3.2,24.7,3.7,36.7-3.4C446.8,1118.1,459.9,1110.1,466.1,1097.8z"/>
	<path class="st1" d="M266.6,1094.5c0,0-4.2-52.1-114.4-29.5c0,0,10.5,8.1,20.4,23.6c8.9,14,22,25.1,37.9,29.6
		c11.5,3.2,24.7,3.7,36.7-3.4C247.3,1114.9,260.4,1106.9,266.6,1094.5z"/>
	<path class="st1" d="M86.3,1094.5c0,0-4.2-52.1-114.4-29.5c0,0,10.5,8.1,20.4,23.6c8.9,14,22,25.1,37.9,29.6
		c11.5,3.2,24.7,3.7,36.7-3.4C67,1114.9,80.1,1106.9,86.3,1094.5z"/>
</g>
<g id="Layer_2">
	<path class="st2" d="M698,637.4h-42.1c0,0-41.2,26.7-71,22.5c-14.8-2.1-26.2-11.8-33.8-21c-10.3-12.3-14.5-28.5-11.1-44.2
		c3.8-17.5,15.1-41.7,46.2-66.1C586.2,528.6,616.9,515.7,698,637.4z"/>
	<path class="st3" d="M698,637.4c0,0-93.1-52.6-111.9-108.8C586.2,528.6,614,511.4,698,637.4z"/>
	<g id="Layer_1" class="st4">
	</g>
	<path class="st5" d="M725.8,646.4c1.6,3.1,21.4,41.3-5.2,25.5c-0.4-0.2-0.9-0.4-1.3-0.2c-1.2,0.3-4.4-0.8-8.3-19.9
		c0-0.1-0.1-0.2-0.1-0.3c0,0,0,0,0,0c-0.8-1.8-3.5-0.9-3.1,1c1.4,6.7,1.8,15.3-4.2,16.6c-10.2,2.1-6.9-14.3-6.9-14.3
		s1.4-12.6-7.1-20.1c-0.1-0.1-4.6-2.9-4.7-3c-2.7-2.3-13.6-8-22.4-15.3c-11-9.2-16.3-8-34.7-28c-11.4-12.4-16.4-11.9-38.8-45.5
		c-1-1.6,19.7,7.9,21.4,8.7c12.6,6.1,34.9,18.5,54.2,38c0,0,24.2,24.9,27.3,25.4c3.1,0.5,30.4,13.9,33.7,31.2
		C725.7,646.1,725.7,646.2,725.8,646.4z"/>
	<path class="st6" d="M587.6,531.7c0,0,23.2-18,46.7-14.6c23.4,3.3,60.5,52.6,33.9,101.2"/>
	<path class="st7" d="M429.8,1025.9l-18.4,120.3l-30.1-2.1l-2.9-102.5c-0.1-2.1,0.4-4.1,1.3-5.9l9.2-18.9l28.4-1.7L429.8,1025.9z"/>
	<path class="st8" d="M482,1015.1l-30.7,131.1h-23.4c0,0,17.6-97.8,14.8-117.3c-2.9-19.5,14.6-25.4,14.6-25.4L482,1015.1z"/>
	<path class="st8" d="M246.6,1015.1l12.5,133.1l21.5-2c0,0,7.8-57.5,7.3-59.8c-0.4-2.3-6.7-47.9-6.7-47.9l-1.3-29.7l-33.3-2.6
		V1015.1z"/>
	<path class="st7" d="M309.5,1032c0.3,0.8,0.3,1.7,0.2,2.6l0,0l-15,115.6h-22.1l-6.7-128.1l11-13.2l30.7,17.2L309.5,1032z"/>
	<path class="st9" d="M494.8,967.1l-6.6,39.6c-0.7,3.7-3.3,6.7-6.8,7.9c-23.7,8.1-118,35.6-229.4,1.7c-7.2-2.2-12.5-8.2-14-15.5
		l-7.1-35.7l162.9-21.7l56,15.9L494.8,967.1z"/>
	<ellipse class="st10" cx="363" cy="965.2" rx="132.2" ry="29.6"/>
	<ellipse class="st11" cx="347" cy="959.8" rx="106.6" ry="19.3"/>
	<path class="st12" d="M620.3,226.2c0,0-10.3,37.5-22.7,62.3c-2.4,4.8-3.5,10-3.2,15.4c0.2,5.6,1.2,12.6,4.3,18
		c5.9,10.6,6.5,36-4.3,46.2c-10.9,10.2-3.9,19.2-3.9,19.2s18.5,9.2,2.3,16.2c0,0-1.3-10.9-11.2-8.9c-9.9,2-15.2,6.3-15.2,6.3
		l-11,9.9c0,0-1.6-19.9-11.7-4.3c-0.2,0.3-1.1-7.3-1.2-7.7c-1.8-12.4-7.5-2.3-13.7-3.6l-6.7,1.6l-13.3,4.7l0.9-4.2
		c0,0-12.5-47.7-26.6-56.8c-14.2-9.1-2.5-22.8-2.5-22.8s25.4-30.4,26.4-31.4c1-1,61-50.2,61-50.2l36.1-24.1L620.3,226.2z"/>
	<path class="st13" d="M599.5,176.8c0,0,15.9,5.5,15,14.8c-0.9,9.2-3.3,16.3-3.3,16.3l-13.2,4.1l-14.1-18.8c0,0,2.2-16.3,2.6-16.3
		S599.5,176.8,599.5,176.8z"/>
	<path class="st14" d="M536.1,330.9c11.1-10.5,38.4-38.8,51.4-73.4l-4.7-27.5l-25.8-13.2h-11l-18-9l-20.3,3.2l-29.7,39.7l2.9,27.3
		l-12.3,34.6l-3.5,16.7c0,0,16.3,8.4,17.8,11c1.4,2.5,0.6-30.1,43.1-7.4C530.7,335.5,533.4,333.5,536.1,330.9z"/>
	<path class="st14" d="M569.7,175.4c0,0,18.5,1.1,51.1,39.2c0,0,3.1,4.4-2,15.4c-4.1,9-14.7,22.2-21.3,28.1
		c-1.9,1.7-4.8,1.9-6.9,0.3c-1.4-1-3.3-2.4-6.1-4.4c-6.5-4.6-42.3-36-65.1-40c-22.9-4-30.6-28.1-30.6-28.1l55.6-9.2L569.7,175.4z"/>
	<path class="st15" d="M439.8,721.6c0,0-5.3,30.3-18.2,71.3c-12.9,41-27.4,101.4-22.8,112.3c4.6,10.9-0.9,23.4-0.9,23.4h-21.6
		l-18.5-8.7c0,0,7.3-4.2-4-43.2c-11.2-39-4-74.6-4.3-77.6c-0.3-3,5-50.2,5.3-51.5c0.3-1.3,37-61.8,37-61.8l40.6,21.8L439.8,721.6z"
		/>
	<path class="st14" d="M384.3,716.2c0,0,3.3,30.4-7.6,69c-10.9,38.6-28.7,117.2-28.7,117.2s-3,7.6,0,18.5s-5,26.4-5,26.4l-39.3-2.6
		v-20.5c0,0,8.3-11.2,3.6-27.4c-4.6-16.2-10.9-68.4-10.2-82.6c0.7-14.2,10.9-32.7,10.9-32.7s8.5-13.5-0.3-32s-15.2-26.8-15.2-26.8
		l33.4-29.1L384.3,716.2z"/>
	<path class="st16" d="M428.7,565.6c0,0,7.8,23.1,16,30.1c8.3,6.9,41.6,96.4,41.6,96.4s1.7,4.3-3,9.9l-2.1,1.4
		c-4.9,3.2-10.6,4.9-16.4,4.9l0,0c0,0,3,8.2-1,13.6c-1.2,1.6-3.1,2.5-5.1,2.5h-4.2c-3.2,0-6.4-0.9-9.2-2.5l-2.4-1.4c0,0-1.7,2-9.6,4
		c-2.3,0.6-9.2,0-9.2,0s-4.5,4.1-11.3,6.7c-3.7,1.4-7.8,1.7-11.8,1l-4.4-0.8l-12.6,3.6c0,0-2.4-2.6-9.1-1.5c-2.8,0.5-5.5,1.5-8,3
		l-6.3,3.8c0,0-12.6-4.6-18.8-3.6c-4.6,0.7-9.5-1.3-11.8-2.5c-0.9-0.5-2-0.5-3-0.2l-15.1,5.3c-1.9,0.7-4.1,0.3-5.6-1.1
		c-3.1-2.8-8.3-7.4-10.1-9.7c-1.9-2.3-7.2-1.4-10.2-0.6c-1.4,0.4-2.8,0.5-4.2,0.4c-3.4-0.2-10,0-14,3.8c-3.7,3.5-7.6-0.1-9.8-3
		c-2-2.6-4.2-5-6.7-7c-4.5-3.7-11.4-8.5-17.5-9.5c-10.2-1.7-8.3-14.2-8.3-14.2l-2.7-1.7c-1.5-0.9-2.1-2.8-1.5-4.5
		c5.2-13.3,27.1-69.3,33.2-91.6c6.9-25.4,21.8-49.5,21.8-49.5l59.4-8.3l81.6,31.7L428.7,565.6z"/>
	<path class="st17" d="M602.8,201.1c0,0-24.4,32.4-36.2,32.4c0,0-41.8-26-47.6-24.9c-5.8,1.1,28.7-27.3,28.7-27.3l32.9-1.1
		C580.5,180.2,599.8,196.1,602.8,201.1z"/>
	<path class="st18" d="M424.2,723.8c0,0-28-1.9-41-117.2c0,0,4.5,99.8,13.6,124.1C396.8,730.7,411.1,737.1,424.2,723.8z"/>
	<path class="st14" d="M623.4,474.5L595,459.8c-5.8-3-11.8-5.4-18-7.3c-8.8-2.7-21.2-5.8-29.1-5.4c0,0-9.1-13.9-11.4-15.2
		c-2.3-1.3-23.4,4.6-23.4,4.6l-10.2,19.2v9.6c0,0,6.3,16.5,20.8,23.8c14.5,7.3,32,14.5,47.9,15.2c15.9,0.7,57.5,7.9,59.8,10.2
		c2.3,2.3-2,11.6,6.3,12.2c8.3,0.7,7.6-2.6,8.3,2.3c0.7,5,6.6,8.3,13.2,6.3c6.6-2,13.9-4.6,17.5-9.6c2.4-3.2,5.3-5.6,7-6.9
		c1.1-0.8,1.8-2,2.1-3.3c0.6-2.9,1.2-7.9-0.6-11.3c-1.9-3.5-0.5-10.8,0.5-14.8c0.6-2.4-0.2-4.9-2-6.5c-2.4-2.1-7-4.4-15.3-5.1
		C652.1,476.4,628.7,475.1,623.4,474.5z"/>
	<path class="st18" d="M436,583c0,0-10.3,18.1-42.3,18.8s-41.5-8.6-62-2.6S295.3,583,295.3,583s-10.6-9.3-22.5-8.3s-7-3.5-7-3.5
		l7-16.7l102.7-3.1l59.8,22.2L436,583z"/>
	<path class="st19" d="M518.8,457.1c0,0,10.3,17.3,20,20c9.6,2.6,90.2,30.5,92.5,37.4c0,0-53.4-11.7-59.8-10.2s-48.9-12.3-56.3-21
		c-7.4-8.7-12.5-15.3-14.8-20.9C498.2,456.8,518.8,457.1,518.8,457.1z"/>
	<path class="st20" d="M540.6,432c0,0-22.9-57.5-57.7-91.6c0,0-14.8-9.9-17.8-11c-3.1-1.1-47.6-15.9-47.6-15.9l-21.1,16.3
		c0,0-69.5,77.4-89.4,118.6c-21.4,44.4-35.9,90.5-37.6,101.1c0,0-7.6,13.5,6.9,17.2c10,2.6,24.3,1.2,31.3,12.2s55.1,10.1,55.1,10.1
		s19.8,0.7,30.7,3.8c10.9,3.1,41.6,2.2,44.1-7.1c0,0-7.4-38.6-7.7-56.5c0-2.5,0.9-4.9,2.6-6.8c4.2-4.7,12.6-14.1,16-18.7
		c4.6-6.3,26.4-46.9,26.4-46.9l12.6,12.9c0,0,1.2,1.8,8.7,0.2c5.4-1.1,20.3-11.2,28.3-16.8c4.7-3.3,8.8-7.3,12.1-12
		C538.7,438.1,540.6,434.6,540.6,432z"/>
	<path class="st21" d="M439.8,947.4c0,0,11.5,9.9-3,13.9c-9.2,2.5-20.2,0.8-27.1-0.8c-3.7-0.9-7.2-2.4-10.3-4.6
		c-5.1-3.6-15-9.6-26.4-12.1c-16.5-3.6-22.8-7.9-22.8-7.9l4.6-16c0,0,1.6-8.2,5.3-8.8c0,0,9.9,9.4,19.5,8.8
		c9.6-0.6,16.8-14.1,19.2-14.8c2.3-0.7,7.9,14.8,7.9,14.8S416.3,936.8,439.8,947.4z"/>
	<path class="st22" d="M384.7,955.7c0,0-26.2-10.9-34.8-32.7c0,0-4.3-8.9-13.5,3.6s-30.9-5.5-30.9-5.5s-2.1-0.8-3.1,1.5
		c-1,2.3-5.6,24.8-5.6,24.8s-1.7,6.9,24.4,14.2c0,0,22.5,5,39.3,10.9C377.3,978.4,393.1,964.9,384.7,955.7z"/>
	<path class="st23" d="M805.4,957.6c0,0,66.1,29.3,76,56.8c9.9,27.4,32.7,70.1,8.3,129.7c-24.4,59.6-176.4,60.6-176.4,60.6
		l-60.8-42.3c0,0-29.4-65.7-8.9-114.9c20.5-49.2,46.2-65.1,46.2-65.1s52.8-31.8,53.5-30.5c0.7,1.3,36-11.5,36-11.5L805.4,957.6z"/>
	<path class="st3" d="M795.9,927.6c0,0-4.9,7.4-2.7,17.3c0.6,2.5,2,4.6,4,6.2l8.2,6.5c0,0-10.2,26.4-47.9,9.6
		c0,0-10.2-6.5-14.2-15.3c0,0,8.3-10.3,0-22.6c-8.3-12.3,29.1-21.2,29.1-21.2l13.9,8.9L795.9,927.6z"/>
	<path class="st14" d="M868.4,810.7c0,0-20.5,97.9-40.6,109.2c-19.9,11.2-59.3,31.6-111.5,2.3c-1.1-0.6-2.1-1.2-3.2-1.8
		c-3.2-1.7-14.6-9.6-23-37.1c0,0-16.8-66.4-18.5-74.3S783.5,746.2,868.4,810.7z"/>
	<path class="st24" d="M865.3,671.3c0,0,7.3,38-4.3,51.7c-11.6,13.7-15.9,14.5-15.9,14.5l-33.9-17.7c0,0,8.1-24.6,8.3-25.7
		c0.2-1.1,29.2-22.9,29.2-22.9H865.3z"/>
	<path class="st14" d="M839.7,717.5c2.3,0.3,43.3,10.9,45.6,22.8c2.3,11.9-0.7,73.7-16.8,70.3c0,0-73.1-44-196.8-1.7
		c0,0-8.6,3.6-12.6-13.5c-4-17.2-8.6-42.3-5.9-53.2S721.1,700,839.7,717.5z"/>
	<path class="st25" d="M855.5,701.5c0,0-19.2,64.2-102.7,65.2c-83.6,1-94.8-46.9-94.8-46.9l185.6-44.1L855.5,701.5z"/>
	<path class="st26" d="M853,650.1c7.6,5.5,12.2,14.2,12.3,23.6c0.2,17.1-6.9,43.6-47.2,61.5c-63.9,28.2-136.9,10-142.4,8.5
		c-21.3-6.1-37.9-25.8-42.7-53.4c-0.9-5,4.2-9,8.8-6.9c1.9,0.8,4.1,2.1,6.7,3.9c11.6,7.9,33.2,9.4,52.1-3.1
		c6.4-4.2,11.8-9.7,16.1-16c5.4-8,15.5-23.6,20-36.2c4.3-12.4,14.7-21.9,27.6-24.4c4.8-0.9,10.4-1.1,16.7-0.2
		c4.2,0.6,8.2,2.2,11.5,4.8c5.1,3.9,11.1,10.8,8.6,20.7c-4,16.3-2.9,14.8-1.8,15.6s21.4-6.8,21.4-6.8s13.9-4.8,23.6,2.2
		C847.3,646,850.3,648.2,853,650.1z"/>
	<path class="st27" d="M474.8,456.9c0,0-12.3-20.1-29.9-33.1c0,0,0.4,80.1-9.5,95.4C435.3,519.2,465.6,482.8,474.8,456.9z"/>
	<g>
		<path class="st28" d="M464.9,708.3c-11.6-20.3-19.3-42.6-25.1-65.2C446.9,665.3,454.5,687.4,464.9,708.3L464.9,708.3z"/>
	</g>
	<g>
		<path class="st28" d="M360.8,740.3c6-30.2,8.5-61.4,4.9-92.1c-0.4-3.8-0.9-7.7-0.7-11.6c0.1-1.1,0.1-2.1,0.9-3
			c2.3-2,4.9,5,5.7,6.5c7.8,19.8,13.2,47.2,9.6,68.2c3.1-20.8-2.7-48.4-10.5-67.9c-1-2.2-1.9-4.7-3.7-6.2c-0.2-0.1-0.3-0.1-0.4,0
			c-0.5,0.6-0.5,1.7-0.6,2.5c-0.2,3.8,0.3,7.6,0.7,11.5C370.2,678.9,367.6,710.2,360.8,740.3L360.8,740.3z"/>
	</g>
	<g>
		<path class="st28" d="M296.4,728.4c-4.2-27.8-2.1-56.1,0-84c0.3-4.7,0.9-9.7,0.6-14.2c0.1,0.1,0.4,0.1,0.4,0.1c0.1-0.1,0,0,0,0.1
			c-2.7,8.5-3.8,17.5-5.7,26.2c-1.4,6.9-2.7,13.8-4.4,20.6c-2.1,6.6-4.8,13.3-7.4,19.7c1.8-4.7,3.7-10,5.3-14.8
			c2.9-8.3,4-17,5.7-25.6c1.7-8.6,3-17.3,5.3-25.8c0.2-0.5,0.7-1.7,1.4-1c0.4,0.5,0.3,1.2,0.3,1.7c0.1,7.2-0.9,16.4-1.5,23.7
			c-0.9,10.4-1.4,21.1-1.7,31.5C294.6,700.5,294.5,714.5,296.4,728.4L296.4,728.4z"/>
	</g>
	<g>
		<path class="st28" d="M225.7,698.4c10.5-17.1,20-35.4,23.8-55.3C247.2,662.9,237.2,682.3,225.7,698.4L225.7,698.4z"/>
	</g>
	<path class="st3" d="M557.8,273.9c0.8-0.1,1.5-0.8,1.6-1.6c0.6-2.8,1.1-10.1-7.3-16c-10.7-7.5-8.1-12.4-8.1-12.4s-2.6-1.7-4.2,3.3
		c0,0-2.5-0.2-2.5-1.5c0,0-0.7,3.3,1.1,6.8c1.8,3.5,7.4,6.6,7.4,6.6s9.1,6.3,8.9,11.4C554.5,273.9,556.4,274.2,557.8,273.9z"/>
	<g>
		<path class="st3" d="M540,294.3c2.2,2.6,5,6.5,7.1,9.2c1.7,2.2,3.4,4.6,5.6,6.3c0.7,0.5,1.6,0.9,2.6,0.7c-1.8,1.3-4.2-0.3-5.7-1.4
			C545.1,305.2,542,299.9,540,294.3L540,294.3z"/>
	</g>
	<path class="st29" d="M627.7,201.6c2.3,11.8-4.9,15.9-4.9,15.9l-3.4-4.7l-11.2-11.2C608.2,201.6,625.4,189.7,627.7,201.6z"/>
	<path class="st30" d="M479.7,337.9c0,0-9,9.7,0,24.4c0,0-11.2,11-27.3,2.9c0,0,1.3,9.2,6.8,10.6c0,0-33,6.1-46.2-12.4
		c0,0-13,4.2-21.1-4.4c0,0-2-13.1-14.1-1.7l-21.4,17.6l26.3-55.5h31.5l48.4,8.6C462.6,328,480.8,336.5,479.7,337.9z"/>
	<path class="st17" d="M550.4,233.5c0,0-29.1,4.9-36.1,26.1c-7,21.1-7.9,38.1-12.1,40.3c-4.2,2.2-15.6-6-15.6-6s-1.3-48.1-0.9-50.1
		s31.5-29.5,31.5-29.5S541.6,222.6,550.4,233.5z"/>
	<path class="st31" d="M612.2,198.9c0,0,3.4-3.8-5.4-13.5c-1.3-1.5-3.3-2.1-5.2-1.8c-9.7,1.8-40.9,7.4-53.5,6.5
		c-15-1.1-39,39.6-40.5,56.4c-1.5,16.7-11.7,62.8-32.8,73.5s-8.6,39.4-8.6,39.4s-17.4,1.1-24.7-13.7c-7.3-14.8-37.7,0-29.5,9
		c0,0-15.6,4-16.3-7.3s-11.5-4.7-11.5-4.7l-27.9,32c0,0,1.9-16.5-7.6-22.9s-1-17.2,0-18.5c2.8-3.8,15.4-16.5,12.1-26.4
		c-3.3-9.9-10.6-15-6.2-30.6s33.7-25.1,33.7-25.1s29.1-10.1,31-49.8c1.6-31.1,22.7-49.6,31.7-56.1c2.7-2,5.3-4.1,7.7-6.4
		c6.7-6.1,22-18,43.4-22.1c29.3-5.5,51.1,9.9,51.1,9.9l10.3,2.1c7.2,1.4,13.9,4.4,19.9,8.6c13.3,9.5,35.2,28.5,39.9,53.2
		C623.4,190.9,628.9,193.9,612.2,198.9z"/>
	<g>
		<path class="st13" d="M549.4,127.7c-13.1-2.1-26.6,0.3-38.8,5.2c-37.2,15.5-58.5,53.8-71.2,90.2c-4.2,12.5-7.1,25.4-9.5,38.4
			c-2.7,12.4-3.9,28.3-13.2,37.7c-4.9,5-11.9,6.8-18.6,7.7c-23.3,4-29.3,24.4-24.5,45.2c-4.8-16-2.3-36.2,14.4-43.9
			c4.5-2.3,9.6-3.2,14.5-4.1c4.6-1,9.2-3.1,12.5-6.5c4.5-4.6,6.6-11,8.2-17.2c4.3-19.4,6.7-39.4,13.3-58.3
			c12.9-37.1,35.2-75.7,73.5-90.6C522.5,126.9,536.3,124.9,549.4,127.7L549.4,127.7z"/>
	</g>
	<g>
		<path class="st32" d="M442.4,302.4"/>
	</g>
	<g>
		<path class="st29" d="M610.5,199.3c9.1-3.7,7.5-12.7,3.6-19.9c-3.6-7-9.4-12.7-16.6-16.1c-8.6-4.2-18.2-6.2-27.7-6.7
			c12.8-0.8,26.6,1.9,36.8,10.2c4.8,4,8.2,9.4,10.4,15.1c0.3,1.2,0.8,2.4,1,3.6c0.1,0.4,0.3,1.5,0.3,1.9c0,1,0.1,2.1-0.1,3.1
			C617.9,194.9,614.5,198.5,610.5,199.3L610.5,199.3z"/>
	</g>
	<g>
		<path class="st29" d="M612.2,202.9c12,3.9,31.3,13,29,28.3c-0.7,3.8-2.6,7.2-5,10c-2.5,2.9-5.1,6-9,6.9c-3,0.7-7.4,0.6-8.9-2.7
			c-1.1-3.4,1.4-6.3,3.2-8.6c7-8.8,16.5-13.2,23.8-2c5.6,9.6,6.4,21.7,2.5,32c-3,6.7-8,12.3-14.1,16.2c-3,1.8-6.8,3.5-10.2,2.1
			c1.7,0.5,3.5,0.3,5.2-0.3c7.6-3,14.3-11.2,17.3-18.7c2.3-6.5,2.3-13.7,0.8-20.4c-1.5-5.8-4.5-13.7-11.2-14.7
			c-4.7-0.4-8.8,4.2-11.8,7.6c-1.2,1.6-4.6,5.5-1.6,6.5c5,1.7,9.1-2.1,12.1-5.7C649.1,222.6,626.5,208.8,612.2,202.9L612.2,202.9z"
			/>
	</g>
	<path class="st33" d="M699.6,678.8c0.9,0.2,1.7,0.7,2.3,1.4c1.6,1.8,4.5,6-0.8,7.1c-2.3,0.5-3.9,0-5-0.8c-3-2.2-1.7-7.2,2-7.7
		C698.6,678.7,699.1,678.7,699.6,678.8z"/>
	<path class="st33" d="M712.6,671c1.4,0.3,2.6,1.1,3.6,2.2c2.4,2.8,6.9,9.2-1.2,10.9c-3.5,0.7-6,0-7.7-1.2c-4.6-3.5-2.6-11.2,3.1-12
		C711,670.9,711.8,670.9,712.6,671z"/>
	<path class="st3" d="M830.2,833.7c0,0-8.9,5.3-19.1,0.7c-3.1-1.4-6.5-2.1-9.9-1.9c-4.7,0.3-10.2,2-9.5,7.7
		c0.9,8.5,23.3,6.4,29.7,5.6c1.9-0.2,3.8-0.8,5.4-1.7c1.9-1,3.6-2.4,4.2-5.1C831.8,834.2,830.2,833.7,830.2,833.7z"/>
	<path class="st3" d="M710.1,833.7c0,0,8.9,5.3,19.1,0.7c3.1-1.4,6.5-2.1,9.9-1.9c4.7,0.3,10.2,2,9.5,7.7
		c-0.9,8.5-23.3,6.4-29.7,5.6c-1.9-0.2-3.8-0.8-5.4-1.7c-1.9-1-3.6-2.4-4.2-5.1C708.4,834.2,710.1,833.7,710.1,833.7z"/>
	<path class="st3" d="M891.2,860.2"/>
	<g>
		<path class="st3" d="M789,873.4c-10.7,14.3-30.1,15.6-40.3,0C762.6,885.1,774.9,883.7,789,873.4L789,873.4z"/>
	</g>
	<path class="st34" d="M224.1,741.9c0,0,18.2,91.2,36,113.1c1.2,1.5,2.8,2.7,4.7,3.4c6.4,2.4,25,9.1,41.7,11.6
		c6.7,1,13.4,1,20.1,0.2c10.1-1.3,30.8-2.7,42.2-8.4c5.9-2.9,11.9-14.5,13.6-19.6c4.3-12.3,10.9-34.9,25.5-105
		C408,737.2,317.2,690.4,224.1,741.9z"/>
	<path class="st18" d="M483.3,702c0,0-37.8-33.5-43.1-58.9c0,0,7.5,33.8,24.6,65.2C464.9,708.3,469.9,711.7,483.3,702z"/>
	<g>
		<path class="st35" d="M567,295.3c6.2,21.3,8.5,46.8-1.3,67.4c-1.5,3-3.2,5.8-5.3,8.4c-1.1,1.2-2.1,2.7-2.9,4.2
			c-3.9,6.8-5.3,14.8-4.8,22.5c0.1,0.8,0.3,3.1,0.4,3.9c0.2,0.9,0.6,3,0.8,3.9c0.4,1.7,0.9,3.4,1.4,5.1c-0.6-1.7-1.2-3.3-1.8-5
			c-0.2-0.9-0.8-3-1-3.9c-0.1-0.8-0.5-3.1-0.7-3.9c-1.2-9.8,0.9-20.2,7.2-28c1.7-2.2,3.6-5.3,4.9-8.1
			C573.4,341.5,571.4,316.8,567,295.3L567,295.3z"/>
	</g>
	<path class="st36" d="M447,353c0,0-7.9,0.1,0,15.3c0,0-31,4.4-31.7-23.7c-0.7-28.1,20.1-33,20.1-33L447,353z"/>
	<path class="st13" d="M587.5,352.4c0,0-10.6,33.3,1,42.1c0,0,7.3,7.7-4.7,16.2c0,0,1.8-12.3-8.7-16c-10.5-3.7,4.9-48.4,4.9-48.4
		L587.5,352.4z"/>
	<path class="st13" d="M372.9,354.2c0,0-8.4-2.8-8.3-22.1c0,0-8.5,9.4,0.5,31.3L372.9,354.2z"/>
	<g>
		<path class="st13" d="M555.2,156.7c-20.1,1.9-38.6,13.3-51.2,28.8c-6.4,7.8-11.3,16.6-15.3,25.8c-4.1,9.2-7.4,18.7-9.4,28.5
			c-2.2,9.9-2.6,20-5.1,29.8c-1.7,6.1-4.1,12-7.5,17.4c-1.3,2.4-4.8,7.1-6.4,9.4c-11.8,15.8-19.3,37-13.3,56.5
			c-6.4-19.6,0.9-41,12.7-57c1.6-2.3,5-7,6.3-9.4c3.3-5.3,5.8-11.1,7.4-17.2c2.4-9.8,2.8-20,5-29.8c2.1-9.9,5.5-19.5,9.6-28.7
			c4-9.3,9-18.2,15.5-26C516.2,169.5,534.9,158.3,555.2,156.7L555.2,156.7z"/>
	</g>
	<g>
		<path class="st13" d="M415.3,344.6c0.3-9,6.4-16.9,13.2-22.3c-0.7,0.9-1.5,1.6-2.2,2.5C421.3,330.5,416.7,337,415.3,344.6
			L415.3,344.6z"/>
	</g>
	<path class="st37" d="M411.1,212.7c0,0-4.4-6.2-16.6,4.9c0,0,1.9,0.2,4.3,1.4c2.2,1.1,4.7,1.5,7,0.9c1.7-0.5,3.4-1.4,4.4-3.2
		C410.2,216.7,411.2,214.8,411.1,212.7z"/>
	<g>
		<path class="st38" d="M406.3,214.2c5.7-2.6,10.9-6.5,13.9-12.1C418.4,208.3,412.5,212.9,406.3,214.2L406.3,214.2z"/>
	</g>
	<path class="st37" d="M510.6,196.8c0,0-7.4,2.1-1,17.3c0,0,0.9-1.7,2.8-3.6c1.8-1.7,3-3.9,3.2-6.3c0.1-1.7-0.2-3.7-1.5-5.2
		C514,199,512.5,197.3,510.6,196.8z"/>
	<g>
		<path class="st38" d="M510.3,201.8c-0.5-6.3-2.5-12.4-6.7-17.2C508.9,188.4,511.2,195.5,510.3,201.8L510.3,201.8z"/>
	</g>
	<path class="st37" d="M453,312c0,0-3.9-1.9-6.8,7c0,0,1-0.4,2.5-0.5c1.4-0.1,2.7-0.5,3.7-1.5c0.7-0.7,1.3-1.6,1.3-2.8
		C453.6,314.2,453.6,312.9,453,312z"/>
	<g>
		<path class="st38" d="M451,314c1.9-3.1,3.3-6.2,3.6-9.8C455.7,307.7,454,311.9,451,314L451,314z"/>
	</g>
	<path class="st37" d="M420.8,270.2c0,0-1.9-4.7-11.5,0.6c0,0,1.2,0.5,2.6,1.6c1.2,1,2.8,1.7,4.4,1.7c1.2,0,2.4-0.4,3.3-1.4
		C419.6,272.6,420.6,271.5,420.8,270.2z"/>
	<g>
		<path class="st38" d="M417.5,270.4c4.1-1,7.9-2.7,10.9-5.6C426.5,268.6,421.8,270.8,417.5,270.4L417.5,270.4z"/>
	</g>
	<path class="st37" d="M346.3,362.9c0,0-1.9-4.7-11.5,0.6c0,0,1.2,0.5,2.6,1.6c1.2,1,2.8,1.7,4.4,1.7c1.2,0,2.4-0.4,3.3-1.4
		C345.1,365.3,346.1,364.2,346.3,362.9z"/>
	<g>
		<path class="st38" d="M343,363c4.1-1,7.9-2.7,10.9-5.6C352,361.3,347.3,363.5,343,363L343,363z"/>
	</g>
	<path class="st37" d="M606.6,329.5c0,0,1.9-4.7,11.5,0.6c0,0-1.2,0.5-2.6,1.6c-1.2,1-2.8,1.7-4.4,1.7c-1.2,0-2.4-0.4-3.3-1.4
		C607.8,332,606.8,330.8,606.6,329.5z"/>
	<g>
		<path class="st38" d="M610,329.7c-4.3,0.4-9-1.7-10.9-5.6C602.1,327,605.8,328.7,610,329.7L610,329.7z"/>
	</g>
	<path class="st37" d="M656,248.9c0,0,1.9-4.7,11.5,0.6c0,0-1.2,0.5-2.6,1.6c-1.2,1-2.8,1.7-4.4,1.7c-1.2,0-2.4-0.4-3.3-1.4
		C657.2,251.3,656.2,250.2,656,248.9z"/>
	<g>
		<path class="st38" d="M659.3,249.1c-4.3,0.4-9-1.7-10.9-5.6C651.4,246.4,655.2,248,659.3,249.1L659.3,249.1z"/>
	</g>
	<g>
		<path d="M868.4,1020.3c0.7,15.2,0.6,30.4-0.2,45.5c-0.8,12.3-1.7,24.7-4.6,36.7c-0.8,2.7-1.5,5.5-3,8c1.5-3.5,2.1-7.2,2.7-11
			c1.1-7.5,1.7-15,2.2-22.6C866.8,1058.1,867.4,1039.2,868.4,1020.3L868.4,1020.3z"/>
	</g>
	<g>
		<path d="M673.9,1023.5c1,18.9,1.6,37.8,2.9,56.7c0.5,7.5,1.1,15.1,2.2,22.6c0.5,3.7,1.2,7.5,2.7,11c-1.5-2.5-2.2-5.3-3-8
			c-2.9-12-3.8-24.4-4.6-36.7C673.3,1053.9,673.1,1038.7,673.9,1023.5L673.9,1023.5z"/>
	</g>
	<path class="st18" d="M306.5,738.1c0,0,12.3-9.7,18.9-113.8c0,0,6.2,100.8,19.8,112.3c0,0-13-0.6-18-2.6
		C327.1,734,306.8,742.8,306.5,738.1z"/>
	<path class="st16" d="M270.7,728.4"/>
	<path class="st13" d="M420.8,229.2c0,0-13.1,22.6-31.7,32.5c-11.8,6.3-24.8,18.2-20.1,35l1.7,5.8c0,0,7.6-25.4,23.1-29.4
		C409.3,269.1,420.8,229.2,420.8,229.2z"/>
	
		<ellipse transform="matrix(0.7071 -0.7071 0.7071 0.7071 -30.076 450.9728)" class="st39" cx="529.3" cy="261.8" rx="5.5" ry="10.8"/>
	<path class="st40" d="M541,295.5c-0.1,1-1.1-0.5-1.5-1.2c-0.3-0.6-0.4-1.7,0.2-2.2c0.7-0.5,1.7-0.4,2.2,0.2
		C542.4,293,541.1,294.6,541,295.5z"/>
	<path class="st17" d="M852.3,809c0,0-6.1,82.8-37.4,101.9c-31.3,19.2-46.7,17.6-54.2,17.5c0,0,16.5,10.2,60.3-8.6
		c0,0,21.2-14.6,31.3-62.2c10.1-47.6,9.7-45.5,9.7-45.5s0.5-1.5-3.6-3.6S852.3,809,852.3,809z"/>
	<ellipse class="st41" cx="768.6" cy="847.5" rx="9.5" ry="2.1"/>
	<path class="st17" d="M880.3,741.3c0,0,1.8,52.5-8.5,65.9c0,0-35.7-25.4-118.6-21.2c0,0,81.2-25.4,92.8-60
		C845.9,726.1,869.4,732.2,880.3,741.3z"/>
	<path class="st42" d="M850.6,658c0,0-72.5,82.3-198.3,65.4c0,0,47.5,38.2,127.4,17.3s78.6-63.1,78.6-63.1S862,658.7,850.6,658z"/>
	<path class="st42" d="M799.3,648.4c0,0-20.8,43.3-81.9,55C717.4,703.4,759.1,690.1,799.3,648.4z"/>
	<path class="st43" d="M789.4,622.8c-6-5-18.2-12.1-32.2-3.1c-1.1,0.7-1.7,1.9-1.6,3.2c0.4,5.3,4.2,18.1,33,5.7
		C791,627.6,791.4,624.5,789.4,622.8z"/>
	<path class="st43" d="M766.1,642.8c-4.3-3.6-13.3-8.9-23.5-2.3c-0.8,0.5-1.2,1.4-1.2,2.3c0.3,3.9,3,13.2,24.1,4.2
		C767.3,646.3,767.6,644,766.1,642.8z"/>
	<path class="st44" d="M832,1039.5c0,0-16,39.3-55.9,62.6C736.2,1125.5,832,1039.5,832,1039.5z"/>
	<path class="st44" d="M772,1042.2c0,0-15.2,24.2-51.7,48C683.7,1114,772,1042.2,772,1042.2z"/>
	<path class="st17" d="M517.2,325.1c0,0-20.3-14.4-24.4-13.5c-4.2,0.9,10.9,9.8,10.9,9.8S513.9,325.1,517.2,325.1z"/>
	<path class="st17" d="M610.6,215.4c0,0-6.4,16.4-23,24.7c0,0-6.2-5.5-7.4-6.2c0,0,20.7-18.1,22.3-26.1
		C602.4,207.8,606.7,207.7,610.6,215.4z"/>
	<path class="st45" d="M682.6,631.3l-30.3-13c0,0-49.3,41.2-90.3,19.2c0,0,18,31.2,91.7-4L682.6,631.3z"/>
	<path class="st19" d="M644.9,525.3c5.2-0.3,13.4-0.9,18.4-1.4c0.9-0.1,1.4,1.1,0.6,1.6c-1.9,1.2-4.6,2.6-7.6,3
		c-3.2,0.4-8-0.6-11.5-1.5C643.7,526.7,643.9,525.3,644.9,525.3z"/>
	<path class="st46" d="M544.6,146.8c-9.6,1-28.8,4.5-40.7,15.6c-0.6,0.6-1.6,0.1-1.5-0.8c0.9-6.6,6.7-23.9,42.3-16.6
		C545.6,145.3,545.6,146.7,544.6,146.8z"/>
	<path class="st46" d="M558.8,160.9c-11.4,1.2-34.3,5.3-48.4,18.6c-0.7,0.7-1.9,0.1-1.8-0.9c1.1-7.9,7.9-28.5,50.3-19.8
		C560.1,159,560,160.8,558.8,160.9z"/>
	<path class="st46" d="M530.3,138.5c-7.4,0.8-22.3,3.4-31.4,12.1c-0.5,0.5-1.3,0.1-1.2-0.6c0.7-5.1,5.2-18.5,32.7-12.8
		C531.2,137.3,531.1,138.5,530.3,138.5z"/>
	<path class="st46" d="M518.5,126.5c-6.4,0.7-19.3,3-27.3,10.5c-0.4,0.4-1.1,0.1-1-0.5c0.6-4.4,4.5-16.1,28.4-11.2
		C519.2,125.5,519.2,126.5,518.5,126.5z"/>
</g>
</svg>
