<?xml version="1.0" encoding="utf-8"?>
<!-- Generator: Adobe Illustrator 27.0.1, SVG Export Plug-In . SVG Version: 6.00 Build 0)  -->
<svg version="1.1" xmlns="http://www.w3.org/2000/svg" xmlns:xlink="http://www.w3.org/1999/xlink" x="0px" y="0px"
	 viewBox="0 0 1200 630" style="enable-background:new 0 0 1200 630;" xml:space="preserve">
<style type="text/css">
	.st0{display:none;}
	.st1{fill:#EFF6E1;}
	.st2{opacity:0.21;fill:#BDC6A5;}
	.st3{fill:#6F8C79;}
	.st4{fill:#CB6538;stroke:#5E2615;stroke-width:2;stroke-miterlimit:10;}
	.st5{opacity:0.55;fill:#9E3E22;}
	.st6{opacity:0.61;fill:#3B4F40;}
	.st7{fill:#3B4F40;}
	.st8{fill:#5E2615;}
	.st9{opacity:0.36;fill:#9E3E22;}
	.st10{fill:#364C2A;stroke:#2D3A2B;stroke-width:2;stroke-miterlimit:10;}
	.st11{fill:#F1DED1;stroke:#AF7568;stroke-width:2;stroke-miterlimit:10;}
	.st12{fill:none;}
	.st13{fill:#072626;}
	.st14{fill:#D3B5A1;}
	.st15{fill:#0F4B4C;}
	.st16{fill:#DF8E6F;}
	.st17{fill:#08090C;}
	.st18{fill:#E57B50;}
	.st19{fill:#27441E;stroke:#1A3018;stroke-miterlimit:10;}
	.st20{fill:#12190F;}
	.st21{fill:#4F723F;}
	.st22{opacity:0.7;fill:#1A2716;}
	.st23{opacity:0.47;fill:#1A2716;}
	.st24{fill:#1A2716;}
	.st25{opacity:0.35;fill:#47843E;}
	.st26{opacity:0.44;fill:#9E3E22;}
	.st27{fill:#202D19;}
	.st28{fill:#131E19;}
	.st29{fill:#84BC6D;stroke:#2E422A;stroke-width:2;stroke-miterlimit:10;}
	.st30{fill:#476343;}
	.st31{opacity:0.52;fill:#364C2A;}
	.st32{opacity:0.63;fill:#161D12;}
	.st33{opacity:0.72;fill:#5E2615;}
	.st34{opacity:0.36;fill:#5E2615;}
	.st35{fill:none;stroke:#5E2615;stroke-width:2;stroke-miterlimit:10;}
	.st36{opacity:0.64;fill:#5E2615;}
	.st37{fill:#284223;stroke:#27441E;stroke-miterlimit:10;}
	.st38{fill:#417339;stroke:#27441E;stroke-miterlimit:10;}
	.st39{fill:#488A40;stroke:#27441E;stroke-miterlimit:10;}
	.st40{fill:#FFFFFF;stroke:#000000;stroke-miterlimit:10;}
	.st41{fill:#9E3E22;}
	.st42{opacity:0.49;fill:#9E3E22;}
	.st43{fill:#27441E;}
	.st44{fill:#CB6538;}
	.st45{fill:#375141;stroke:#27253F;stroke-width:2;stroke-miterlimit:10;}
	.st46{fill:#171632;}
	.st47{opacity:0.15;fill:#364C2A;}
	.st48{fill:#0C3535;}
	.st49{fill:#113534;}
	.st50{fill:#307A57;stroke:#131E19;stroke-width:2;stroke-miterlimit:10;}
	.st51{fill:#244235;}
	.st52{opacity:0.48;fill:#9E3E22;}
	.st53{opacity:0.33;fill:#9E3E22;}
	.st54{fill:#285C42;}
	.st55{opacity:0.12;fill:#0B2323;}
	.st56{fill:#27253F;}
	.st57{fill:#9B5134;stroke:#5E2615;stroke-width:2;stroke-miterlimit:10;}
	.st58{display:inline;fill:#DDC0BA;}
	.st59{display:inline;fill:#0F1F16;stroke:#5E2615;stroke-width:2;stroke-miterlimit:10;}
	.st60{display:inline;fill:#CB6538;stroke:#5E2615;stroke-width:2;stroke-miterlimit:10;}
	.st61{display:inline;}
	.st62{display:inline;fill:#6F8C79;}
	.st63{display:inline;fill:#F1DED1;stroke:#5E2615;stroke-width:2;stroke-miterlimit:10;}
	.st64{display:inline;fill:#76897D;}
	.st65{display:inline;fill:#5E2615;}
	.st66{display:inline;opacity:0.92;fill:#76897D;}
	.st67{display:inline;fill:#0F4B4C;}
	.st68{display:inline;fill:none;stroke:#072626;stroke-miterlimit:10;}
	.st69{display:inline;fill:#DF8E6F;}
	.st70{display:inline;fill:#53BA69;stroke:#1B2C17;stroke-width:2;stroke-miterlimit:10;}
	.st71{display:inline;fill:#109148;stroke:#5E2615;stroke-width:2;stroke-miterlimit:10;}
	.st72{fill:#109148;}
	.st73{display:inline;fill:none;stroke:#5E2615;stroke-width:2;stroke-miterlimit:10;}
	.st74{display:inline;fill:#3A8E86;stroke:#5E2615;stroke-width:2;stroke-miterlimit:10;}
	.st75{display:inline;fill:#2B241F;stroke:#5E2615;stroke-width:2;stroke-miterlimit:10;}
	.st76{display:inline;fill:#2B241F;stroke:#130D0C;stroke-width:2;stroke-miterlimit:10;}
	.st77{display:inline;fill:#2B4C23;stroke:#122012;stroke-width:2;stroke-miterlimit:10;}
	.st78{fill:#2B241F;}
	.st79{display:inline;fill:#52BA62;stroke:#5E2615;stroke-width:2;stroke-miterlimit:10;}
	.st80{fill:#1B2C17;}
	.st81{display:inline;fill:#97B29C;stroke:#1B2C17;stroke-width:2;stroke-miterlimit:10;}
	.st82{display:inline;fill:none;}
	.st83{font-family:'BodoniSvtyTwoITCTT-Book';}
	.st84{font-size:90px;}
</style>
<g id="Layer_1" class="st0">
</g>
<g id="Layer_7">
	<rect y="1.9" class="st1" width="1200" height="630"/>
	<path class="st2" d="M-39.2,9.2c0,0,3.5-43,94.5-24.3c0,0-8.7,6.7-16.9,19.5C31.1,15.9,20.3,25.1,7.1,28.8
		c-9.5,2.6-20.4,3.1-30.4-2.8C-23.2,26-34,19.3-39.2,9.2z"/>
	<path class="st2" d="M119.1,11.8c0,0,3.5-43,94.5-24.3c0,0-8.7,6.7-16.9,19.5c-7.4,11.5-18.1,20.8-31.3,24.4
		c-9.5,2.6-20.4,3.1-30.4-2.8C135.1,28.7,124.3,22,119.1,11.8z"/>
	<path class="st2" d="M275.2,11.8c0,0,3.5-43,94.5-24.3c0,0-8.7,6.7-16.9,19.5c-7.4,11.5-18.1,20.8-31.3,24.4
		c-9.5,2.6-20.4,3.1-30.4-2.8C291.2,28.7,280.4,22,275.2,11.8z"/>
	<path class="st2" d="M440.1,11.8c0,0,3.5-43,94.5-24.3c0,0-8.7,6.7-16.9,19.5c-7.4,11.5-18.1,20.8-31.3,24.4
		c-9.5,2.6-20.4,3.1-30.4-2.8C456.1,28.7,445.3,22,440.1,11.8z"/>
	<path class="st2" d="M604.9,9.2c0,0,3.5-43,94.5-24.3c0,0-8.7,6.7-16.9,19.5c-7.4,11.5-18.1,20.8-31.3,24.4
		c-9.5,2.6-20.4,3.1-30.4-2.8C620.9,26,610.1,19.3,604.9,9.2z"/>
	<path class="st2" d="M753.8,9.2c0,0,3.5-43,94.5-24.3c0,0-8.7,6.7-16.9,19.5c-7.4,11.5-18.1,20.8-31.3,24.4
		c-9.5,2.6-20.4,3.1-30.4-2.8C769.8,26,759,19.3,753.8,9.2z"/>
	<path class="st2" d="M-145.4,87.1c0,0,3.5-43,94.5-24.3c0,0-8.7,6.7-16.9,19.5c-7.4,11.5-18.1,20.8-31.3,24.4
		c-9.5,2.6-20.4,3.1-30.4-2.8C-129.4,103.9-140.3,97.3-145.4,87.1z"/>
	<path class="st2" d="M12.9,89.7c0,0,3.5-43,94.5-24.3c0,0-8.7,6.7-16.9,19.5c-7.4,11.5-18.1,20.8-31.3,24.4
		c-9.5,2.6-20.4,3.1-30.4-2.8C28.9,106.6,18.1,99.9,12.9,89.7z"/>
	<path class="st2" d="M169,89.7c0,0,3.5-43,94.5-24.3c0,0-8.7,6.7-16.9,19.5c-7.4,11.5-18.1,20.8-31.3,24.4
		c-9.5,2.6-20.4,3.1-30.4-2.8C185,106.6,174.2,99.9,169,89.7z"/>
	<path class="st2" d="M333.9,89.7c0,0,3.5-43,94.5-24.3c0,0-8.7,6.7-16.9,19.5c-7.4,11.5-18.1,20.8-31.3,24.4
		c-9.5,2.6-20.4,3.1-30.4-2.8C349.9,106.6,339,99.9,333.9,89.7z"/>
	<path class="st2" d="M498.7,87.1c0,0,3.5-43,94.5-24.3c0,0-8.7,6.7-16.9,19.5C569,93.8,558.2,103,545,106.7
		c-9.5,2.6-20.4,3.1-30.4-2.8C514.6,103.9,503.8,97.3,498.7,87.1z"/>
	<path class="st2" d="M647.6,87.1c0,0,3.5-43,94.5-24.3c0,0-8.7,6.7-16.9,19.5c-7.4,11.5-18.1,20.8-31.3,24.4
		c-9.5,2.6-20.4,3.1-30.4-2.8C663.6,103.9,652.8,97.3,647.6,87.1z"/>
	<path class="st2" d="M-70,161c0,0,3.5-43,94.5-24.3c0,0-8.7,6.7-16.9,19.5c-7.4,11.5-18.1,20.8-31.3,24.4
		c-9.5,2.6-20.4,3.1-30.4-2.8C-54,177.8-64.8,171.2-70,161z"/>
	<path class="st2" d="M88.4,163.7c0,0,3.5-43,94.5-24.3c0,0-8.7,6.7-16.9,19.5c-7.4,11.5-18.1,20.8-31.3,24.4
		c-9.5,2.6-20.4,3.1-30.4-2.8C104.4,180.5,93.5,173.9,88.4,163.7z"/>
	<path class="st2" d="M244.5,163.7c0,0,3.5-43,94.5-24.3c0,0-8.7,6.7-16.9,19.5c-7.4,11.5-18.1,20.8-31.3,24.4
		c-9.5,2.6-20.4,3.1-30.4-2.8C260.5,180.5,249.6,173.9,244.5,163.7z"/>
	<path class="st2" d="M409.3,163.7c0,0,3.5-43,94.5-24.3c0,0-8.7,6.7-16.9,19.5c-7.4,11.5-18.1,20.8-31.3,24.4
		c-9.5,2.6-20.4,3.1-30.4-2.8C425.3,180.5,414.5,173.9,409.3,163.7z"/>
	<path class="st2" d="M574.1,161c0,0,3.5-43,94.5-24.3c0,0-8.7,6.7-16.9,19.5c-7.4,11.5-18.1,20.8-31.3,24.4
		c-9.5,2.6-20.4,3.1-30.4-2.8C590.1,177.8,579.3,171.2,574.1,161z"/>
	<path class="st2" d="M723.1,161c0,0,3.5-43,94.5-24.3c0,0-8.7,6.7-16.9,19.5c-7.4,11.5-18.1,20.8-31.3,24.4
		c-9.5,2.6-20.4,3.1-30.4-2.8C739.1,177.8,728.3,171.2,723.1,161z"/>
	<path class="st2" d="M-179.4,249.7c0,0,3.5-43,94.5-24.3c0,0-8.7,6.7-16.9,19.5c-7.4,11.5-18.1,20.8-31.3,24.4
		c-9.5,2.6-20.4,3.1-30.4-2.8C-163.5,266.5-174.3,259.9-179.4,249.7z"/>
	<path class="st2" d="M-21.1,252.4c0,0,3.5-43,94.5-24.3c0,0-8.7,6.7-16.9,19.5c-7.4,11.5-18.1,20.8-31.3,24.4
		c-9.5,2.6-20.4,3.1-30.4-2.8C-5.1,269.2-15.9,262.6-21.1,252.4z"/>
	<path class="st2" d="M135,252.4c0,0,3.5-43,94.5-24.3c0,0-8.7,6.7-16.9,19.5c-7.4,11.5-18.1,20.8-31.3,24.4
		c-9.5,2.6-20.4,3.1-30.4-2.8C151,269.2,140.2,262.6,135,252.4z"/>
	<path class="st2" d="M299.9,252.4c0,0,3.5-43,94.5-24.3c0,0-8.7,6.7-16.9,19.5c-7.4,11.5-18.1,20.8-31.3,24.4
		c-9.5,2.6-20.4,3.1-30.4-2.8C315.8,269.2,305,262.6,299.9,252.4z"/>
	<path class="st2" d="M464.7,249.7c0,0,3.5-43,94.5-24.3c0,0-8.7,6.7-16.9,19.5c-7.4,11.5-18.1,20.8-31.3,24.4
		c-9.5,2.6-20.4,3.1-30.4-2.8C480.6,266.5,469.8,259.9,464.7,249.7z"/>
	<path class="st2" d="M613.6,249.7c0,0,3.5-43,94.5-24.3c0,0-8.7,6.7-16.9,19.5c-7.4,11.5-18.1,20.8-31.3,24.4
		c-9.5,2.6-20.4,3.1-30.4-2.8C629.6,266.5,618.8,259.9,613.6,249.7z"/>
	<path class="st2" d="M753.8,252.4c0,0,3.5-43,94.5-24.3c0,0-8.7,6.7-16.9,19.5c-7.4,11.5-18.1,20.8-31.3,24.4
		c-9.5,2.6-20.4,3.1-30.4-2.8C769.8,269.2,759,262.6,753.8,252.4z"/>
	<path class="st2" d="M46.1,342.8c0,0,3.5-43,94.5-24.3c0,0-8.7,6.7-16.9,19.5c-7.4,11.5-18.1,20.8-31.3,24.4
		c-9.5,2.6-20.4,3.1-30.4-2.8C62,359.6,51.2,353,46.1,342.8z"/>
	<path class="st2" d="M-89.7,342.8c0,0,3.5-43,94.5-24.3c0,0-8.7,6.7-16.9,19.5c-7.4,11.5-18.1,20.8-31.3,24.4
		c-9.5,2.6-20.4,3.1-30.4-2.8C-73.8,359.6-84.6,353-89.7,342.8z"/>
	<path class="st2" d="M204.4,345.5c0,0,3.5-43,94.5-24.3c0,0-8.7,6.7-16.9,19.5c-7.4,11.5-18.1,20.8-31.3,24.4
		c-9.5,2.6-20.4,3.1-30.4-2.8C220.4,362.3,209.6,355.7,204.4,345.5z"/>
	<path class="st2" d="M360.5,345.5c0,0,3.5-43,94.5-24.3c0,0-8.7,6.7-16.9,19.5c-7.4,11.5-18.1,20.8-31.3,24.4
		c-9.5,2.6-20.4,3.1-30.4-2.8C376.5,362.3,365.7,355.7,360.5,345.5z"/>
	<path class="st2" d="M525.4,345.5c0,0,3.5-43,94.5-24.3c0,0-8.7,6.7-16.9,19.5c-7.4,11.5-18.1,20.8-31.3,24.4
		c-9.5,2.6-20.4,3.1-30.4-2.8C541.3,362.3,530.5,355.7,525.4,345.5z"/>
	<path class="st2" d="M690.2,342.8c0,0,3.5-43,94.5-24.3c0,0-8.7,6.7-16.9,19.5c-7.4,11.5-18.1,20.8-31.3,24.4
		c-9.5,2.6-20.4,3.1-30.4-2.8C706.1,359.6,695.3,353,690.2,342.8z"/>
	<path class="st2" d="M839.1,342.8c0,0,3.5-43,94.5-24.3c0,0-8.7,6.7-16.9,19.5c-7.4,11.5-18.1,20.8-31.3,24.4
		c-9.5,2.6-20.4,3.1-30.4-2.8C855.1,359.6,844.3,353,839.1,342.8z"/>
	<path class="st2" d="M-62.7,426.9c0,0,3.5-43,94.5-24.3c0,0-8.7,6.7-16.9,19.5c-7.4,11.5-18.1,20.8-31.3,24.4
		c-9.5,2.6-20.4,3.1-30.4-2.8C-46.7,443.7-57.5,437.1-62.7,426.9z"/>
	<path class="st2" d="M95.7,429.6c0,0,3.5-43,94.5-24.3c0,0-8.7,6.7-16.9,19.5c-7.4,11.5-18.1,20.8-31.3,24.4
		c-9.5,2.6-20.4,3.1-30.4-2.8C111.7,446.4,100.9,439.8,95.7,429.6z"/>
	<path class="st2" d="M251.8,429.6c0,0,3.5-43,94.5-24.3c0,0-8.7,6.7-16.9,19.5c-7.4,11.5-18.1,20.8-31.3,24.4
		c-9.5,2.6-20.4,3.1-30.4-2.8C267.8,446.4,257,439.8,251.8,429.6z"/>
	<path class="st2" d="M416.6,429.6c0,0,3.5-43,94.5-24.3c0,0-8.7,6.7-16.9,19.5c-7.4,11.5-18.1,20.8-31.3,24.4
		c-9.5,2.6-20.4,3.1-30.4-2.8C432.6,446.4,421.8,439.8,416.6,429.6z"/>
	<path class="st2" d="M581.4,426.9c0,0,3.5-43,94.5-24.3c0,0-8.7,6.7-16.9,19.5c-7.4,11.5-18.1,20.8-31.3,24.4
		c-9.5,2.6-20.4,3.1-30.4-2.8C597.4,443.7,586.6,437.1,581.4,426.9z"/>
	<path class="st2" d="M730.4,426.9c0,0,3.5-43,94.5-24.3c0,0-8.7,6.7-16.9,19.5c-7.4,11.5-18.1,20.8-31.3,24.4
		c-9.5,2.6-20.4,3.1-30.4-2.8C746.4,443.7,735.6,437.1,730.4,426.9z"/>
	<path class="st2" d="M-2.3,521.9c0,0,3.5-43,94.5-24.3c0,0-8.7,6.7-16.9,19.5C68,528.6,57.2,537.9,44,541.5
		c-9.5,2.6-20.4,3.1-30.4-2.8C13.7,538.7,2.9,532.1-2.3,521.9z"/>
	<path class="st2" d="M156,524.6c0,0,3.5-43,94.5-24.3c0,0-8.7,6.7-16.9,19.5c-7.4,11.5-18.1,20.8-31.3,24.4
		c-9.5,2.6-20.4,3.1-30.4-2.8C172,541.4,161.2,534.8,156,524.6z"/>
	<path class="st2" d="M312.1,524.6c0,0,3.5-43,94.5-24.3c0,0-8.7,6.7-16.9,19.5c-7.4,11.5-18.1,20.8-31.3,24.4
		c-9.5,2.6-20.4,3.1-30.4-2.8C328.1,541.4,317.3,534.8,312.1,524.6z"/>
	<path class="st2" d="M477,524.6c0,0,3.5-43,94.5-24.3c0,0-8.7,6.7-16.9,19.5c-7.4,11.5-18.1,20.8-31.3,24.4
		c-9.5,2.6-20.4,3.1-30.4-2.8C493,541.4,482.1,534.8,477,524.6z"/>
	<path class="st2" d="M641.8,521.9c0,0,3.5-43,94.5-24.3c0,0-8.7,6.7-16.9,19.5c-7.4,11.5-18.1,20.8-31.3,24.4
		c-9.5,2.6-20.4,3.1-30.4-2.8C657.8,538.7,646.9,532.1,641.8,521.9z"/>
	<path class="st2" d="M790.7,521.9c0,0,3.5-43,94.5-24.3c0,0-8.7,6.7-16.9,19.5c-7.4,11.5-18.1,20.8-31.3,24.4
		c-9.5,2.6-20.4,3.1-30.4-2.8C806.7,538.7,795.9,532.1,790.7,521.9z"/>
	<path class="st2" d="M-109.9,605.4c0,0,3.5-43,94.5-24.3c0,0-8.7,6.7-16.9,19.5c-7.4,11.5-18.1,20.8-31.3,24.4
		c-9.5,2.6-20.4,3.1-30.4-2.8C-93.9,622.2-104.8,615.6-109.9,605.4z"/>
	<path class="st2" d="M48.4,608.1c0,0,3.5-43,94.5-24.3c0,0-8.7,6.7-16.9,19.5c-7.4,11.5-18.1,20.8-31.3,24.4
		c-9.5,2.6-20.4,3.1-30.4-2.8C64.4,624.9,53.6,618.3,48.4,608.1z"/>
	<path class="st2" d="M204.5,608.1c0,0,3.5-43,94.5-24.3c0,0-8.7,6.7-16.9,19.5c-7.4,11.5-18.1,20.8-31.3,24.4
		c-9.5,2.6-20.4,3.1-30.4-2.8C220.5,624.9,209.7,618.3,204.5,608.1z"/>
	<path class="st2" d="M369.4,608.1c0,0,3.5-43,94.5-24.3c0,0-8.7,6.7-16.9,19.5c-7.4,11.5-18.1,20.8-31.3,24.4
		c-9.5,2.6-20.4,3.1-30.4-2.8C385.4,624.9,374.5,618.3,369.4,608.1z"/>
	<path class="st2" d="M534.2,605.4c0,0,3.5-43,94.5-24.3c0,0-8.7,6.7-16.9,19.5c-7.4,11.5-18.1,20.8-31.3,24.4
		c-9.5,2.6-20.4,3.1-30.4-2.8C550.1,622.2,539.3,615.6,534.2,605.4z"/>
	<path class="st2" d="M683.1,605.4c0,0,3.5-43,94.5-24.3c0,0-8.7,6.7-16.9,19.5c-7.4,11.5-18.1,20.8-31.3,24.4
		c-9.5,2.6-20.4,3.1-30.4-2.8C699.1,622.2,688.3,615.6,683.1,605.4z"/>
	<path class="st2" d="M-18.8,707c0,0,3.5-43,94.5-24.3c0,0-8.7,6.7-16.9,19.5c-7.4,11.5-18.1,20.8-31.3,24.4
		c-9.5,2.6-20.4,3.1-30.4-2.8C-2.8,723.9-13.6,717.2-18.8,707z"/>
	<path class="st2" d="M139.6,709.7c0,0,3.5-43,94.5-24.3c0,0-8.7,6.7-16.9,19.5c-7.4,11.5-18.1,20.8-31.3,24.4
		c-9.5,2.6-20.4,3.1-30.4-2.8C155.6,726.6,144.7,719.9,139.6,709.7z"/>
	<path class="st2" d="M295.7,709.7c0,0,3.5-43,94.5-24.3c0,0-8.7,6.7-16.9,19.5c-7.4,11.5-18.1,20.8-31.3,24.4
		c-9.5,2.6-20.4,3.1-30.4-2.8C311.6,726.6,300.8,719.9,295.7,709.7z"/>
	<path class="st2" d="M460.5,709.7c0,0,3.5-43,94.5-24.3c0,0-8.7,6.7-16.9,19.5c-7.4,11.5-18.1,20.8-31.3,24.4
		c-9.5,2.6-20.4,3.1-30.4-2.8C476.5,726.6,465.7,719.9,460.5,709.7z"/>
	<path class="st2" d="M625.3,707c0,0,3.5-43,94.5-24.3c0,0-8.7,6.7-16.9,19.5c-7.4,11.5-18.1,20.8-31.3,24.4
		c-9.5,2.6-20.4,3.1-30.4-2.8C641.3,723.9,630.5,717.2,625.3,707z"/>
	<path class="st2" d="M774.3,707c0,0,3.5-43,94.5-24.3c0,0-8.7,6.7-16.9,19.5c-7.4,11.5-18.1,20.8-31.3,24.4
		c-9.5,2.6-20.4,3.1-30.4-2.8C790.3,723.9,779.4,717.2,774.3,707z"/>
	<path class="st2" d="M-111.4,799.9c0,0,3.5-43,94.5-24.3c0,0-8.7,6.7-16.9,19.5c-7.4,11.5-18.1,20.8-31.3,24.4
		c-9.5,2.6-20.4,3.1-30.4-2.8C-95.4,816.8-106.2,810.1-111.4,799.9z"/>
	<path class="st2" d="M46.9,802.6c0,0,3.5-43,94.5-24.3c0,0-8.7,6.7-16.9,19.5c-7.4,11.5-18.1,20.8-31.3,24.4
		c-9.5,2.6-20.4,3.1-30.4-2.8C62.9,819.4,52.1,812.8,46.9,802.6z"/>
	<path class="st2" d="M203,802.6c0,0,3.5-43,94.5-24.3c0,0-8.7,6.7-16.9,19.5c-7.4,11.5-18.1,20.8-31.3,24.4
		c-9.5,2.6-20.4,3.1-30.4-2.8C219,819.4,208.2,812.8,203,802.6z"/>
	<path class="st2" d="M367.9,802.6c0,0,3.5-43,94.5-24.3c0,0-8.7,6.7-16.9,19.5c-7.4,11.5-18.1,20.8-31.3,24.4
		c-9.5,2.6-20.4,3.1-30.4-2.8C383.9,819.4,373.1,812.8,367.9,802.6z"/>
	<path class="st2" d="M532.7,799.9c0,0,3.5-43,94.5-24.3c0,0-8.7,6.7-16.9,19.5c-7.4,11.5-18.1,20.8-31.3,24.4
		c-9.5,2.6-20.4,3.1-30.4-2.8C548.7,816.8,537.9,810.1,532.7,799.9z"/>
	<path class="st2" d="M681.6,799.9c0,0,3.5-43,94.5-24.3c0,0-8.7,6.7-16.9,19.5c-7.4,11.5-18.1,20.8-31.3,24.4
		c-9.5,2.6-20.4,3.1-30.4-2.8C697.6,816.8,686.8,810.1,681.6,799.9z"/>
	<path class="st2" d="M-28.6,875c0,0,3.5-43,94.5-24.3c0,0-8.7,6.7-16.9,19.5c-7.4,11.5-18.1,20.8-31.3,24.4
		c-9.5,2.6-20.4,3.1-30.4-2.8C-12.7,891.8-23.5,885.2-28.6,875z"/>
	<path class="st2" d="M129.7,877.7c0,0,3.5-43,94.5-24.3c0,0-8.7,6.7-16.9,19.5c-7.4,11.5-18.1,20.8-31.3,24.4
		c-9.5,2.6-20.4,3.1-30.4-2.8C145.7,894.5,134.9,887.9,129.7,877.7z"/>
	<path class="st2" d="M285.8,877.7c0,0,3.5-43,94.5-24.3c0,0-8.7,6.7-16.9,19.5c-7.4,11.5-18.1,20.8-31.3,24.4
		c-9.5,2.6-20.4,3.1-30.4-2.8C301.8,894.5,291,887.9,285.8,877.7z"/>
	<path class="st2" d="M450.7,877.7c0,0,3.5-43,94.5-24.3c0,0-8.7,6.7-16.9,19.5c-7.4,11.5-18.1,20.8-31.3,24.4
		c-9.5,2.6-20.4,3.1-30.4-2.8C466.6,894.5,455.8,887.9,450.7,877.7z"/>
	<path class="st2" d="M615.5,875c0,0,3.5-43,94.5-24.3c0,0-8.7,6.7-16.9,19.5c-7.4,11.5-18.1,20.8-31.3,24.4
		c-9.5,2.6-20.4,3.1-30.4-2.8C631.4,891.8,620.6,885.2,615.5,875z"/>
	<path class="st2" d="M764.4,875c0,0,3.5-43,94.5-24.3c0,0-8.7,6.7-16.9,19.5c-7.4,11.5-18.1,20.8-31.3,24.4
		c-9.5,2.6-20.4,3.1-30.4-2.8C780.4,891.8,769.6,885.2,764.4,875z"/>
	<path class="st2" d="M916-4.5c0,0,3.5-43,94.5-24.3c0,0-8.7,6.7-16.9,19.5c-7.4,11.5-18.1,20.8-31.3,24.4
		c-9.5,2.6-20.4,3.1-30.4-2.8C931.9,12.3,921.1,5.7,916-4.5z"/>
	<path class="st2" d="M1074.3-1.8c0,0,3.5-43,94.5-24.3c0,0-8.7,6.7-16.9,19.5c-7.4,11.5-18.1,20.8-31.3,24.4
		c-9.5,2.6-20.4,3.1-30.4-2.8C1090.3,15,1079.5,8.4,1074.3-1.8z"/>
	<path class="st2" d="M1230.4-1.8c0,0,3.5-43,94.5-24.3c0,0-8.7,6.7-16.9,19.5c-7.4,11.5-18.1,20.8-31.3,24.4
		c-9.5,2.6-20.4,3.1-30.4-2.8C1246.4,15,1235.6,8.4,1230.4-1.8z"/>
	<path class="st2" d="M1395.3-1.8c0,0,3.5-43,94.5-24.3c0,0-8.7,6.7-16.9,19.5c-7.4,11.5-18.1,20.8-31.3,24.4
		c-9.5,2.6-20.4,3.1-30.4-2.8C1411.2,15,1400.4,8.4,1395.3-1.8z"/>
	<path class="st2" d="M1560.1-4.5c0,0,3.5-43,94.5-24.3c0,0-8.7,6.7-16.9,19.5c-7.4,11.5-18.1,20.8-31.3,24.4
		c-9.5,2.6-20.4,3.1-30.4-2.8C1576,12.3,1565.2,5.7,1560.1-4.5z"/>
	<path class="st2" d="M1709-4.5c0,0,3.5-43,94.5-24.3c0,0-8.7,6.7-16.9,19.5c-7.4,11.5-18.1,20.8-31.3,24.4
		c-9.5,2.6-20.4,3.1-30.4-2.8C1725,12.3,1714.2,5.7,1709-4.5z"/>
	<path class="st2" d="M998.7,70.6c0,0,3.5-43,94.5-24.3c0,0-8.7,6.7-16.9,19.5c-7.4,11.5-18.1,20.8-31.3,24.4
		c-9.5,2.6-20.4,3.1-30.4-2.8C1014.7,87.4,1003.9,80.8,998.7,70.6z"/>
	<path class="st2" d="M839.1,87.6c0,0,3.5-43,94.5-24.3c0,0-8.7,6.7-16.9,19.5c-7.4,11.5-18.1,20.8-31.3,24.4
		c-9.5,2.6-20.4,3.1-30.4-2.8C855.1,104.5,844.3,97.8,839.1,87.6z"/>
	<path class="st2" d="M1157.1,73.3c0,0,3.5-43,94.5-24.3c0,0-8.7,6.7-16.9,19.5c-7.4,11.5-18.1,20.8-31.3,24.4
		c-9.5,2.6-20.4,3.1-30.4-2.8C1173.1,90.1,1162.2,83.5,1157.1,73.3z"/>
	<path class="st2" d="M1183.1,329.1c0,0,3.5-43,94.5-24.3c0,0-8.7,6.7-16.9,19.5c-7.4,11.5-18.1,20.8-31.3,24.4
		c-9.5,2.6-20.4,3.1-30.4-2.8C1199.1,345.9,1188.3,339.3,1183.1,329.1z"/>
	<path class="st2" d="M1313.2,73.3c0,0,3.5-43,94.5-24.3c0,0-8.7,6.7-16.9,19.5c-7.4,11.5-18.1,20.8-31.3,24.4
		c-9.5,2.6-20.4,3.1-30.4-2.8C1329.2,90.1,1318.3,83.5,1313.2,73.3z"/>
	<path class="st2" d="M1478,73.3c0,0,3.5-43,94.5-24.3c0,0-8.7,6.7-16.9,19.5c-7.4,11.5-18.1,20.8-31.3,24.4
		c-9.5,2.6-20.4,3.1-30.4-2.8C1494,90.1,1483.2,83.5,1478,73.3z"/>
	<path class="st2" d="M1642.8,70.6c0,0,3.5-43,94.5-24.3c0,0-8.7,6.7-16.9,19.5c-7.4,11.5-18.1,20.8-31.3,24.4
		c-9.5,2.6-20.4,3.1-30.4-2.8C1658.8,87.4,1648,80.8,1642.8,70.6z"/>
	<path class="st2" d="M1791.8,70.6c0,0,3.5-43,94.5-24.3c0,0-8.7,6.7-16.9,19.5c-7.4,11.5-18.1,20.8-31.3,24.4
		c-9.5,2.6-20.4,3.1-30.4-2.8C1807.8,87.4,1797,80.8,1791.8,70.6z"/>
	<path class="st2" d="M863.1,164.5c0,0,3.5-43,94.5-24.3c0,0-8.7,6.7-16.9,19.5c-7.4,11.5-18.1,20.8-31.3,24.4
		c-9.5,2.6-20.4,3.1-30.4-2.8C879.1,181.3,868.3,174.7,863.1,164.5z"/>
	<path class="st2" d="M1021.5,167.2c0,0,3.5-43,94.5-24.3c0,0-8.7,6.7-16.9,19.5c-7.4,11.5-18.1,20.8-31.3,24.4
		c-9.5,2.6-20.4,3.1-30.4-2.8C1037.5,184,1026.7,177.4,1021.5,167.2z"/>
	<path class="st2" d="M1177.6,167.2c0,0,3.5-43,94.5-24.3c0,0-8.7,6.7-16.9,19.5c-7.4,11.5-18.1,20.8-31.3,24.4
		c-9.5,2.6-20.4,3.1-30.4-2.8C1193.6,184,1182.8,177.4,1177.6,167.2z"/>
	<path class="st2" d="M1342.4,167.2c0,0,3.5-43,94.5-24.3c0,0-8.7,6.7-16.9,19.5c-7.4,11.5-18.1,20.8-31.3,24.4
		c-9.5,2.6-20.4,3.1-30.4-2.8C1358.4,184,1347.6,177.4,1342.4,167.2z"/>
	<path class="st2" d="M1507.2,164.5c0,0,3.5-43,94.5-24.3c0,0-8.7,6.7-16.9,19.5c-7.4,11.5-18.1,20.8-31.3,24.4
		c-9.5,2.6-20.4,3.1-30.4-2.8C1523.2,181.3,1512.4,174.7,1507.2,164.5z"/>
	<path class="st2" d="M1656.2,164.5c0,0,3.5-43,94.5-24.3c0,0-8.7,6.7-16.9,19.5c-7.4,11.5-18.1,20.8-31.3,24.4
		c-9.5,2.6-20.4,3.1-30.4-2.8C1672.2,181.3,1661.4,174.7,1656.2,164.5z"/>
	<path class="st2" d="M945.9,239.6c0,0,3.5-43,94.5-24.3c0,0-8.7,6.7-16.9,19.5c-7.4,11.5-18.1,20.8-31.3,24.4
		c-9.5,2.6-20.4,3.1-30.4-2.8C961.9,256.4,951.1,249.8,945.9,239.6z"/>
	<path class="st2" d="M1104.3,242.3c0,0,3.5-43,94.5-24.3c0,0-8.7,6.7-16.9,19.5c-7.4,11.5-18.1,20.8-31.3,24.4
		c-9.5,2.6-20.4,3.1-30.4-2.8C1120.2,259.1,1109.4,252.5,1104.3,242.3z"/>
	<path class="st2" d="M1260.4,242.3c0,0,3.5-43,94.5-24.3c0,0-8.7,6.7-16.9,19.5c-7.4,11.5-18.1,20.8-31.3,24.4
		c-9.5,2.6-20.4,3.1-30.4-2.8C1276.3,259.1,1265.5,252.5,1260.4,242.3z"/>
	<path class="st2" d="M1425.2,242.3c0,0,3.5-43,94.5-24.3c0,0-8.7,6.7-16.9,19.5c-7.4,11.5-18.1,20.8-31.3,24.4
		c-9.5,2.6-20.4,3.1-30.4-2.8C1441.2,259.1,1430.4,252.5,1425.2,242.3z"/>
	<path class="st2" d="M1590,239.6c0,0,3.5-43,94.5-24.3c0,0-8.7,6.7-16.9,19.5c-7.4,11.5-18.1,20.8-31.3,24.4
		c-9.5,2.6-20.4,3.1-30.4-2.8C1606,256.4,1595.2,249.8,1590,239.6z"/>
	<path class="st2" d="M1739,239.6c0,0,3.5-43,94.5-24.3c0,0-8.7,6.7-16.9,19.5c-7.4,11.5-18.1,20.8-31.3,24.4
		c-9.5,2.6-20.4,3.1-30.4-2.8C1754.9,256.4,1744.1,249.8,1739,239.6z"/>
	<path class="st2" d="M940,411.5c0,0,3.5-43,94.5-24.3c0,0-8.7,6.7-16.9,19.5c-7.4,11.5-18.1,20.8-31.3,24.4
		c-9.5,2.6-20.4,3.1-30.4-2.8C956,428.3,945.2,421.6,940,411.5z"/>
	<path class="st2" d="M1098.4,414.1c0,0,3.5-43,94.5-24.3c0,0-8.7,6.7-16.9,19.5c-7.4,11.5-18.1,20.8-31.3,24.4
		c-9.5,2.6-20.4,3.1-30.4-2.8C1114.4,431,1103.5,424.3,1098.4,414.1z"/>
	<path class="st2" d="M1254.5,414.1c0,0,3.5-43,94.5-24.3c0,0-8.7,6.7-16.9,19.5c-7.4,11.5-18.1,20.8-31.3,24.4
		c-9.5,2.6-20.4,3.1-30.4-2.8C1270.5,431,1259.6,424.3,1254.5,414.1z"/>
	<path class="st2" d="M1419.3,414.1c0,0,3.5-43,94.5-24.3c0,0-8.7,6.7-16.9,19.5c-7.4,11.5-18.1,20.8-31.3,24.4
		c-9.5,2.6-20.4,3.1-30.4-2.8C1435.3,431,1424.5,424.3,1419.3,414.1z"/>
	<path class="st2" d="M1584.1,411.5c0,0,3.5-43,94.5-24.3c0,0-8.7,6.7-16.9,19.5c-7.4,11.5-18.1,20.8-31.3,24.4
		c-9.5,2.6-20.4,3.1-30.4-2.8C1600.1,428.3,1589.3,421.6,1584.1,411.5z"/>
	<path class="st2" d="M1733.1,411.5c0,0,3.5-43,94.5-24.3c0,0-8.7,6.7-16.9,19.5c-7.4,11.5-18.1,20.8-31.3,24.4
		c-9.5,2.6-20.4,3.1-30.4-2.8C1749.1,428.3,1738.3,421.6,1733.1,411.5z"/>
	<path class="st2" d="M1022.8,486.5c0,0,3.5-43,94.5-24.3c0,0-8.7,6.7-16.9,19.5c-7.4,11.5-18.1,20.8-31.3,24.4
		c-9.5,2.6-20.4,3.1-30.4-2.8C1038.8,503.4,1028,496.7,1022.8,486.5z"/>
	<path class="st2" d="M1181.2,489.2c0,0,3.5-43,94.5-24.3c0,0-8.7,6.7-16.9,19.5c-7.4,11.5-18.1,20.8-31.3,24.4
		c-9.5,2.6-20.4,3.1-30.4-2.8C1197.1,506,1186.3,499.4,1181.2,489.2z"/>
	<path class="st2" d="M1337.3,489.2c0,0,3.5-43,94.5-24.3c0,0-8.7,6.7-16.9,19.5c-7.4,11.5-18.1,20.8-31.3,24.4
		c-9.5,2.6-20.4,3.1-30.4-2.8C1353.2,506,1342.4,499.4,1337.3,489.2z"/>
	<path class="st2" d="M1502.1,489.2c0,0,3.5-43,94.5-24.3c0,0-8.7,6.7-16.9,19.5c-7.4,11.5-18.1,20.8-31.3,24.4
		c-9.5,2.6-20.4,3.1-30.4-2.8C1518.1,506,1507.3,499.4,1502.1,489.2z"/>
	<path class="st2" d="M1666.9,486.5c0,0,3.5-43,94.5-24.3c0,0-8.7,6.7-16.9,19.5c-7.4,11.5-18.1,20.8-31.3,24.4
		c-9.5,2.6-20.4,3.1-30.4-2.8C1682.9,503.4,1672.1,496.7,1666.9,486.5z"/>
	<path class="st2" d="M1815.9,486.5c0,0,3.5-43,94.5-24.3c0,0-8.7,6.7-16.9,19.5c-7.4,11.5-18.1,20.8-31.3,24.4
		c-9.5,2.6-20.4,3.1-30.4-2.8C1831.8,503.4,1821,496.7,1815.9,486.5z"/>
</g>
<g id="Pot_2">
	<path class="st3" d="M688,210.5c0,0-6-14.6,8.6-12.8c12.9,1.6,26.5,33.8,26.5,33.8l-27.5-20.9L688,210.5z"/>
	<path class="st3" d="M617.1,175.9c0,0,3.1-14.7,15.8-9.3c1.3,0.5,2.6,1,3.9,1.4c9.2,3,39.8,7.8,46,17.8
		c8.4,13.7,10.4,23.6,10.4,23.6S655,198.1,655,198.1c0-0.1-24.8-3.7-24.8-3.7l-13.1-2L617.1,175.9z"/>
	<path class="st3" d="M473.1,465.8c0,0-11.4-67.2-6.4-144.8c0.2-3.4,1.6-6.8,1.8-10.5c0,0,6.5-25.8,36.1-32.1c0,0,23.4-39.3,30.5-60
		c7-20.7,59.6-40.6,61.1-40.6c1.5,0,9.3,0.6,10.7,3.2c1.4,2.6,4.4,11.1,4.4,11.1s6.5-5.7,17.8,1.3c11.4,7,3.9,11.6,3.9,11.6
		l-80.1,121.8l33.3,35.4l12.2,34.4c0,0-18.8,10.2-20.4,11s-53.7,21.3-55.9,22.8c-2.2,1.5-39.2,24.7-39.2,24.7L473.1,465.8
		C473.1,465.8,487.4,498.5,473.1,465.8z"/>
	<path class="st3" d="M686.3,505.1c0,0,21.4-0.1,49.2-111.3c0,0,8.7-25.2-12.7-46.6c0,0,3.1-45.7,8.8-66.9
		c14.1-52.2-35.4-75.1-36.7-75.9c-1.2-0.8,0.4-0.4-2.1,1s-7.4-2.2-7.4-2.2s-32-27.8-45.4-30.1c-15.5-2.6-21.9,3-21.9,3l63.9,128.4
		l-73.4,68l-29,22.1c0,0,10.2,18.8,11.1,20.4s33.3,47.2,34.3,49.7c1,2.5,19.3,42.2,19.3,42.2l2.2,14.2
		C646.7,521.3,656.5,524.7,686.3,505.1z"/>
	<path class="st4" d="M540.9,202.8c0,0,45.7-14.1,102.6,3.3c27.9,8.5,58.4,24.5,87.6,53.3c0,0,0.7,1.1-4.4,11.9
		c-4.6,9.8-18.3,25.3-18.3,25.3s-3.6,0.9-7.4-1.6c-3.9-2.5-154.1-44.3-154.1-44.3s-6.8,0.4-7.8-5.8
		C538.1,238.6,534.4,206.4,540.9,202.8z"/>
	<path class="st5" d="M609.6,201.2c0,0-10.2,17.3-16.3,50.1c0,0-31-9.3-38.7-5.9c-7.7,3.4,0-32.7-0.2-34.3s32.4-24.5,32.4-24.5
		S609.1,197.6,609.6,201.2z"/>
	<path class="st6" d="M544.4,275c0,0-38.9,42.5-38.7,119l2,23.2l60-2.8l19.4-22.6c0,0-1-35.7-2.6-36.3C583,355,544.4,275,544.4,275z
		"/>
	<path class="st7" d="M687.1,322.7c0,0,20.8,40-19.9,80.6s-40.4,31.4-40.4,31.4s-19.8-18.8-21.1-20.1c-1.3-1.3-1.5-38.3-0.9-38.8
		C605.5,375.2,687.1,322.7,687.1,322.7z"/>
	<path class="st4" d="M577.4,379.1l-1.7,11.4c0,0-1.1,5.8-7.4,6.6c-6.2,0.8-53,9-66.1,22.7l-5.8,5.5c0,0,44.3,32.4,85.9,22.2
		c41.6-10.2,58-29.6,58-29.6s-11.8-4.8-19-12.7c0,0-4.5-4.1-2-12.5s3.8-10.5,3.8-10.5L595.1,369L577.4,379.1z"/>
	<path class="st8" d="M576.7,379.7c0,0,2.2,17.7-11,18.1c0,0,4.7,16.4,33.3,14c0,0,17-1.4,20.5-26.8c3.9-27.8-18.1-23.2-18.1-23.2
		l-22,9L576.7,379.7z"/>
	<path class="st4" d="M545.9,250.4c0,0-4.1,58.7-3,77.9c0.4,7.3,0,23.3,7.5,31c4.5,4.6,10,10.1,17.7,14.8
		c13.3,8.2,28.5,12.8,44.1,13.9c7.5,0.5,15.9,0.5,23.5-0.8c0,0,10.5-1.3,16.5-7.6s33.9-54.6,33.9-54.6l15.7-30.2
		C701.6,294.7,638.4,235.3,545.9,250.4z"/>
	<path class="st9" d="M591.8,251.9c0,0-19,54.5-18.5,122.1c0,0-10.6-3.4-24.8-20.9c-4.4-5.5-4.4-85,6.8-101.8
		C555.3,251.3,586.6,248.4,591.8,251.9z"/>
	<path class="st8" d="M634.1,302.9c1-1.2,2.2-2.2,3.7-2.8c2.8-1.3,8.8-3.5,14.6-1.1c11.9,4.8,13.5,0.9,13.5,0.9s1,2.1-0.5,4.8
		c0,0,2.5,0.3,4-0.9c0,0,0.7,3.2-3.2,6.1c-4,3-9.7,0.5-11.9-0.7c-3.1-1.6-6.7-1.9-9.9-0.4c-0.5,0.2-1.1,0.5-1.6,0.9
		c-2.1,1.3-4.7,1.5-6.9,0.3c-0.6-0.4-1.3-0.8-1.9-1.5C632,306.4,632.9,304.3,634.1,302.9z"/>
	<path class="st8" d="M598.9,292.4c-0.1-1.6-0.7-3-1.5-4.4c-1.6-2.7-5.5-7.7-11.7-8.9c-12.6-2.4-11.7-6.6-11.7-6.6s-2,1.1-2.3,4.3
		c0,0-2.3-1.1-2.9-2.9c0,0-2.3,2.3-0.6,6.8c1.7,4.7,7.9,5.7,10.3,6c3.5,0.3,6.7,2.1,8.5,5c0.3,0.5,0.6,1,0.9,1.6
		c1.1,2.2,3.2,3.8,5.6,4c0.7,0.1,1.5,0,2.4-0.2C598.7,296.5,599.1,294.3,598.9,292.4z"/>
	<g>
		<path class="st8" d="M589.9,326.7c8.9,11.8,20.3,15.1,34.2,10.2C611.6,345,595.9,340.4,589.9,326.7L589.9,326.7z"/>
	</g>
	<path class="st10" d="M976.8,153.8c0,0-12.7-16.7-20.2-9.2c-7.5,7.5-55.4,65.1-35.9,155.6c19.5,90.5,70.4,91.1,70.4,91.1
		s-3-4.4,3-6.9c6-2.5,11.5-35.2,11.5-35.2L976.8,153.8z"/>
	<path class="st11" d="M499.5,417.5c0,0-19,9.2-20.2,19.2c0,0-34.8,198.4-36.6,210.7c-1.8,12.4,93.4,20.3,170.2-6.3
		c0,0,73.6,11.2,87.4,1.5c0,0-4.4-197.6-34.7-216.9l-11.6-6.2c0,0,0.6-7.2-6.5-4.8c-7.1,2.3-36.5,21.9-81.9,24.4
		C565.6,439.1,539.3,437.5,499.5,417.5z"/>
	<path class="st8" d="M591.7,328.6c0.7,1.3-1.8,0.4-2.9-0.2c-0.8-0.4-1.9-1.7-1.6-2.9s1.7-1.9,2.9-1.6S591.1,327.5,591.7,328.6z"/>
	<path class="st8" d="M621.3,337.4c-1.3,0.7,1.3,1.3,2.6,1.4c0.9,0.1,2.5-0.3,2.9-1.6c0.4-1.2-0.3-2.5-1.6-2.9
		S622.5,336.8,621.3,337.4z"/>
	<path class="st3" d="M520.1,249.1c0,0,10.4-59.4,34.1-62.3c23.7-2.9,44.2-16.4,44.2-16.4s14.6-4.5,16.5,6.8
		c2,11.2,2.1,14.5,2.1,14.5l-1.3,2.6c0,0-8.1-1.1-8.8-1.1s-20.6-0.8-21.9-0.2c-1.3,0.7-24.6,10.9-25.8,12.3s-27.5,30-27.5,30
		l-7.2,18L520.1,249.1z"/>
	<path class="st3" d="M611.1,186.4c0,0-66.4,6.4-70,14.5c0,0-8.7,0.2-14.8,33.7l10.4,25.4l3.2,23.1l23.9-41.3c0,0,8.4-39.3,32.5-42
		C611.5,197.9,611.1,186.4,611.1,186.4z"/>
	<path class="st3" d="M695.5,224.2c0,0,38.3,17.4,37.1,25.8c0,0,8.4,7.7-4.7,37.8l-23.3,14.5l-13.5,26.5l-4.7-12.5
		c-0.6-4.6-0.5-35.1,1.1-39.4c5.1-13.8,14.8-46.4-2.8-55.7C662.2,209.4,695.5,224.2,695.5,224.2z"/>
	<g>
		<path class="st12" d="M418.6,372.9"/>
	</g>
	<g>
		<path class="st13" d="M656,275.8c-2.5-3.7-4.7-7.6-5.4-12.1c-0.4-2.2-0.4-4.5-0.2-6.7c0.4-6.4,1.1-13.5,0.3-19.8
			c-1.1-9.7-6.2-19.1-14.4-24.5c-2.4-1.5-8.5-5.5-10.7-2.6c-0.9,1.6-0.5,4-0.2,5.9c0.3,2.1,1.7,2.9,3.7,2.5c3-0.7,5.8-2.6,8.3-4.4
			c0,0-0.3,0.3-0.3,0.3c2.7-4.6,4.2-10.2,1.5-15c-0.8-1.4-2-2.9-3.4-3.8c-1.6-1.2-3.2-2.3-5-3.1c-6-3-10.5,0.2-12.1,6.2
			c0,0-2.5-0.4-2.5-0.4c0.2-3.6,0.2-7.2,0-10.8c-0.6-6.2-1.9-18.4-10.6-16.2c-0.7,0.2-1.8,0.6-2.5,0.9c-18.9,6.7-39,10.6-56.4,20.4
			c-3,1.8-5.9,4-7.7,6.7c-1.8,3-3.3,6.3-4.7,9.7c-6.8,16.9-12.1,34.4-17.3,51.9c-0.4,2.7-2.5,6.8-4.5,9.4c-5.1,7-12.7,11.8-20.6,15
			c0,0-2.3,1-2.3,1c-0.7,0.4-1.5,0.7-2.2,1.1c-11.6,6.5-18.1,19.7-19.9,32.6c-0.1,3.7-0.4,8.1-0.8,12c-1.1,8.3-3.5,30.9-14.6,30.3
			c10.9,0.4,12.8-22.4,13.6-30.4c0.3-4,0.5-8,0.5-12c0.7-6.8,2.8-13.4,6.1-19.4c3.7-6.8,9.4-12.6,16.4-16c8.3-3.4,16.6-8,21.8-15.6
			c1.8-2.6,3.3-5.5,4-8.5c4-14.2,8.3-28.2,13.2-42.2c2.6-7,5-13.9,8.8-20.4c4.3-6.5,11.8-9.7,18.6-12.8
			c15.8-6.7,32.3-10.3,48.3-15.9c6.4-2.6,11.3,1,13.3,7.1c2.4,7.3,2.5,14.8,2.1,22.3c0,0-2.5-0.4-2.5-0.4c2-7.6,8.3-11.6,15.6-7.8
			c3.8,2,7.2,4.2,9.3,8c3,5.5,1.3,12.2-1.9,17.3c-1.9,1.4-3.8,2.7-6,3.7c-6.4,3-9.7,0.6-9.6-6.4c0.2-9.9,11-3.8,15.3-0.4
			c7.7,5.8,12.2,15.2,13.1,24.7c0.4,4.5,0.2,8.9-0.1,13.3c-0.3,4.4-1.1,8.8-0.6,13.2C651.5,268.1,653.6,272.1,656,275.8L656,275.8z"
			/>
	</g>
	<g>
		<path class="st13" d="M614.8,197.6c-3-4.6-10.2-14.9-16.4-10.2c-5.9,4.5-10.9,10.1-15.2,16.1c-7.4,10.6-12.8,22.5-15.9,35
			c-1.1,5.8-0.9,15.8,7.1,15.5c1.5,0,2.9-0.7,3.6-1.8c1.6-2.3-0.1-6.2-3.2-5.9c-3.2,0.2-6.4,2.8-8.7,5c-5.2,5.1-7.9,12.3-8.5,19.5
			c-0.7,7.4,1,14.9,3.4,21.9c-6.3-13.5-7.6-31.5,3.5-43c3.7-4.2,12.2-9.6,16.2-2.8c1.7,3.1,0.5,7.6-2.8,9.1c-2.4,1.2-5.1,1-7.5,0.2
			c-0.7-0.3-1.4-0.7-2-1.2c-5.1-4.1-4.9-11.3-3.9-17.1c0.2-1.6,1.1-4,1.6-5.6c3.5-10.8,8.5-21.2,15.4-30.3c4.6-6,10-11.5,16.2-15.9
			C605,181.2,611.7,191.9,614.8,197.6L614.8,197.6z"/>
	</g>
	<path class="st14" d="M492.8,421.3c0,0,1.4,15.2-2.8,20.4s17.2,40.7,6.5,58c-10.7,17.3-10.2,44.1-6.5,49.8s17.2,58.8,0.9,80.5
		s-54.1,10-54.1,10l-7-71.5c0,0-10.4-59.9-8.9-64S486,425.2,492.8,421.3z"/>
	<g>
		<path class="st12" d="M403.3,418.8"/>
	</g>
	<g>
		<path class="st12" d="M454.8,361.7"/>
	</g>
	<path class="st15" d="M514.3,235.7c0,0-2.9-7.2-17.5,0.9c0,0,1.9,0.7,3.9,2.4c1.9,1.6,4.2,2.6,6.7,2.5c1.8-0.1,3.6-0.6,5-2.1
		C512.5,239.4,514,237.7,514.3,235.7z"/>
	<g>
		<path class="st13" d="M507.6,237.1c6.2-1.2,12.2-3.8,16.5-8.6C521,234.2,514,237.3,507.6,237.1L507.6,237.1z"/>
	</g>
	<path class="st15" d="M503.3,350.2c0,0-3.3-4.1-11.1,4c0,0,1.3,0.1,3,0.8c1.5,0.7,3.2,0.8,4.8,0.3c1.1-0.4,2.3-1.1,2.9-2.3
		C502.9,352.9,503.5,351.5,503.3,350.2z"/>
	<g>
		<path class="st13" d="M499.8,352.6c3.7-2.2,6.9-5,9-8.8C508.1,348.2,504.1,351.7,499.8,352.6L499.8,352.6z"/>
	</g>
	<path class="st15" d="M642.5,233.4c0,0-4.8-3.9-11.8,7.4c0,0,1.6-0.2,3.7,0.2c1.9,0.4,3.9,0.2,5.6-0.9c1.2-0.7,2.3-1.8,2.7-3.4
		C642.7,236.7,643,234.9,642.5,233.4z"/>
	<g>
		<path class="st13" d="M639.1,235.6c3.8-3.4,6.9-7.4,8.2-12.4C647.4,228.4,643.7,233.4,639.1,235.6L639.1,235.6z"/>
	</g>
	<path class="st15" d="M733.4,294.3c0,0,6.4-4.4,14.1,10.3c0,0-1.9-0.4-4.6-0.1c-2.4,0.3-4.9-0.2-6.9-1.6c-1.4-1-2.7-2.5-3.1-4.5
		C732.9,298.4,732.6,296.2,733.4,294.3z"/>
	<g>
		<path class="st13" d="M736.2,297.5c-4-2.5-6.9-7.1-6.7-11.9C730.8,290.1,733.2,293.9,736.2,297.5L736.2,297.5z"/>
	</g>
	<path class="st15" d="M690.7,384.9c0,0,4.7-3.2,10.3,7.6c0,0-1.4-0.3-3.4-0.1c-1.8,0.2-3.6-0.1-5.1-1.1c-1.1-0.7-2-1.8-2.2-3.3
		C690.3,387.9,690.1,386.3,690.7,384.9z"/>
	<g>
		<path class="st13" d="M693.8,387.6c-4.2-2.3-7.2-7.1-6.7-11.9C688.1,380.3,690.6,384.2,693.8,387.6L693.8,387.6z"/>
	</g>
	<g>
		<path class="st13" d="M505.8,383.9c-1.2-6.6-0.4-14.2,0.2-20.9c3-24.2,10.1-48.3,23.1-69.1c1.5-2.6,4.3-6.2,6-8.7
			c8.5-10.9,16.4-22.3,23-34.4c3.3-6.1,6.4-12.3,8.5-18.9c-0.7,3.4-1.8,6.7-3.1,10c-6.8,18-17.9,33.9-29.1,49.3c0,0-1.5,2.1-1.5,2.1
			l-1.3,2.2l-2.7,4.4l-2.4,4.6c-9.5,18.4-15.5,38.5-19.1,58.8C506.4,369.8,505.2,377.3,505.8,383.9L505.8,383.9z"/>
	</g>
	<path class="st3" d="M615.5,198.5c0,0-14,0.2-25.6,1.1l5.9-6.3c0,0,6.4,0.5,6.8,0.6c0.4,0.1,6.6-0.6,6.6-0.6L615.5,198.5z"/>
	<path class="st7" d="M614.8,197.6c0,0-7.5-17.2-18.6-9.5s-19.6,23.3-19.6,23.3s19.3-15.4,37.9-11.8L614.8,197.6z"/>
	
		<ellipse transform="matrix(0.2852 -0.9585 0.9585 0.2852 115.2982 755.5222)" class="st16" cx="564.2" cy="300.5" rx="8.2" ry="16"/>
	
		<ellipse transform="matrix(0.2852 -0.9585 0.9585 0.2852 152.8037 864.4073)" class="st16" cx="655.9" cy="329.8" rx="8.2" ry="16"/>
	<g>
		<path class="st13" d="M671.7,400.9c14-17.8,23-40.7,19.2-63.5c-1.1-7.6-3.9-14.8-5-22.3c-2.4-15.3-1.1-31,3-45.8
			c2-7.4,3.5-14.8,4.3-22.4c0.5-6.3,1.5-17.2-3.6-21.8c7.2,5.9,4.4,24.9,3.1,33.3c-2,11.2-5.5,22.3-6,33.7
			c-0.5,7.6-0.1,15.2,1.1,22.6c1.1,7.6,3.8,14.8,4.8,22.4C696.4,360.3,686.7,383.8,671.7,400.9L671.7,400.9z"/>
	</g>
	<g>
		<path class="st13" d="M616.7,177c1-5.7,5.1-12,11.5-11.7c3,0.1,5.9,1.2,8.6,2.5c2.6,1.3,5.5,2.2,8.3,2.8c5.7,1.3,11.7,2,17.5,3.3
			c13.6,2.9,22.7,10.7,27.9,23.6c0,0-0.1-0.1-0.1-0.1c0.4,0,0.9-0.2,1.3-0.3c4.6-1.7,9.7,0.3,12.8,4c4.2,4.4,7.7,9.1,11.3,13.9
			c3.5,4.8,6.9,9.7,10.2,14.6c1.2,1.7,2.5,4,3.4,6.1c6.7,14.9,6.6,32.1,2.7,47.7c-2.4,8.9-4.9,17.5-5.5,26.7
			c-1.2,15.7,0.7,32.1,8,46.2c8.6,14.6,9.6,31.6-0.2,45.9c-1.2,1.9-2.8,3.6-4,5.6c-1.1,2-1.8,4.1-2.1,6.4c-1,6.8,1.7,13.6,5.5,19.1
			c1.3,1.9,2.8,3.6,4.3,5.3c-7.9-7.9-14.1-20.4-8.4-31.2c1.1-2,2.7-3.7,3.9-5.7c2.4-3.8,4.4-8,5.5-12.3c2.3-8.8,1-18.2-2.7-26.3
			c-1.9-4.1-4.4-8.1-6-12.3c-5.3-12.8-6.5-27-5.5-40.8c0.6-9.2,3-18.2,5.4-27c4.1-17.2,4.1-37-5.8-52.3c-3.3-4.9-6.6-9.8-10.1-14.6
			c-3.5-4.8-7-9.5-11.1-13.8c-1.9-2.1-4.2-3.7-7.1-4c-1.8-0.3-3.5,0.2-5.2,0.7c-0.6,0.2-1.4,0.1-1.8-0.5c-0.2-0.3-0.2-0.4-0.3-0.7
			c-2.4-5.9-5.8-11.5-10.8-15.5c-9.3-7.7-21.9-8.1-33.2-10.9c-2.9-0.7-5.7-1.7-8.4-3.1C627,162.9,619.2,166.1,616.7,177L616.7,177z"
			/>
	</g>
	<path class="st12" d="M605.8,194.4"/>
	<path class="st17" d="M455.6,636.2l20.6-1.4c0,0,10-30.8,3.3-51.5c-6.7-20.7-28.1-10.8-28.1-10.8L441.1,586l0.6,11.1L455.6,636.2z"
		/>
	<path class="st8" d="M472.2,566.4L462,534.7c0,0,6.2-2.9,11.5-13.9c5.3-11,14.5-23.8,16.5-30.5s2.6-12.9-1.8-15.1
		c0,0,2.6-11.4-4-13.2c0,0-1.1-6.6-5.5-7c0,0-1.8-15,8.5-32.2c0.7-1.1,0.6-2.5-0.1-3.5c-1.6-2.4-5.1-5-11.3,2.1
		c-9,10.3-10.5,31.8-10.5,31.8l-19,30.9l-8.1,17.2c0,0,3.5,75.7,5.5,79C445.8,583.6,466.7,589.1,472.2,566.4z"/>
	<path class="st8" d="M280,395.3c0,0,2.6,22.2,0,26.6c-2.6,4.4-14.3,10.3-14.3,10.3l-11,14.1l6.4,26.5l52.8,22.8l33,8.8l2.5-48.9
		l-9-35.4c0,0-14.9,0.9-11-20.8C333.3,377.7,280,395.3,280,395.3z"/>
	<path class="st4" d="M205.3,273.5c0,0,22.9,111,44.3,119.3c20.2,7.9,69.9,22.6,110.1-9.2c3.6-2.8,6.5-6.5,7.3-11
		c2.3-12.9,6.8-45.4,8.6-106.9C377.9,182.4,205.3,273.5,205.3,273.5z"/>
	<path class="st4" d="M187,216.3c-0.4,1-0.6,2.2-0.4,3.3c1,8.5,6.4,48.5,18.8,56.8c13.9,9.2,134.6,28.5,175.6-13.5l-5.4-47l-39-37.9
		C336.6,178,201.6,180.7,187,216.3z"/>
	
		<ellipse transform="matrix(0.9938 -0.1113 0.1113 0.9938 -21.6622 31.533)" class="st8" cx="271.5" cy="209.7" rx="81.6" ry="23.8"/>
	<path class="st5" d="M237.5,248.1c0,0,22.2,26,73.6,29.7c0,0,18,1,23.3,7.1c5.3,6.1,23.1,19.5,18.8,46c0,0,16.4-4.2,20.7-27.2
		c4.4-23-4.6-41.5-4.6-41.5l-74.3-26.8l-57.6,6.3V248.1z"/>
	<path class="st18" d="M189.7,224c4,5.1,14.7,12.3,43.5,13.2V234c0,0-31.1-1.2-39.8-12.2c0,0-7.6-6.8,5.9-15.7
		c13.8-8.9,4.1-3.9,3.7-4.2c0,0-11,4.3-14.4,12.3C187.1,217.5,187.5,221.2,189.7,224z"/>
	<path class="st19" d="M260,201.4c0,0-29.7-14.2-21.1-41s62.8-29.4,62.8-29.4s50.9-6.9,87.9,52.5S405,290.1,405,290.1
		s-17.9,46.6-24.4,28.8c-0.8-2.2-1.1-4.5-1.1-6.8c0.2-6.9-0.2-27.1-9.2-36.1c-10.9-10.9-33.7-15.9-58.1-15.2
		c-24.4,0.7-72.1-1.8-77.8-17.2c-5.7-15.4-13.2-42.3,15.6-40.5C250,203.1,259.1,202.9,260,201.4z"/>
	<g>
		<path class="st12" d="M387.4,250.8"/>
	</g>
	<g>
		<path class="st12" d="M261.5,200.8"/>
	</g>
	<path class="st8" d="M335.3,324.1c3-4.8,11.6-16.8,23.2-20.1c0.6-0.2,1.1,0.4,1,0.9c-0.8,3.4-4.8,13-23.2,20.3
		C335.5,325.6,334.9,324.8,335.3,324.1z"/>
	<path class="st8" d="M281.4,328.6c-4.8-4.2-16.2-13.2-28.2-13.6c-0.8,0-1.4,0.9-1,1.6c2.1,3.5,8.9,11.5,28.4,13.8
		C281.6,330.6,282.2,329.3,281.4,328.6z"/>
	<g>
		<path class="st8" d="M291.4,349.3c13,3.2,27.1,4.7,39.3-2C320.7,357.9,302.9,356.6,291.4,349.3L291.4,349.3z"/>
	</g>
	<path class="st20" d="M251.4,629.9c0,0-45-66.8-38.3-130.6c0,0,3.1-32.4,52.6-67s115.9,1.4,115.9,1.4s14.9,11.2,18.8,19.1
		c4,7.9,55.2,183.5,55.2,183.5L251.4,629.9z"/>
	<path class="st8" d="M274.9,426.7c0,0,55.1,32.6,59.5-8.1l-11.9-4.1l-23.8-1.1l-10.1,3.9L274.9,426.7z"/>
	<path class="st21" d="M968,150.5c2.3-1.7,5.9-21.1,13.7-16.8c7.8,4.3,8.3,16.8,8.3,16.8l-20.4,3.2L968,150.5z"/>
	<path class="st22" d="M240.3,156.9c0.6-1.4-0.7,42,43.4,38.9c0,0-19.2,1.5-23.7,5.5C260,201.4,228.7,184.9,240.3,156.9z"/>
	<path class="st23" d="M262.2,199.2c0,0-16.5,20,11.5,22.6s76.5,5.9,112.8,39c0,0,14.1,12.9,0,59.9c0,0-5.7,2.5-5.3-22.9
		s-20.6-35.6-35.7-36.7c-15.2-1.1-103.9-0.6-109-19.7s-6.7-26.5-4.2-30.9s2.7-10.2,21.2-9.7C253.6,200.9,260.7,199.7,262.2,199.2z"
		/>
	<path class="st22" d="M260,201.4c0,0,57-17.8,115.5,29.3C375.6,230.6,332.7,176.9,260,201.4z"/>
	<path class="st24" d="M110.4,68.7"/>
	<path class="st25" d="M279.3,142.5c10.4-3.8,29.8-8.3,52.7-0.4c10.9,3.8,20.4,10.5,27.9,19.3c5.9,6.9,12.8,16.5,16.3,26.7
		c0.5,1.5-1.3,2.7-2.4,1.6c-12.5-11.4-53.2-45.2-93.9-44.4C278.2,145.5,277.8,143.1,279.3,142.5z"/>
	<path class="st4" d="M464.5,461.2c0,0,12-4.7,14.3-6.2c0,0,6.5-1.9,5.5,7c0,0-18.1,10.5-22.1,10.4c-4-0.1-4.1-6.2-4.1-6.2
		L464.5,461.2"/>
	<path class="st4" d="M484,460.9c0,0,9.7,0.1,4.2,14.4c0,0-25.4,15.7-34.2,14.5s6.7-16,6.7-16S475,466.8,484,460.9z"/>
	<path class="st4" d="M486.5,473.9c-3.6,2.6-15.6,11.1-23.6,14.1c-1.2,0.5-1.7,1.9-1.1,3c1.3,2.6,3.9,4.4,7,4
		c6-0.9,16.3-0.7,19.5-7.5c3-6.3,3.8-9.9,0.3-13.4C488,473.5,487.1,473.4,486.5,473.9z"/>
	<path class="st8" d="M1006.8,361.8c0,0,5,28.6-5,35.2c-9.9,6.7-6.3,37.4-6.3,37.4s47.9,2.3,50.2,1.6s21.5-19.8,22.8-20.8
		c1.3-1-2.6-24-2.6-24s-18.2-8.1-14.5-28.2l3-19.4l-22.5-4.1L1006.8,361.8z"/>
	<path class="st4" d="M927.5,227.5c-0.2,0.3,15.8,86.7,47.4,128.3c1.4,1.9,3.4,3.1,5.7,3.6c11.1,2.5,47.2,7.6,96.3-15
		c3.9-1.8,6.8-5.2,7.8-9.4c4.8-19.3,18.8-78.4,23.2-123.6C1107.9,211.5,981.7,162,927.5,227.5z"/>
	<path class="st4" d="M911.2,200.2c1.5,8.3,4.5,22.5,8.1,30c1.3,2.8,4.6,3.6,6.9,1.9c13.8-10.4,70.1-45.1,178.1-17.6
		c0,0,7.3,2.4,10.2-2.1c2.9-4.5,6.1-38.6,6.1-39.8c0-1.2-126.3-68-206.4,16.5C911.6,192,910.5,196.1,911.2,200.2z"/>
	<path class="st26" d="M944,170.4c0.2-0.8,0.7-1.5,1.4-1.9c5.8-3.3,33.3-18.1,59.2-19.4c26.8-1.4,9.8,27.2,6.9,31.7
		c-0.3,0.4-0.4,0.9-0.4,1.4l-0.6,12.7c-0.1,1.3-1,2.4-2.3,2.6c-9.4,1.6-46,8.3-59.5,15.9c-1.6,0.9-3.5,0.1-4-1.6
		C942.6,205.5,939.7,191.1,944,170.4z"/>
	<path class="st27" d="M840.8,479.7c0,0,56-43.6,89-57.1s72-25.5,72-25.5l64.1-5.8c0,0,64.7,30.3,78.9,50.8s16.5,176.6-2.6,237.9
		H936.8c0,0-4.6-156.1-2.6-166.3l-24.9,26.2l-66.1-20.7l-6.4-32.6L840.8,479.7z"/>
	<path class="st8" d="M1001.8,397c0,0,5.2,28.7,64.1-5.8l-16-5.7h-20.7L1001.8,397z"/>
	<path class="st28" d="M934.1,513.6c0,0,1.7-24.1,12.6-60.9c0,0,16.5-43.2,33.9-48.9c0,0-60.4,11.2-139.8,75.8l85.5,42.3
		L934.1,513.6z"/>
	<path class="st26" d="M979,212.8c0,0,40.8,47.5,58.6,64.5c4,3.8,5.8,9.3,4.9,14.8c-2.2,13.3-4.9,37.6,1.6,46.9l7,6.8
		c1.6,1.5,3.9,2,5.9,1.3l15.4-5.7c0,0,24.4-82.9,22.7-84.2c-1.7-1.3-46.1-43.9-49.2-45.7C1042.8,209.6,1012.7,201.7,979,212.8z"/>
	<path class="st8" d="M1003.1,250c1.8-6,7.6-18,25.3-20.1c0,0,1-0.2,1.8-3.4c0,0,2.1,4.3-0.8,6.2c0,0,1.1,0.2,3.1-0.6
		c0,0,0.9,1.9-2.3,4c-2.4,1.5-9.8,6.6-11,12.3c-1,4.6-7.5,10.5-13.1,8.2C1003.5,255.5,1002.3,252.6,1003.1,250z"/>
	<path class="st8" d="M969.4,260.2c-1.4-4.7-6-14.1-19.8-15.7c0,0-0.8-0.2-1.4-2.7c0,0-1.7,3.3,0.6,4.9c0,0-0.9,0.1-2.4-0.5
		c0,0-0.7,1.5,1.8,3.2c1.9,1.2,7.7,5.2,8.6,9.6c0.8,3.6,5.9,8.2,10.2,6.4C969.1,264.5,970,262.2,969.4,260.2z"/>
	<g>
		<path class="st8" d="M984.8,297.3c6.8,2.8,13.8,2.8,20.3-0.3c1.7-0.7,3.1-1.5,4.8-2.2C1005.1,304.4,990.9,306.8,984.8,297.3
			L984.8,297.3z"/>
	</g>
	<path class="st29" d="M971.2,149.9c0,0,5-13.8,10.7-10.7c5.7,3.1-14.3,46.7,19.3,85.4c33.6,38.7,74.5,57.7,60.4,85.2
		c-14.1,27.5,2.6,67.6,27.7,68c0,0-0.9-3.6,4.8-6.2s39.6-3.6,49.8-49.8s26.9-66,8.8-117.7c-18.1-51.8-29.1-72.9-61.2-73.3
		c-32.1-0.4-57.7-4.4-82.3-7C984.5,121.2,970.1,125.9,971.2,149.9z"/>
	<g>
		<path class="st30" d="M1027.6,126c26.3,12.9,47.9,34.9,62.1,60.5c9.8,17.7,15.7,37.5,17.7,57.5c0.2,3,0.7,7.9,0.7,11
			c0.2,5.3,0,11.2-0.3,16.4c-0.4-25.4-5.1-50.8-15.8-73.8C1078.2,168.1,1055.6,142.7,1027.6,126L1027.6,126z"/>
	</g>
	<path class="st28" d="M1080.2,688.5c-2.7-9.4-4.6-81.1-7.5-148.8c-3-67.7,22.5-86.6,22.5-86.6s28.1-34.1,49.8-11.1s6.8,188,6.8,188
		L1080.2,688.5z"/>
	<path class="st31" d="M1046.5,150.6c0,0-22.6-22.7-40.2-16.6C988.6,140.1,1037.6,157.2,1046.5,150.6z"/>
	<path class="st31" d="M1071.3,146c0,0,16.3-16.4,29-12S1077.7,150.8,1071.3,146z"/>
	<path class="st31" d="M1087.2,168.8c0,0,19.7-19.7,35-14.4C1137.4,159.6,1094.9,174.5,1087.2,168.8z"/>
	<path class="st31" d="M1099.4,184.9c0,0,25.4-14,39.2-4.2C1152.3,190.5,1105.5,192.9,1099.4,184.9z"/>
	<path class="st31" d="M1107.9,205.9c0,0,28.3-6.1,38.7,7.2C1157.1,226.4,1111.5,215.3,1107.9,205.9z"/>
	<path class="st31" d="M1067.9,173.1c0,0-37.6-20.7-57.9-6.2C989.6,181.3,1058.9,184.9,1067.9,173.1z"/>
	<path class="st31" d="M1077.1,190.1c0,0-42.6-4.7-55.9,16.4C1008,227.7,1073.4,204.5,1077.1,190.1z"/>
	<path class="st31" d="M1085.2,210.3c0,0-33.5,7.1-38.3,26.5S1086,222.1,1085.2,210.3z"/>
	<path class="st31" d="M1094.4,237.5c0,0-21.4,10.2-21.5,24C1072.8,275.3,1096.8,245.3,1094.4,237.5z"/>
	<path class="st31" d="M1114.1,235.9c0,0,21.4,10.2,21.5,24C1135.7,273.7,1111.7,243.7,1114.1,235.9z"/>
	<path class="st14" d="M634.1,463.6c0,0-3.5,43.5,15.3,85.9c15.2,34.4,2.5,118.6,37.1,132.6c34.6,14,19.2-64.1,19.2-64.1
		s-13.3-66.8-13.2-69.4c0.1-2.6-54.1-88.3-54.1-88.3"/>
	<path class="st14" d="M520.1,442.1c0,0,44,28.3,106.8-3C626.9,439,568,461.7,520.1,442.1z"/>
	<path class="st6" d="M481.6,366.3c0,0-7.1-55.6,14.8-65.9c21.9-10.3,23.7-20.9,23.7-20.9s-3.4,14.9-19.8,33.5
		C484,331.5,481.6,366.3,481.6,366.3z"/>
	<path class="st32" d="M950.6,476.7c0,0,4.1,77.9,29.2,100.3S946.9,496.6,950.6,476.7z"/>
	<path class="st32" d="M972.8,487.1c0,0,19.3,75.5,36.5,94.6C1026.5,600.8,975.4,506.9,972.8,487.1z"/>
	<path class="st32" d="M1001.8,404.9c0,0-7.5,20,48.9,4.8C1050.7,409.7,1002.8,418.7,1001.8,404.9z"/>
</g>
<g id="cat_pot">
	<path class="st4" d="M330.7,567.9c0,0-28.9-40.9,7-84.6c9.5-11.6,21.6-20.6,35.1-26.9c11.1-5.2,26.8-12,37.2-14.6c0,0,4.6-8.4,5-13
		c0.3-4.6,26.8,8.6,26.8,8.6l23.1,1.8c0,0,2.8,29.6-7,42.5c-9.8,12.9-2.2,40-2.2,40l13.2,27.1l-7.9,12.8l-35.7,10.2
		C425.1,571.7,390.2,559.2,330.7,567.9z"/>
	<path class="st33" d="M414.6,439c0,0,0.7,16.9,18.8,22.8c0,0,10.6,6.1,13.9,6.1c3.3,0,9.9-2.5,14.5-11.6s3-15.7,3-15.7l-32.5-1.7
		l-16.1-4.4L414.6,439z"/>
	<path class="st4" d="M405.3,378.4c-0.7,12.4,1.1,50,13.2,65.5c0.9,1.2,2.1,2,3.4,2.7c4.1,1.9,11.9,6.4,23.2,6.6
		c7.3,0.1,16.6-6.5,20.1-9.1c2-1.5,3.5-5.4,4.1-7.8c2.9-10.3,8.9-38.2-3-71.6c-0.4-1.2-1.2-2.3-2.4-2.9c-2.1-1.2-5.6-1-8.5,9
		c-2.3,8-4.4,13.1-5.8,16c-2.1,4.3-6.5,7.1-11.3,6.7c-2.1-0.2-4.5-1-6.9-2.9c-7.4-5.8-12.7-20-14.1-23.8c-0.4-1.2-1.7-3.7-2.7-4.4
		c-0.9-0.6-2-1.1-3.6-1c-2,0-3.5,3.3-4.5,6.6C406.5,368.8,405.7,372.1,405.3,378.4z"/>
	<path class="st8" d="M441.2,425.4c-0.4-0.2,3.6-1.8,8.4-0.5c0,0-1.9,2.2-3.6,3.4C446,428.3,444.7,427.5,441.2,425.4z"/>
	<path class="st8" d="M432.8,421.8c0.9-0.5-1.9-7.1-9.6-5.4C423.2,416.4,425.4,425.5,432.8,421.8z"/>
	<path class="st8" d="M455.3,420.7c-0.9-0.4,1.3-7.2,9.2-6.1C464.5,414.6,462.9,423.9,455.3,420.7z"/>
	<path class="st34" d="M382.4,540.8c0,0,24-6.1,25.7-16.4c0,0,5.9,14,6.9,19c1,5,3.9,18.5,3.9,18.5l-11.8,12.8l-18.1-14
		C389.1,560.6,383.7,540.9,382.4,540.8z"/>
	<path class="st35" d="M439.3,565.5c0,0,1-40.4,0-51.9c0,0,14.6-25.4,20.5-35.3"/>
	<g>
		<path class="st8" d="M400.4,513.5c7.9,6.7,12.5,16.8,14.6,26.8c0.6,2.5,0.6,5.1,1,7.6c1,4.8,3.7,17.5,4.8,22.5
			c-1.1-5-4-17.6-5.1-22.4C412.6,535.7,408,523.8,400.4,513.5L400.4,513.5z"/>
	</g>
	<g>
		<path class="st8" d="M349.3,520.8c17.7-1,32.7,11.7,37.6,28.2c1.8,5.3,2.6,10.9,2.8,16.4c-1-5.5-2.3-10.8-4.3-15.9
			C379.8,533.7,366.4,522.1,349.3,520.8L349.3,520.8z"/>
	</g>
	<path class="st19" d="M449.5,385.2c0,0,1.3-10.2-11.3-8c-12.6,2.2-22.9,20.9-4,33.9c0,0-0.9-20,9.7-19.5c1,0.1,1.9-0.5,2.5-1.3
		C447.4,389,448.8,386.9,449.5,385.2z"/>
	<path class="st8" d="M412.5,395.1c-0.7-0.1-2.9-9.3-1-18.8c0.1-0.7,1.1-0.9,1.5-0.2c2,3.5,6.3,11.3,8.6,15c0.2,0.4,0.1,0.8-0.2,1.1
		C419.9,393.1,416.1,395.4,412.5,395.1z"/>
	<path class="st8" d="M464.5,391.7c0.7-0.1,1.9-9.5-0.9-18.8c-0.2-0.7-1.2-0.8-1.5-0.1c-1.6,3.7-5.1,11.9-7,15.8
		c-0.2,0.4,0,0.8,0.3,1C457,390.5,461.1,392.4,464.5,391.7z"/>
	<g>
		<path class="st8" d="M434.2,428.9c4.4,3.7,9.2,5.4,11.9-1c0,0,0.5,0.7,0.5,0.7c2.1,3.2,5.2,4.7,8.1,1.4c0.3-0.4,0.6-0.8,1-1.2
			c-0.3,0.4-0.5,0.9-0.8,1.3c-1.6,2.5-4.6,3.3-6.9,1.3c-0.9-0.7-1.6-1.4-2.2-2.3l0.9,0C443.7,435.3,437.7,433.3,434.2,428.9
			L434.2,428.9z"/>
	</g>
	<path class="st23" d="M433.6,410.7c0,0-8.3-18.2,5.2-24.8c13.5-6.6,9.7,1.3,9.7,1.3s-2,4-2.7,4.4s-6.3-1.2-9.1,5.1
		c-2.8,6.2-2.4,14.6-2.4,14.6L433.6,410.7"/>
	<path class="st25" d="M429.7,387.6c0,0-5.2,4.4-2.5,11C427.3,398.6,428.3,388.2,429.7,387.6"/>
	<path class="st36" d="M452.8,490.3l-13.4,23.2c0,0,1.8,44.3,0.4,47.9c-1.4,3.6-1.4,3.6-1.4,3.6l1.8,2.3l20.8-6l7.9-12.8l-13.2-27.1
		C455.6,521.5,450.3,495.5,452.8,490.3z"/>
</g>
<g id="Pot_1">
	<path class="st37" d="M116.5,400.7c0,0,25.8-99.2,54.7-155.6c0,0-3.5,65.1-37.5,119.4c-3.5,5.5-6.5,11.4-9.1,17.4L116.5,400.7z"/>
	<path class="st38" d="M35.8,40.9c0,0-2.3,44.9,14.2,81.6s61.3,129.1,63.7,178c0,0,4.3,70,2,75.3l3,22.9c0,0,6.9-67.5-4.3-146.8
		S78.7,139.6,71.8,124.8C64.8,109.9,48.7,91.4,35.8,40.9z"/>
	<path class="st39" d="M112.1,441.7c0,0,4.8-17.9,3.5-28.5c-1.2-9.7-13.8-18-19.7-52.8c-1.5-8.7-4.2-17.2-8-25.2
		c-11-22.8-36.2-66.6-77.6-95.4c0,0,88.5,33.4,102.1,107S115.9,431.6,112.1,441.7z"/>
	<path class="st8" d="M110.7,606.3c0,0,4.6,29.7,1.7,33.7c-2.9,4,52.2-4.4,52.2-4.4l4.2-2c0,0-3.7-9.9,0-24.4
		c3.7-14.6-29.5-28.9-29.5-28.9L110.7,606.3z"/>
	<path class="st4" d="M49.2,512.4c0,0,19.8,91.9,38.1,95.7s51.3,6.3,64.7,5.6c13.4-0.7,46.5-17,51.1-29.6c4.6-12.6,0-108.1,0-108.1
		S120.6,457.2,49.2,512.4z"/>
	<path class="st40" d="M25.4,479.4"/>
	<path class="st4" d="M51.4,521.3c0,0,58.6-52.1,152.6-24.6c0,0,4.3-2.3,5.9-9.2s0.8-29.4,0.3-34.7c-0.6-5.3-83.5-48.3-174.5,15.4
		c-2.2,1.5-2.4,6.9-2.3,9.6c0.1,2.5,0.3,3.3,0.9,6.3c1.3,5.9,7.3,32.4,11.2,37.3C45.5,521.3,50.9,524.7,51.4,521.3z"/>
	<path class="st8" d="M166.2,535.9c0-0.7,10.1-16.2,25.6-10.2"/>
	<path class="st8" d="M121.6,540.3c-0.1-0.7-12.5-14.4-26.9-6.2"/>
	<g>
		<path class="st8" d="M135.8,547.2c9.1,3.6,16.8,6.1,24.1-2.1C156.6,556.8,142.3,555.3,135.8,547.2L135.8,547.2z"/>
	</g>
	<path class="st41" d="M74.3,507.6c0,0-6.2,103,84.3,103c0,0-21.3,3-66-5.2c-4.5-0.8-8.6-3.4-11.2-7.1c-6.1-8.7-16.8-29.2-27.8-75.7
		C53.6,522.6,51.5,520.1,74.3,507.6"/>
	<path class="st42" d="M135.9,529.5c2.4-1.5,11.7-6.4,20.7-3C165.5,529.8,135.9,529.5,135.9,529.5z"/>
	<path class="st41" d="M67.5,453.8c0,0,1,36.5,6.4,49.9c0,0-28.7,15-24.9,16.8c3.8,1.8-2.5,4.8-7.9-17.3
		c-3.4-14.1-4.3-19.6-5.1-24.3c-0.2-1.5-0.6-8.5,1.9-9.9C44.4,465.2,53.6,456.9,67.5,453.8z"/>
	<path class="st18" d="M158.3,467.5c0,0,38.4,0.7,44.8,9c0,0,0.9-6.1,0.1-12.8C202.3,457,179.7,460.9,158.3,467.5z"/>
	<g>
		<path class="st43" d="M60.2,277.7c20,20.4,42.6,55.6,47.9,83.8c1,4.8,1.2,9.7,1.6,14.6c0.6,4.8,1.9,9.5,3.1,14.2
			c0.9,3.1,1.8,6.2,3.2,9.1c0.7,1.5,1.2,3.1,1.6,4.7c1.1,4.8,1.2,9.7,1.1,14.6c0-6.4-0.3-13.1-3.1-19c-1.5-2.9-2.5-6-3.4-9.2
			c-1.3-4.7-2.6-9.4-3.3-14.3c-0.4-4.8-0.6-9.7-1.6-14.5c-3.9-19.1-13.1-36.6-23.5-53c-3.5-5.5-7.2-10.8-11.1-16
			C68.7,287.6,64.9,282.3,60.2,277.7L60.2,277.7z"/>
	</g>
	<g>
		<path class="st43" d="M43.7,81.5c13.6,30,28.1,62.8,40.8,92.9c6.4,15.6,13.3,31.2,18.3,47.4c4.7,16.3,8,32.9,10.7,49.6
			c2.5,16,4.3,32.2,4.4,48.4c0,6.3-0.3,12.8-1.3,19c0.9-6.2,1.1-12.7,1-19c-1.2-33-6.6-66-15.7-97.8c-5.1-16.1-11.8-31.7-18.1-47.3
			C71.7,145.8,56.2,110.4,43.7,81.5L43.7,81.5z"/>
	</g>
	<path class="st41" d="M215.5,302c-0.2-0.9,16.8,49.5,30.8,71.6c2.7,4.3,6.3,8,10.6,10.8c8,5.3,23.4,12,42.7,16.3
		c0,0-16.7,3.7-49.2-11.2C250.3,389.5,231.3,381.8,215.5,302z"/>
	<g>
		<path class="st44" d="M440.5,561.4c0,0,18.6-8,23.7-4.3l6.5-11c0,0,6.2,0.2,10.5,13.4c4.3,13.2-1,25.1-4.1,26.2
			c-3.1,1.1-34.6,9.2-34.6,9.2s-11.9-5.3-11.7-6.8S440.5,561.4,440.5,561.4z"/>
		<path class="st8" d="M440.5,561.4c5.6-2.4,18.5-8.1,24-4.7c0,0-0.8,0.2-0.8,0.2l6.4-11.1l0.2-0.4c3.9,0.3,6.7,3.7,8.6,6.8
			c5.6,9.7,7.1,22.9,0.8,32.6c-0.5,0.6-0.9,1.2-1.6,1.6c-1.8,0.9-3.8,1.2-5.7,1.8c-9.7,2.5-20.3,5.3-29.9,7.7
			c-3.7-1.8-7.4-3.5-10.8-5.8c-0.5-0.4-1.4-1-1.4-1.9c0-0.3,0.2-0.6,0.2-0.9C433.3,579,437.2,569.5,440.5,561.4L440.5,561.4z
			 M440.5,561.4c-1.5,4.6-7.5,21.9-8.9,26.2c-0.1,0.2-0.1,0.4-0.2,0.6c0,0,0,0.1,0,0.1c0,0,0-0.1,0-0.1c0,0,0,0,0,0l0.1,0.1
			c3.2,2.7,7.5,4.2,11.3,6c0,0-0.5,0-0.5,0c6.5-1.7,23.2-6.2,29.5-8c1.6-0.5,3.3-0.9,4.8-1.4c1.2-0.5,2.1-2.1,2.7-3.3
			c4.2-9,2.9-20-1.9-28.5c-1.5-2.6-3.6-5.5-6.7-6.2c0,0,0.7-0.4,0.7-0.4l-6.7,10.9l-0.3,0.5C459.5,554.2,445.9,559.5,440.5,561.4
			L440.5,561.4z"/>
	</g>
	<path class="st45" d="M267.5,495c0,0,33.4,40,43.5,80.9c0,0,36.5-18.8,71.5-15.9s57.1,1.3,57.1,1.3l2,35.7
		c0,0-81.9,44.3-141.4,38.6c0,0-44.9-9.6-75.1-71c-9.2-18.7-13.6-39.4-11.7-60.2c1-11.3,3.8-22.4,10.2-28.4
		C239.9,461.4,267.5,495,267.5,495z"/>
	<g>
		<line class="st46" x1="472.7" y1="562.6" x2="476.2" y2="550.7"/>
		<path class="st8" d="M472.7,562.6c0.5-4.1,1.6-8.1,3.5-11.9C475.7,554.9,474.5,558.8,472.7,562.6L472.7,562.6z"/>
	</g>
	<g>
		<line class="st46" x1="478.2" y1="574.5" x2="481.6" y2="562.6"/>
		<path class="st8" d="M478.2,574.5c0.5-4.1,1.6-8.1,3.5-11.9C481.1,566.7,480,570.7,478.2,574.5L478.2,574.5z"/>
	</g>
	<path class="st47" d="M1091.6,357.2c0,0-8-18.8,12.6-36.9c16.3-14.3,21.2-18.6,22.9-23.6c1.3-3.8,6.5-5.3,9.8-2.7
		c3,2.4,5.4,7.7,4.2,18.6c-2.7,25-20.6,47.5-34.8,49.3C1092.1,363.7,1091.6,357.2,1091.6,357.2z"/>
	<path class="st14" d="M515.9,502.4c0,0,23.5,69.1,44.7,83.7C581.7,600.6,515.9,502.4,515.9,502.4z"/>
	<path class="st14" d="M545.8,515.4c0,0,27.4,65.1,43.1,76.9C604.5,604.1,545.8,515.4,545.8,515.4z"/>
	<path class="st14" d="M581.7,528.4c0,0,27.4,65.1,43.1,76.9C640.4,617.1,581.7,528.4,581.7,528.4z"/>
</g>
<g id="pot_3">
	<path class="st8" d="M788.7,410c0,0,3.1,24.6-12.7,27.2l-6.3,24.9c0,0,18.8,10.2,22.6,11.1s32.7,0.5,33.7,0
		c1-0.5,22.6-21.6,22.6-21.6l-3.8-19.3c0,0-15.7-2.7-13-21.6c2.7-18.9-14.3-18.7-14.3-18.7s-20.3,6.1-21.5,7.4
		C794.9,400.8,788.7,410,788.7,410z"/>
	<path class="st48" d="M809.1,107.4c0,0,25.8-35,63.4-19.7c0,0-4.8,25.9-63.4,24.5V107.4z"/>
	<path class="st15" d="M811,128.4c0,0-3.8-12.3,26.8-21.2c5.8-1.7,11-4.9,14.9-9.4c9.7-11,22.6-34.7,14.1-78.7c0,0-1.8-2.6-4.7,4.1
		c-3.9,8.8-9.4,16.9-16.5,23.5c-6.9,6.4-16.1,13.3-27,17.7c0,0-32,14.2-22.8,41.6C795.8,105.9,800.4,121.1,811,128.4z"/>
	<g>
		<path class="st49" d="M797.9,233.6c1.5,2.6,3,5.5,5.2,7.3c0.2,0.2,0.4,0.2,0.5,0.2c0,0,0,0,0.1-0.1c0.6-1.1,0.5-3.2,0.7-4.5
			c0.3-4.7,1.6-9.7-0.8-13.8c-3.1-5.3-5-11.1-6.9-16.8c-1.7-5.7-3.4-11.2-3.5-17.3c0,0,0.9-2.1,0.9-2.1l-0.1,0.1c0,0,0,0,0,0
			c0.5-0.8,0.7-1.7,1-2.7c0.6-2,0.8-4.3,1-6.4c0,0.1,0,0.3,0,0.3c-0.4-1.6-1.3-4.4-1.8-6.5c-0.6-2.1-0.8-4.9,1.1-6.5
			c10.5-8,12-17.2,9.2-29.6c-0.8-4.2-2.1-8.6-2.3-13.2c-0.1-2.6,0.5-5.9,2.2-8.2c1.4-1.7,2.8-3.4,4.2-5c5.7-6.5,12.1-12.4,18.9-17.7
			c6.7-5.1,13.8-9.9,17.6-17.6c-1.5,5.5-5,10.5-9,14.6c-4,4.1-8.1,8-11.9,12c-5.2,5.6-10,11.5-14.3,17.7c-1.2,2.1-0.7,4.5-0.1,7.6
			c1.1,5.2,3.1,10.8,3.6,17c1.2,9.7-2.7,19.7-10.1,26c-0.9,0.9-1.9,1.6-2.9,2.4c0,0-0.1,0.1-0.1,0.1c0.7-0.5,1.3-1.4,1.3-2.2
			c0.2,1.5,1.2,4.7,1.8,7.1c0.1,0.5,0.3,1.6,0.2,2.4c-0.5,4.3-1.3,8.7-3.7,12.4c-0.1,0.2-0.2,0.3-0.4,0.5c0,0,0.9-2.1,0.9-2.1
			c-0.1,2.2,0.3,5,0.7,7.3c0.9,5.3,2.2,10.6,3.7,15.7c0.8,2.8,1.7,5.8,2.9,8.3c1.3,2.5,1.6,5.6,1.3,8.3c-0.3,3-1.1,5.7-1.7,8.3
			c-0.4,1.4-0.7,3.5-1.5,4.8C802,246.6,798.7,236.2,797.9,233.6L797.9,233.6z"/>
	</g>
	<path class="st4" d="M729.3,297.1c0,0,7.9,59,21.4,91.3c2.6,6.3,7.8,11.3,14.3,13.8c9.9,3.9,26.1,9.5,40.8,10.7
		c2.9,0.3,12.5,0.6,15.4,0c9-1.7,25.1-5.6,38.2-12.9c4.1-2.3,10.8-11.1,12-15.5c4.1-14.8,11.1-47.3,18.1-87.5
		C889.6,297.1,809.5,248.3,729.3,297.1z"/>
	<path class="st4" d="M729.3,300.4c19.6-5.5,78.4-29.4,158.5-1.2c2.5,0.9,5-1.9,5.9-4.3c1.9-5.2,4.7-16.2,6.4-39.3
		c0.2-2.3-0.9-4.5-2.8-5.9c-15.4-11.1-87.9-45.4-175.5-2.1c-2,1-3.1,3.1-3.1,5.2c-0.1,6.3,0.2,21.1,3.7,40
		C723,296.2,726,301.4,729.3,300.4z"/>
	<path class="st8" d="M832.3,332.6c3.8-4.8,18.9-21.4,28,3.9c0.5,1.5-0.8,3-2.5,2.6c-0.8-0.2-1.8-0.7-2.9-1.8
		c-3.5-3.6-7.9-10.5-18.5-1.9c-0.4,0.3-0.8,0.5-1.3,0.5c-0.6,0-1.6,0-2.4-0.5C831.8,334.9,831.5,333.5,832.3,332.6z"/>
	<path class="st8" d="M788.2,334.6c-3.8-4.8-18.9-21.4-28,3.9c-0.5,1.5,0.8,3,2.5,2.6c0.8-0.2,1.8-0.7,2.9-1.8
		c3.5-3.6,7.9-10.5,18.5-1.9c0.4,0.3,0.8,0.5,1.3,0.5c0.6,0,1.6,0,2.4-0.5C788.8,336.9,789,335.6,788.2,334.6z"/>
	<g>
		<path class="st8" d="M785.9,354.3c12,10.1,27.1,15.8,41.8,8.4c4.6-2.1,8.9-5.1,13.1-8.4c-3,4.4-6.9,8.2-11.6,11.2
			C814.1,375.2,795.2,368.6,785.9,354.3L785.9,354.3z"/>
	</g>
	<path class="st50" d="M844.8,432.3c2.5,1,60.3,18.5,71.2,35.3c10.9,16.8,17.2,43.3,19.2,86.5c2,43.3,11.6,83.2,11.6,83.2L746,639.5
		l-46.3,0.5l6.3-54.5l-15.9-77.6l37.3-40.3v-16.8c0,0,36-13.9,48.6-13.5C788.5,437.6,844.8,432.3,844.8,432.3z"/>
	<g>
		<path class="st51" d="M912.8,521.9c1.8,18.1,0.1,36.4-1.8,54.4c-2.2,18-5.2,35.9-9.4,53.6c0.4-4.5,1-9,1.5-13.5
			C906.6,584.9,911.5,553.6,912.8,521.9L912.8,521.9z"/>
	</g>
	<g>
		<path class="st51" d="M776.3,591.8c28-26.2,51.2-57.3,68-91.8c-6.3,18.2-15.9,35.4-27.4,50.8C805.3,566.2,791.9,580.5,776.3,591.8
			L776.3,591.8z"/>
	</g>
	<g>
		<path class="st51" d="M795.2,613.3c22.9-23.2,53.8-54.8,63.4-86.2C853.4,559.1,820.3,594,795.2,613.3L795.2,613.3z"/>
	</g>
	<path class="st8" d="M775.9,437.3c0,0,41.4,33.8,68.9-5l-14.1-1.5l-21.5-1.1l-19.2,4.4L775.9,437.3z"/>
	<path class="st52" d="M779.7,289.6c0,0-34.9,14.1-29.2,47.6s9.1,47.1,23.2,54.4s43.1,15.9,44.5,15.9c0.6,0,0.6,0.5,0.3,1.1
		c-0.5,1.1-1.5,1.9-2.7,2.2c-4.2,1.1-17.1,1.8-52-12c0,0-5.7-0.3-14.7-22.1c-8.5-20.5-16.8-73.3-16.8-73.3S729.3,299,779.7,289.6z"
		/>
	<ellipse class="st53" cx="811.2" cy="335.6" rx="12.6" ry="3.7"/>
	
		<ellipse transform="matrix(0.2852 -0.9585 0.9585 0.2852 152.1688 805.147)" class="st53" cx="615.9" cy="300.6" rx="3.7" ry="12.6"/>
	<path class="st54" d="M726.8,652.6c0,0,33.7-28.2,33.4-45.8c-0.3-17.6-46-71.9-46.1-82.4c-0.1-10.5,22.5-40.2,24-56.4
		s-5.6-22.4-5.6-22.4l-20.5,15.3l-31,31.4l-11.6,34.5l20,82.7l37.4,59.9V652.6z"/>
	<path class="st26" d="M727.5,295.2c-0.4-4.8-4-26.2-4-38c0-3.4,1.5-6.7,4.1-8.7c0.5-0.4,1-0.7,1.6-1c2.9-1.4,40.8-18.3,57.5-18.1
		c0,0-1.3,24.4,3.8,53.5c0,0-42.2,5.8-59.8,13.9"/>
	<path class="st18" d="M825.4,245.2c0,0-0.3,13.9-0.4,25.2c0,0,44.1-0.3,63.1,15.9c0,0,4.1-19.2,4.3-22.2
		C892.6,261.1,861.5,241.9,825.4,245.2z"/>
	<path class="st55" d="M810.5,114.4c0,0-1.5-20.7,16.7-25.3c18.3-4.6,34.6-24,35.9-26.2c0,0,0.5,13.5-5,22.2
		c-5.5,8.7-7,15-29.9,21.4c0,0-14.7,6.6-16.5,12.5L810.5,114.4z"/>
	<g>
		<path class="st56" d="M311.1,576c-2.1,4.2-5,7.8-7.4,11.7c-0.7,1.3-1.6,2.6-1.7,4.1C300,586.9,307.1,578.6,311.1,576L311.1,576z"
			/>
	</g>
	<path class="st3" d="M723.3,308.6c0,0,3.1,19.3,4,28.6c0.9,9.4,2,14.1,9.7,25.2c7.7,11.1,4.8,23.8,2.5,29.2
		c-3.3,7.6-18.3,22.8-8.2,34.3c0.3,0.4,0.6,0.7,0.9,1.1c8.5,10.5,8,25.7-0.7,36L701,489.8l6.7-26.4l4.8-47.7c0,0,4.1-62.9,4.1-64.1
		C716.7,350.5,723.3,308.6,723.3,308.6z"/>
	<path class="st57" d="M667.1,531.1c0.6,1,2.8,24.4,2.5,30.8c-0.3,6.4,1.5,61.3,15.9,70s36.1,1.8,36.1,1.8s16.9-4,21.2-26.5
		c0.7-3.8-0.1-7.8-2.1-11.1c-8.8-14-34.4-55.1-35.3-60.8c-1.1-6.9-2.1-11.9-2.1-11.9l-10.8-15.1L667.1,531.1z"/>
	<path class="st4" d="M709.5,506.6c7.5-11.8,17.6-35.8,18.6-41.1c0,0-4.3-4.1-7,0c-2.7,4.1-11.8,15.4-13.8,15
		c-0.2,0-0.4-0.1-0.6-0.1c-1.7-0.3-2.7-2.1-2.2-3.8c2.3-8.3,9.3-32.7,13.1-41c0,0,1.1-5-2.7-5c-3.9,0-9.8,6.2-11,11.2
		c-1.2,5-8.2,24.2-8.2,24.2s-0.1-19.8,6.3-41.5c0.7-2.4,0.3-4.9-1.1-6.9c-0.9-1.2-2.1-2.1-3.6-1.3c-3.6,1.9-9.1,11.8-10,17.4
		c-0.9,5.6-5.5,27.6-4.9,30.1c0.6,2.4-1.3,1.1-1.3-1.6c0-2.6,1.1-27.6,7.4-40.9c0.5-1,0-2.2-1.1-2.6c-2.2-0.9-5.8-1.2-8.5,3.7
		c-4.1,7.5-13.3,35.5-11.6,42.5c1.7,7-12.5,19.8-13,19c-0.5-0.8-5.6-7.8-8.6-17.5c-1.2-3.8-0.6-5.9-3-6.8c-1.4-0.5-3-0.3-4.3,0.6
		c-2.1,1.4-4.6,4.1-4.2,8.6c0.6,6.3,4.1,27.7,7.3,36.8c0.7,2,1.9,3.8,3.6,5.2c3.6,3.1,15.9,9.3,20.3,15.5c2.8,3.9,4.8,8.4,9.5,9.3
		c6.8,1.3,14.2,1.4,19.4-2.3C703.5,526.9,709.5,506.6,709.5,506.6z"/>
	<path class="st9" d="M662,489.1c5.1,3.5,15,11,20.4,20.1c1.2,2,4,2.2,5.5,0.5c3.6-4.2,8-12.5,3.2-25.7c-0.3-0.7-0.7-1.3-1.3-1.7
		c-3.6-2.3-16.8-9.6-28.2,1.5C660,485.4,660.3,487.9,662,489.1z"/>
	<path class="st6" d="M709.1,336.6c0,0,10.5,32.7,2,54.4c-1.6,4.1-2.7,8.4-3,12.8c-0.3,4.2-0.2,9,1.1,12.3c0,0,12.4-23.7,16.6-34
		C728.5,375.4,709.1,336.6,709.1,336.6z"/>
	<path class="st6" d="M643.2,205.2c0,0,29.6-1.2,38.8,5.3c9.2,6.6,10.7,18.2,10.7,18.2s-9.6-8.8-23-13.9
		C656.2,209.7,643.2,205.2,643.2,205.2z"/>
	<path class="st54" d="M778,446.4c0,0,32.5,23.3,66.3,0C844.3,446.4,815,463.8,778,446.4z"/>
</g>
<g id="Layer_2" class="st0">
	<rect class="st58" width="1200" height="630"/>
	<path class="st59" d="M782.4,443.7l21.7-10.4c0,0,38.8,20.2,69.1-1.8c0,0,29.9,9,77.9,43.1c0,0,10.3,21.2,12.6,30
		c2.3,8.8,15.1,118.7,16.4,125.4s-210.7,0-210.7,0l-23.1-125.8L782.4,443.7z"/>
	<path class="st60" d="M814.9,389.9c0,0,13.5,31.1-10.8,43.4c0,0,36.1,21.5,69.1-1.8c0,0-20.9-13.2-9.1-41.8s-30.9-36.9-30.9-36.9
		L814.9,389.9z"/>
	<g class="st61">
		<path class="st44" d="M762.9,283.4l21,93.9c0,0,49.3,33.9,108.8,1.1l22.7-104.9c0,0-77.5-40-151.4,0L762.9,283.4z"/>
		<path class="st8" d="M762.9,283.4c5.1,22.6,17.1,72.5,21.4,93.4c7.9,5,16.9,8.6,25.9,11.1c27.4,7.9,57.4,3.7,82-10.3
			c0,0-0.5,0.6-0.5,0.6c6.4-29.3,16.3-75.3,22.8-104.9c0,0,0.5,1,0.5,1c-29.4-13.7-62.6-20.1-95-17.2c-19.5,1.8-38.6,7.4-56,16.5
			C764.1,273.2,762.9,283.5,762.9,283.4L762.9,283.4z M762.9,283.4l1-9.9l0,0l0,0c23-12.7,49.4-18.8,75.6-18.3
			c26.2,0.6,52.5,6.4,76.3,17.5c0,0,0.6,0.3,0.6,0.3l-0.1,0.7c-6.5,29.7-16.1,75.6-22.7,104.9c0,0-0.1,0.4-0.1,0.4l-0.4,0.2
			c-25.1,14.1-55.7,18.4-83.4,10.1c-9.3-2.7-18.3-6.4-26.4-11.7C778.1,354.1,767.9,307,762.9,283.4L762.9,283.4z"/>
	</g>
	<path class="st60" d="M748.7,235.5c0,0,90.6-60.4,177,2.2l-5.7,34.7l-4.6,1.1c0,0-83.6-40.8-158.4,3.1L748.7,235.5z"/>
	<path class="st62" d="M727.2,225c0,0-5.7-11.5,8.8-9.8c14.5,1.7,16.4,18.3,16.4,18.3l-17.6-8.7L727.2,225z"/>
	<path class="st63" d="M536.8,499.5c0,0-8.8,5.2-4.6,11.4c0,0-19.4,57.1,4.6,122.9c24,65.7,236.4,48.2,236.4,48.2l-3.6-52.1
		c0,0,16-122.9-19.1-152.5s-63.2-46-63.2-46s-3.3-7-7.9-1.7C674.8,435,551.1,496.4,536.8,499.5z"/>
	<path class="st60" d="M626.7,397.9c0,0,2.9,17.6-1.9,23.8c0,0-62.4,19.1-87.9,77.9c0,0,5.1,13.7,31.3,4s83.4-26.8,111.3-73.7
		c0,0-13.5,1.2-12-10.7c1.5-11.8,1.4-14.8,1.4-14.8l1.4-8.4l-26.9-4.1L626.7,397.9z"/>
	<path class="st62" d="M655.4,193.5c0,0,2.7-15.6,16.5-9.4c0,0,41.7,9.7,47.8,22.2c6.1,12.4,4.4,21.6,4.4,21.6S694,214,693.9,214
		s-24.8-2.6-24.8-2.6l-13.1-1.4L655.4,193.5z"/>
	<path class="st62" d="M511.8,397.4c0.8-13.5,1.4-33.8,1.4-64.3c0,0,5.4-25.9,34.6-33.3c0,0,21.7-40,27.8-60.8s57.6-42.7,59-42.8
		s9.3,0.2,10.7,2.7s4.8,10.9,4.8,10.9s6.2-5.9,17.8,0.6c11.6,6.5,4.4,11.3,4.4,11.3L597.6,346l34.5,33.8l-3.9,21.4
		c0,0-3.1,13.8-0.7,18c0.9,1.5-53.5,31.1-55.3,33c-2.9,3.2-19.5,20.6-19.5,20.6l-14.1,20.4c0,0-14.5-23.7-21-46.1
		C512.9,431,510.8,414.2,511.8,397.4z"/>
	<path class="st64" d="M766.2,321c0,0,7,20.1,8.3,29.4c1.3,9.3-0.5,12.8,7.5,23.5s6.2,23.7,3.6,28.9c-2.6,5.2-16.9,25.1-6.4,36.1
		s10.1,23.8,10.1,23.8l-18,23.3l-14.4-10.6l2.9-47.5c0,0,1.5-62.6,1.5-63.8C761.4,362.9,766.2,321,766.2,321z"/>
	<path class="st60" d="M682.5,528.8L711.6,633l51.2-3c0,0-11.6-47.4-26.1-76.5c0,0-8.9-14.6-8.8-19.2c0-4.6-3.3-22.2-3.3-22.2h-37.2
		L682.5,528.8z"/>
	<path class="st62" d="M778,499.9c0,0-17.6-74.2,3.8-94.8c0,0,7.6-25.3-14.5-45.8c0,0,1.3-45.6,6.1-66.8
		c11.9-52.4-35.7-70.8-37-71.6s-2.1-2.7-4.6-1.2s-7.5-1.9-7.5-1.9s-32.9-26.3-46.3-28c-15.5-2-21.6,3.9-21.6,3.9l68.7,125
		l-50.9,58.7l1.3,10c-3.7,12.6-8.7,26.1-9.8,39.2c-1.2,14.2,6.4,56-2.6,51.7c-1.6-0.8,10.7-0.5,11.9,1.9s20.9,41.1,20.9,41.1l6-9.3
		C702,512.1,749.2,520.6,778,499.9z"/>
	<path class="st60" d="M580.8,223.3c0,0,44.8-15.8,102.1-0.9c28,7.3,59,22,89.2,49.4c0,0,0.7,1-3.9,12c-4.2,9.9-17.1,25.8-17.1,25.8
		s-3.5,1.1-7.4-1.2c-3.9-2.3-154.8-37.8-154.8-37.8s-6.8,0.7-8-5.5C579.5,259,574.5,227.1,580.8,223.3z"/>
	<path class="st60" d="M587.7,270.3c0,0-1.7,58.5,0.1,77.5c0.7,7.3,0.9,23.2,8.7,30.5c4.7,4.4,10.3,9.6,18.1,14
		c13.6,7.6,28.8,11.6,44.3,12c7.5,0.2,15.8-0.1,23.3-1.7c0,0,10.3-1.7,16.1-8.2c5.8-6.5,31.5-55.6,31.5-55.6l14.4-30.7
		C744.2,308.1,679,251.7,587.7,270.3z"/>
	<path class="st65" d="M677.4,318.9c0.9-1.3,2.1-2.2,3.5-3c2.7-1.4,8.6-3.8,14.5-1.7c12,4.3,13.4,0.3,13.4,0.3s1.1,2-0.3,4.8
		c0,0,2.5,0.2,3.9-1c0,0,0.8,3.1-3,6.1c-3.9,3.2-9.7,0.9-11.9-0.2c-3.1-1.5-6.8-1.6-9.9,0c-0.5,0.3-1,0.6-1.6,0.9
		c-2,1.3-4.6,1.7-6.8,0.6c-0.7-0.3-1.3-0.8-2-1.4C675.5,322.5,676.3,320.4,677.4,318.9z"/>
	<path class="st65" d="M642.1,310c-0.2-1.5-0.8-3-1.7-4.3c-1.7-2.6-5.8-7.5-11.9-8.4c-12.6-1.9-11.9-6.1-11.9-6.1s-1.9,1.2-2.1,4.4
		c0,0-2.3-1-3-2.8c0,0-2.2,2.4-0.3,6.8c1.9,4.6,8.1,5.4,10.5,5.5c3.4,0.2,6.7,1.9,8.7,4.7c0.3,0.5,0.7,1,1,1.6
		c1.1,2.1,3.3,3.7,5.7,3.7c0.7,0,1.5-0.1,2.4-0.3C642,314,642.3,311.8,642.1,310z"/>
	<g class="st61">
		<path class="st8" d="M634.5,344.4c9.3,11.4,20.8,14.2,34.3,8.7C656.8,361.7,641,357.7,634.5,344.4L634.5,344.4z"/>
	</g>
	<path class="st65" d="M636.3,346.2c0.8,1.2-1.8,0.5-2.9-0.1c-0.8-0.4-2-1.6-1.7-2.8s1.6-2,2.8-1.7
		C635.8,341.9,635.7,345.1,636.3,346.2z"/>
	<path class="st65" d="M666.1,353.7c-1.3,0.7,1.3,1.3,2.6,1.3c0.9,0,2.5-0.4,2.8-1.7c0.3-1.2-0.4-2.5-1.7-2.8
		C668.7,350.3,667.3,353.1,666.1,353.7z"/>
	<path class="st62" d="M562,270.1c0,0,7.9-59.4,31.4-63.3c23.4-3.9,43.2-18,43.2-18s14.3-5,16.7,6c2.4,11.1,2.7,14.3,2.7,14.3
		l-1.1,2.7c0,0-8.1-0.8-8.8-0.7c-0.7,0-20.5,0-21.8,0.7s-24,11.8-25.1,13.3c-1.1,1.5-26.1,30.9-26.1,30.9l-6.5,18.2L562,270.1z"/>
	<path class="st66" d="M650,204.2c0,0-62.7,7.6-65.8,15c0,0-8.3,0.4-12.4,31L583,273l0.9,20.9l20.6-27.8c0,0,9.1-50.4,32.1-49.4
		C659.6,217.6,650,204.2,650,204.2z"/>
	<path class="st66" d="M735.2,238.3c0,0,39.6,18.4,38.7,26.8c0,0,7.8,4.7-3.9,35l-22.5,15.4l-12.4,26.9l-6.6-37.9
		c-0.8-4.5-0.5-9.1,1-13.5c4.5-13.9,12.9-46.6-5-55.2C701.6,225,735.2,238.3,735.2,238.3z"/>
	<g class="st61">
		<path class="st13" d="M698.1,291.1c-2.6-3.5-5-7.4-5.9-11.8c-0.5-2.2-0.5-4.4-0.5-6.6c0.2-6.4,0.5-13.5-0.5-19.7
			c-1.5-9.6-6.9-18.7-15.3-23.7c-2.4-1.4-8.7-5.1-10.7-2.2c-0.9,1.7-0.4,4,0,5.8c1.3,5.9,9.3-0.4,11.8-2.4c2-4.5,4.3-11.3-0.9-16.6
			c-4.3-3.9-12.3-8.5-16.6-2.4c-1.1,1.4-1.8,3.3-2.2,5l-2.6-0.3c0.1-6.9-0.3-26.4-9.1-27.2c-1.7-0.1-3.1,0.5-4.7,1.2
			c-15.3,6.1-31.3,10.5-46,17.4c-6.1,3-13.1,6.4-16.8,12.1c-1.7,3-3,6.4-4.3,9.8c-6.1,17.1-10.7,34.8-15.1,52.4
			c-0.3,2.7-2.2,6.9-4,9.6c-5.2,8-13.5,13.1-22.1,16.9c-6.5,3.4-11.6,8.9-15,15.5c-3,5.7-4.9,12.6-5.4,18.7
			c0,11.6-0.3,31.4-7.8,40.5c-1.5,1.7-3.8,2.8-6.1,2.7c0,0-1.3,0-1.3,0c-0.8,0-1.7,0-2.5,0.1c-10.3,1.1-19.8,5.9-28.5,11.3
			c9.6-6.4,20.5-12.3,32.3-12.3c12.5,0,12.3-33.1,12.1-42.2c0.5-6.9,2.3-13.5,5.3-19.7c3.4-6.9,8.9-12.9,15.7-16.6
			c8.1-3.7,16.1-8.6,21-16.2c1.7-2.6,3.1-5.6,3.6-8.6c3.4-14.3,7.1-28.5,11.5-42.5c2.3-7.1,4.4-14,7.9-20.7c2-3.4,5.1-5.8,8.3-8
			c15.7-9.8,33.9-14.4,50.9-20.7c2.7-0.9,5-2.1,7.8-3c5.7-1.8,10.1,2.5,11.9,7.5c2.6,7.2,3,14.6,2.9,22.1c0,0-2.6-0.3-2.6-0.3
			c1.6-7.6,7.5-12.3,15.2-8.9c2,0.9,3.8,2,5.5,3.2c1.2,0.8,3.3,2.6,4.1,4.4c3.2,5.4,1.7,12.1-1.2,17.2c-1.8,1.5-3.7,2.8-5.8,3.9
			c-6.3,3.2-9.6,1-9.8-6c-0.2-9.8,10.8-4.3,15.2-1c7.9,5.5,12.8,14.6,14,24c0.6,4.4,0.6,8.8,0.4,13.3c-0.1,4.4-0.8,8.8,0,13.1
			C693.3,283.6,695.6,287.5,698.1,291.1L698.1,291.1z"/>
	</g>
	<g class="st61">
		<path class="st13" d="M654,215.1c-3.2-4.5-10.7-14.4-16.7-9.4c-5.6,4.7-10.4,10.5-14.4,16.6c-6.9,10.8-11.8,22.9-14.4,35.4
			c-0.9,5.8-0.2,15.7,7.7,15.1c1.5-0.1,2.8-0.8,3.5-2c1.5-2.3-0.3-6.1-3.4-5.7c-3.2,0.4-6.2,3-8.5,5.3c-4.9,5.3-7.4,12.5-7.7,19.8
			c-0.3,7.4,1.6,14.7,4.2,21.6c-6.8-13.1-8.8-31,1.7-42.9c3.2-3.5,8.2-8.1,13.4-5.8c3.3,1.6,4.5,6,2.6,9.2c-2,3.7-7,4.2-10.6,2.7
			c-7-3.4-7-12.6-5.8-19.2c0.2-0.9,0.9-3.2,1.1-4.1c3-10.9,7.6-21.4,14.1-30.7c4.3-6.2,9.4-11.8,15.5-16.4
			C643.6,199.3,650.7,209.6,654,215.1L654,215.1z"/>
	</g>
	<g class="st61">
		<path class="st13" d="M624.7,213c-7.6-3-15.2,1.6-18.8,8.4c-3.6,6.7-5.8,14-7.7,21.4c-0.7,2.5-1.2,5-2.7,7.5
			c-0.7,1.2-1.8,2.3-2.9,3.1c-1,0.8-2.2,1.1-3,2c-3.2,3.5-4.8,8.7-6.4,13.2c-1.5,4.8-2.9,9.7-3.7,14.6c-0.8,5-1.2,10-1.2,15
			c0.2,10.3-0.1,21-4.2,30.7c-5.8,14-16.3,26.2-18.8,41.4c-0.8,4.8,0.9,9.8,2.4,14.4c1.7,4.8,3.7,9.5,5.7,14.1
			c2.7,7,10.9,22.5,6.8,29.2c3.6-6.7-5.3-21.9-8.2-28.6c-2.2-4.6-4.4-9.3-6.2-14.1c-1.8-4.9-3.6-10.2-2.9-15.4
			c2.2-15.5,12.6-28.1,18.5-42.2c3.9-9.3,4.1-19.6,4-29.6c0-5.2,0.4-10.4,1.4-15.5c0.9-5.1,2.4-10.1,4-15c1.8-4.9,3.5-10.1,7.2-14
			c1.8-1.6,4.5-2.2,5.7-4.5c1.2-1.9,1.9-4.4,2.6-6.8c1.4-4.9,3.1-9.8,5.1-14.5c2-4.7,4.5-9.5,8.6-12.8
			C614.1,211.6,620,210.8,624.7,213L624.7,213z"/>
	</g>
	<g class="st61">
		<path class="st13" d="M501.7,384.6c-10.4,8.4-20.7,17.9-25.9,30.5c-0.5,1.3-0.8,2.7-1.3,4C476.9,404.7,489.9,392.3,501.7,384.6
			L501.7,384.6z"/>
	</g>
	<g class="st61">
		<path class="st15" d="M785.4,447.9c8,11.6,13.7,29.9,7.4,43.3C794.8,476.2,789.7,462,785.4,447.9L785.4,447.9z"/>
	</g>
	<g class="st61">
		<path class="st13" d="M557.4,389.7c-0.2,15-2.6,45-14,55.3C553.6,434.2,555.9,404.6,557.4,389.7L557.4,389.7z"/>
	</g>
	<g class="st61">
		<path class="st13" d="M601,382.4c-3,5.7-5.2,11.9-6.2,18.2c-0.9,5.5-0.6,11.3-0.6,16.9c0,0.8-0.4,1.6-0.8,2.3
			c0.3-0.7,0.6-1.5,0.5-2.3c-0.5-5.7-1-11.4-0.1-17.1C594.9,394,597.3,387.8,601,382.4L601,382.4z"/>
	</g>
	<g class="st61">
		<path class="st13" d="M524.8,306c0.9-0.7,2.1-1,3.2-1.1c1.1-0.1,2.4,0.1,3.3,0.7c-0.6,0.1-1.1,0.1-1.7,0.2
			C528,305.9,526.4,306.1,524.8,306L524.8,306z"/>
	</g>
	<path class="st67" d="M524.9,305.4c0,0-1.4-12.6-27.9-6.2c0,0,2.6,1.9,5.1,5.6c2.3,3.3,5.5,5.9,9.4,6.9c2.8,0.7,6,0.7,8.9-1.1
		C520.4,310.5,523.5,308.5,524.9,305.4z"/>
	<path class="st67" d="M544.4,424.3c0,0-3.9-7.7-19.3,2.7c0,0,2.1,0.6,4.6,2.3c2.2,1.6,4.9,2.5,7.6,2.1c1.9-0.2,4-1,5.4-2.8
		C542.8,428.7,544.2,426.6,544.4,424.3z"/>
	<path class="st67" d="M569.5,315.3c0,0,4.8-5.3-7.9-14.3c0,0,0.2,1.8-0.4,4.3c-0.6,2.2-0.4,4.6,0.6,6.6c0.8,1.5,2,2.8,3.8,3.4
		C565.6,315.2,567.7,315.8,569.5,315.3z"/>
	<path class="st67" d="M594.3,387.7c0,0,3.5-3.9-5.7-10.4c0,0,0.1,1.3-0.3,3.1c-0.4,1.6-0.3,3.3,0.5,4.8c0.6,1.1,1.4,2.1,2.8,2.5
		C591.5,387.7,593,388.1,594.3,387.7z"/>
	<path class="st67" d="M602.5,406.6c0,0-1.2-5.1,10-6.4c0,0-0.8,1.1-1.2,2.9c-0.4,1.6-1.3,3.1-2.7,4c-1,0.7-2.2,1.1-3.6,0.8
		C605,407.9,603.5,407.6,602.5,406.6z"/>
	<path class="st67" d="M549.8,257.9c0,0-3.2-7-17.3,1.6c0,0,1.9,0.6,4,2.3c1.9,1.5,4.3,2.4,6.7,2.2c1.7-0.1,3.6-0.7,4.9-2.3
		C548.2,261.7,549.6,259.9,549.8,257.9z"/>
	<path class="st67" d="M519.6,370.9c0,0-6.7,7.7-1.2,15.7c3.3,4.8,7.7,6,3.8,13.5c0,0,2.6,0.3,3.6,0c5.6-1.5,10.3-15.8,1.4-26.1
		c-1.1-1.3-2.5-2.4-4.1-3C522,370.5,520.7,370.2,519.6,370.9z"/>
	<path class="st67" d="M786.5,409.7c0,0-6.9,7.8-1.2,16c3.4,4.9,7.9,6.1,3.9,13.8c0,0,2.7,0.3,3.7,0c5.8-1.6,10.5-16.2,1.4-26.7
		c-1.2-1.3-2.6-2.4-4.1-3C789,409.3,787.7,409.1,786.5,409.7z"/>
	<path class="st67" d="M563.9,382.5c0,0,0.4,6.9,7.5,6.9c4.2,0,7.2-2,9,3.2c0,0,1.5-1.4,1.9-2c2.2-3.8-2.7-12.1-12.7-11.1
		c-1.3,0.1-2.6,0.5-3.7,1.1C565,380.9,564.2,381.6,563.9,382.5z"/>
	<g class="st61">
		<path class="st13" d="M512,358.4c4.1,3.2,8.1,7.8,8.5,13.2C518.8,366.7,515.1,362.5,512,358.4L512,358.4z"/>
	</g>
	<path class="st68" d="M563.9,382.5c0,0-8.9-2.6-10.2-8.1"/>
	<g class="st61">
		<path class="st13" d="M594.3,387.7c1.2,1.3,1.5,2.8,1.9,4.4c-0.5-0.1-0.8-0.5-1-0.8C594.5,390.2,594.1,389,594.3,387.7
			L594.3,387.7z"/>
	</g>
	<g class="st61">
		<path class="st13" d="M602.5,406.6c-2.5,2.7-5.3,4.9-8.7,6.5C596.3,410.4,599.2,408.2,602.5,406.6L602.5,406.6z"/>
	</g>
	<g class="st61">
		<path class="st13" d="M549.2,258.7c6.1-1.4,12-4.3,16.1-9.2C562.3,255.3,555.5,258.6,549.2,258.7L549.2,258.7z"/>
	</g>
	<path class="st67" d="M770.3,395.6c0,0-3.2-7-17.3,1.6c0,0,1.9,0.6,4,2.3c1.9,1.5,4.3,2.4,6.7,2.2c1.7-0.1,3.6-0.7,4.9-2.3
		C768.6,399.4,770,397.6,770.3,395.6z"/>
	<g class="st61">
		<path class="st13" d="M769.6,396.4c6.1-1.4,12-4.3,16.1-9.2C782.7,393,776,396.4,769.6,396.4L769.6,396.4z"/>
	</g>
	<path class="st67" d="M717.1,407.7c0,0-4.9-3.6-11.4,7.8c0,0,1.5-0.3,3.7,0c1.9,0.3,3.9,0,5.5-1.1c1.2-0.8,2.2-1.9,2.5-3.5
		C717.4,411,717.7,409.2,717.1,407.7z"/>
	<g class="st61">
		<path class="st13" d="M717,408.5c3.6-3.5,6.5-7.7,7.6-12.6C724.9,401.1,721.5,406.2,717,408.5L717,408.5z"/>
	</g>
	<path class="st67" d="M679.8,251c0,0-4.9-3.6-11.4,7.8c0,0,1.5-0.3,3.7,0c1.9,0.3,3.9,0,5.5-1.1c1.2-0.8,2.2-1.9,2.5-3.5
		C680.1,254.3,680.4,252.6,679.8,251z"/>
	<g class="st61">
		<path class="st13" d="M679.7,251.9c3.6-3.5,6.5-7.7,7.6-12.6C687.6,244.4,684.2,249.5,679.7,251.9L679.7,251.9z"/>
	</g>
	<path class="st67" d="M698,273c0,0,2.8-2.8,8.1,4c0,0-1-0.1-2.4,0.3c-1.2,0.4-2.5,0.3-3.7-0.2c-0.8-0.4-1.6-1-1.9-2
		C698.1,275.1,697.8,274,698,273z"/>
	<g class="st61">
		<path class="st13" d="M698.2,273.5c-3.2-0.9-6.1-4-6-7.4C693.6,269.1,695.7,271.3,698.2,273.5L698.2,273.5z"/>
	</g>
	<path class="st67" d="M685.4,412.4c0,0-2.6-1.9-6,4.1c0,0,0.8-0.2,1.9,0c1,0.2,2.1,0,2.9-0.6c0.6-0.4,1.2-1,1.3-1.9
		C685.6,414.1,685.8,413.1,685.4,412.4z"/>
	<g class="st61">
		<path class="st13" d="M685.3,412.8c1.7-2.1,3.1-4.1,4-6.7C689.9,408.9,687.9,411.8,685.3,412.8L685.3,412.8z"/>
	</g>
	<path class="st67" d="M698.5,426.2c0,0,2.2-2.4,6.7,2.8c0,0-0.8,0-1.9,0.4c-1,0.4-2,0.4-3,0c-0.7-0.3-1.4-0.7-1.7-1.5
		C698.7,428,698.3,427.1,698.5,426.2z"/>
	<g class="st61">
		<path class="st13" d="M698.7,426.7c-2.7-0.4-5.3-2.9-5.3-5.7C694.8,423.3,696.5,424.9,698.7,426.7L698.7,426.7z"/>
	</g>
	<path class="st67" d="M783.6,314c0,0,6.1-4.6,14.4,9.7c0,0-1.9-0.4-4.6,0.1c-2.4,0.4-4.9,0-7-1.3c-1.5-0.9-2.8-2.3-3.2-4.4
		C783.3,318.1,782.9,315.9,783.6,314z"/>
	<g class="st61">
		<path class="st13" d="M783.9,315c-5.6-3.1-9.9-9.2-9.7-15.8C775.4,305.5,779.2,310.8,783.9,315L783.9,315z"/>
	</g>
	<path class="st67" d="M790,415.8c0,0,5.6-1.6,7.5,10.9c0,0-1.3-0.8-3.3-1.2c-1.8-0.4-3.5-1.3-4.6-2.8c-0.8-1.1-1.3-2.4-1.1-4
		C788.6,418.6,788.9,416.9,790,415.8z"/>
	<g class="st61">
		<path class="st13" d="M789.8,416.6c-3.3-3.6-4.6-9.3-2.5-13.8C786.7,407.5,787.8,412.2,789.8,416.6L789.8,416.6z"/>
	</g>
	<path class="st67" d="M736.9,372.1c0,0,5.6-1.6,7.5,10.9c0,0-1.3-0.8-3.3-1.2c-1.8-0.4-3.5-1.3-4.6-2.8c-0.8-1.1-1.3-2.4-1.1-4
		C735.5,374.9,735.8,373.2,736.9,372.1z"/>
	<g class="st61">
		<path class="st13" d="M736.8,372.9c-3.3-3.6-4.6-9.3-2.5-13.8C733.6,363.8,734.7,368.5,736.8,372.9L736.8,372.9z"/>
	</g>
	<path class="st67" d="M748.4,444.6c0,0,5.4-4.9,14.5,7.9c0,0-1.8-0.2-4.3,0.5c-2.2,0.6-4.6,0.5-6.7-0.6c-1.5-0.8-2.9-2-3.4-3.8
		C748.4,448.5,747.9,446.4,748.4,444.6z"/>
	<g class="st61">
		<path class="st13" d="M748.7,445.5c-5.6-2.4-10.2-7.9-10.5-14C739.9,437.3,743.9,442,748.7,445.5L748.7,445.5z"/>
	</g>
	<path class="st67" d="M747.7,265.6c0,0,6-2.3,9.3,11.1c0,0-1.5-0.7-3.7-1c-2-0.2-3.9-1.1-5.3-2.6c-1-1.1-1.7-2.5-1.6-4.2
		C746.4,268.8,746.6,266.9,747.7,265.6z"/>
	<g class="st61">
		<path class="st15" d="M747.6,266.4c-3.9-3.6-5.9-9.7-4.1-14.8C743.2,256.9,744.9,261.9,747.6,266.4L747.6,266.4z"/>
	</g>
	<path class="st67" d="M627.9,238.4c0,0,6.1-4.6,14.4,9.7c0,0-1.9-0.4-4.6,0.1c-2.4,0.4-4.9,0-7-1.3c-1.5-0.9-2.8-2.3-3.2-4.4
		C627.6,242.6,627.2,240.3,627.9,238.4z"/>
	<g class="st61">
		<path class="st13" d="M628.2,239.5c-5.6-3.1-9.9-9.2-9.7-15.8C619.7,230,623.5,235.3,628.2,239.5L628.2,239.5z"/>
	</g>
	<g class="st61">
		<path class="st13" d="M569.5,315.3c2.2,3.2,4,7,4,10.9C572.3,322.9,570.3,318.6,569.5,315.3L569.5,315.3z"/>
	</g>
	<g class="st61">
		<path class="st13" d="M544.2,425.6c2-1.9,7-5.1,9.8-3.8c-0.9-0.1-1.7,0.3-2.5,0.6C549,423.5,546.8,424.8,544.2,425.6L544.2,425.6z
			"/>
	</g>
	<g class="st61">
		<path class="st13" d="M654.8,199.7c-0.1-8.1,3-20,13.4-16.9c16.1,3.6,37.2,9,49.8,20c7.3,7.7,13.4,19.1,12.1,30c0,0-2.2-1-2.2-1
			c1.3-1.3,2.8-2,4.6-2.3c5.2-0.5,8.5,4.3,10.7,8.3c1.6,5.2,1.5,10.7,1.6,16.1c0.1,7.8-0.7,15.6-1,23.4c-0.4,10.4,1.1,20.5,3.6,30.5
			c1.5,7.9,0.9,16.3-1.9,23.8c-4.3,12.3-10.2,23.9-15.6,35.8c-6.6,16.9-4.3,35.8,2.5,52.3c2,4.7,4.4,9.6,5.5,14.7
			c3,12.7,2,26.5-3.1,38.5c-1.1,2.4-2.3,4.7-3.7,6.9c7.7-13.5,9.3-30.1,5.4-45c-1.3-5.1-3.6-9.6-5.7-14.4
			c-8.4-19.7-10.4-41.8,0-61.1c4.5-9.3,8.6-18.8,12.1-28.6c1.8-4.7,2.6-9.7,2.5-14.8c0-5.2-1.4-10-2.5-15.1
			c-4.8-20.6,1.9-42.9-1.8-61.8c-1.2-2.1-2.6-4.3-4.5-5.8c-2.1-1.6-4.7-1.5-6.6,0.3c0,0-2.7,2.7-2.7,2.7l0.5-3.8
			c1.2-10.2-4.2-20.8-10.9-28.1c-7.8-7.2-18.1-11-28-14.6c-6.7-2.4-13.6-4.4-20.5-6C658.1,180.3,654.9,192.2,654.8,199.7
			L654.8,199.7z"/>
	</g>
	<g class="st61">
		<path class="st13" d="M678.3,214.7c2.9-5.7,6.5-11.2,11.6-15.2c3.5-3.1,8.4-3.2,12.9-3c2.3,0.1,4.7,0.6,6.8,1.5
			c-1.1-0.3-2.2-0.5-3.4-0.7c-3.4-0.4-6.9-0.2-10.2,0.4c-2,0.2-3.9,1.3-5.5,2.5C685.5,204.2,681.8,209.5,678.3,214.7L678.3,214.7z"
			/>
	</g>
	<g class="st61">
		<path class="st13" d="M682.9,222.4c1.3-7.4,8.2-12.9,15.8-10.7c1,0.3,1.9,0.7,2.9,1l-0.4-0.1c0.3,0.1,0.3,0.1,0.4,0.1
			c1.4,0.6,2.5,1.8,3.4,2.9c2.5,3.2,4.3,6.9,5.6,10.7c-3.3-3.6-5.9-8.2-10-10.9C693.1,212.4,687.4,215.2,682.9,222.4L682.9,222.4z"
			/>
	</g>
	<g class="st61">
		<path class="st13" d="M731.2,419.6c1.1,10.9,0.6,25.1-7.1,33.6c-1.2,1.2-2.5,2.2-4.1,2.9c1.4-0.9,2.7-2,3.7-3.3
			C730.6,444.1,731,430.4,731.2,419.6L731.2,419.6z"/>
	</g>
	<g class="st61">
		<path class="st13" d="M691.2,399.6c-1.3,5.5-1.3,11.5,0.5,16.8c2.2,5.2,4.2,11.4,1.8,16.9c0.4-1.4,0.6-2.8,0.5-4.2
			c0-4.3-1.7-8.4-3.3-12.3C688.9,411.2,689.1,405,691.2,399.6L691.2,399.6z"/>
	</g>
	<g class="st61">
		<path class="st13" d="M788.3,459.3c0.5-4.4-1.3-8.5-3.7-12c-3-4.5-6.5-8.7-8.8-13.6c-4.6-10.7,6.7-23.5,10.1-33.4
			c3.3-7.3-1.2-17.2-4-24.3c-3.3-8-7.8-15.2-11.9-22.9c-5.7-11.8-8.7-24.8-9.6-37.7c-1.2-17.3,0.6-34.8,5.1-51.6
			c0.6-9.9-1.8-22.7-9.7-30.2c-9.1-8.8-20.7-9.1-28,2.1c7-11.7,19.1-11.6,28.7-2.8c8.3,7.9,11,20.1,10.5,31.2
			c-1.1,4.2-2,8.4-2.7,12.7c-2.2,12.7-3,25.6-2,38.4c1,12.8,3.9,25.5,9.4,37.1c3.9,7.6,8.6,15.1,11.8,23.1c2.8,7,6,14.6,4.8,22.3
			c-2.7,9.4-9.5,17.1-12.1,26.5c-1.2,4.2-0.6,8.4,1.7,12.1C781.8,443.6,789.5,450.2,788.3,459.3L788.3,459.3z"/>
	</g>
	<g class="st61">
		<path class="st13" d="M770.2,376.1c7.9-6.9,4.8-20.6,2.2-29.4c-4.9-16.2-3.6-33.6,0-49.8c4.2-14.2,4.2-29.8-1.7-43.5
			c-2.4-5.5-5.8-10.4-10-14.7c4.7,3.8,8.6,8.7,11.4,14.1c5.6,11,6.9,23.7,5.3,35.9c-1.1,6-2.9,11.5-3.7,17.7
			c-1.8,11.7-2.4,23.8-0.2,35.5c1.3,5.8,3,11.9,3.1,17.9C776.6,365.5,775.5,372.6,770.2,376.1L770.2,376.1z"/>
	</g>
	<g class="st61">
		<path class="st13" d="M725.9,220c0-0.8,0.3-1.6,0.7-2.3c1.2-2.2,2.9-4,5.1-5.3c6.9-4.2,12.9,2.9,16.2,8.3c1.7,2.7,3.1,5.6,4.2,8.6
			c-2.7-3.9-5.3-7.9-8.4-11.4c-2.9-3.4-6.7-6.5-11.2-4.2C729.9,215.1,727,217.2,725.9,220L725.9,220z"/>
	</g>
	<path class="st64" d="M653.8,215.8c0,0-15.2,2.9-24.3,2.3l5.7-6.5c0,0,6.4,0.3,6.8,0.4s9.3,1.9,9.3,1.9L653.8,215.8z"/>
	
		<ellipse transform="matrix(0.2461 -0.9692 0.9692 0.2461 148.7525 829.9293)" class="st69" cx="607.9" cy="319.3" rx="8.2" ry="15.9"/>
	
		<ellipse transform="matrix(0.2461 -0.9692 0.9692 0.2461 193.7338 938.5684)" class="st69" cx="700.2" cy="344.7" rx="8.2" ry="15.9"/>
	<path class="st67" d="M770.7,328.2c0,0,1,23,9.9,42.6"/>
	<path class="st60" d="M665.6,463.2c0,0,9.8,8.1,12.4,14.3c0,0,8.5-51.3,27.2-64.7c0,0,8-4.3,11.8,2.9c0,0-4.2,21.3-4.2,21.6
		c0,0.3,0-0.3,0-0.3s10.5-19.7,16.3-23.1s7.8,5,7.8,5l-6.5,27.9l15.3-23.7c0,0,5.8-2,9,5.5c0,0-7.7,21.8-10.3,29.6l15.7-10.4
		c0,0,4.4,1.9,3.5,8.3c-0.9,6.5-13.1,21.3-13.1,21.3s-10.7,35.3-10.6,37.4c0.1,2.1-6,23.7-13.1,23.6c-7.1-0.2-21.7-7-21.7-7
		s-12,0.8-26.6-1.8c0,0-9.6-1-11.6-12.4c-2-11.4-9.4-41.6-9.4-41.6S652.9,459.2,665.6,463.2z"/>
	<path class="st60" d="M1031.8,308.2c0,0,13.2,7.6,5.6,32.3c0,0-6.6,30.7-4.3,39c0,0,37-29.6,59.1-34.8c0,0-19.7-18.2-10.7-42.9
		c9-24.7-1.2-26.8-1.2-26.8l-33.4,8.4L1031.8,308.2z"/>
	<path class="st60" d="M958.5,173.5c0,0,31.4,113.3,47.6,127.5c0,0,30.1,21.9,101.7-8.6c0,0,12.9-5.3,21.8-56.5s12.6-74.6,12.6-74.6
		S1010.3,114,958.5,173.5z"/>
	<path class="st60" d="M946.3,128.2c-2.4,1.8-3.5,4.9-2.8,7.8c2.5,9.6,8.3,30.4,11.6,35.1c4.4,6.2,3.3,2.3,3.3,2.3
		s43.3-49.9,183.6-12.2c0,0,4,0,5.6-3c1.7-3,6.6-39,6.6-39s-3.3-7.3-7.3-9.2c-4-2-104.4-51.9-197.5,15.9L946.3,128.2z"/>
	<path class="st70" d="M873.3,431.5l62.4-48.6c0,0,18.5-12.1,36.7-17c18.2-4.9,58.8-18.8,65.1-25.4c0,0-5.9,35-4.3,39
		c0,0,44.3-31.9,59.1-34.8c0,0,32,11.2,56.8,32.7s30.4,73.4,30.4,73.4s6.9,103.6-22.1,179.1h-177c0,0-25.8-126.9-13.2-170.7
		l-15.9,15.2C951.2,474.6,878.6,431.4,873.3,431.5z"/>
	<path class="st71" d="M1040.6,59c0.2-0.7,4.2-52.8,68.5-30.6c0,0,1.8,4.2-11.7,5.1c0,0-24.9,31-50.4,27.5L1040.6,59z"/>
	<path class="st71" d="M1149.4,81.9c0,0,34.5-18.5,50.6-3.3s16.5,21.1,16.5,21.1l-8.8,28.8l-7.7-1.8c0,0-9.7,2.4-39.8-35
		L1149.4,81.9z"/>
	<path class="st71" d="M987.8,42c0,0,13.9-9.3,20.5-43.8c6.6-34.6-34.1-29.9-34.1-29.9l-21.8,2.9l-19.6,9.2c0,0,15,42.1,31.5,53.3
		c0,0,10.1,7.3,12.8,12.1L987.8,42z"/>
	<path class="st71" d="M934.7,153.9c0,0-42.7,26.3-38.9,66.9c0,0,2.6,3.8,10.8-7.6c0,0,12.1-9.5,16.7-12.6s15.1-27.1,11.2-42.1
		L934.7,153.9z"/>
	<g class="st61">
		<path class="st72" d="M1066.6,88.9c0.4-0.9,11-13.3,18.3-16.3c0,0,8.6,5.3,9.9,19.9"/>
		<path class="st8" d="M1066.6,88.9c2.1-3.6,4.9-6.7,7.8-9.7c3.1-3.1,6.4-6.1,10.6-7.8c1,0.7,1.9,1.5,2.8,2.3
			c4.8,4.9,7.1,11.9,7,18.7c-0.8-3.6-1.9-7.4-3.6-10.7c-1.7-3.2-3.9-6.3-6.9-8.3c0,0,0.9,0.1,0.9,0.1c-3.6,1.6-6.8,4.3-9.8,6.9
			C1072.4,83.1,1069.4,85.9,1066.6,88.9L1066.6,88.9z"/>
	</g>
	<g class="st61">
		<path class="st72" d="M1040.6,59c0,0-4.8,12.9,12.8,31.5"/>
		<path class="st8" d="M1040.6,59c-1.2,10.3,4.6,19.7,10.2,27.9c0.9,1.2,1.7,2.4,2.6,3.6c-1.1-1-2.2-2-3.3-3
			C1043.1,80.2,1036.8,69.1,1040.6,59L1040.6,59z"/>
	</g>
	<path class="st71" d="M977,45.7c0,0,18.6,44.4,33.1,51c0,0-25.4-30.1-22.3-54.7C990.9,17.3,977,45.7,977,45.7z"/>
	<g class="st61">
		<path class="st8" d="M1149.4,81.9c-8.1,2.6-16,5.9-22.8,11c-2.3,1.7-4.3,3.7-6.3,5.7C1125.9,88.2,1138,82.5,1149.4,81.9
			L1149.4,81.9z"/>
	</g>
	<path class="st60" d="M935.2,159.6c0,0,4.8-40.3,26-51.7c0,0,7.8,2.9,8.8,5.1l10.7-5.4c0,0-16.2-8.3-22.2-6.9
		C958.5,100.5,930.8,134.9,935.2,159.6z"/>
	<path class="st71" d="M844.7,148.8c0,0,31.5-62.1,80.8-50.2l15.2,5.7c0,0-13.2,29.5-34.8,32.6C884.3,140,844.7,148.8,844.7,148.8z"
		/>
	<g class="st61">
		<path class="st8" d="M977,104.5c-5.1-4.3-9.9-9.2-15.8-12.3c-0.8-0.4-1.7-0.7-2.4-0.7c-1.2,0-2.5,0.7-3.5,1.2
			c-5.3,3.2-9.9,7.5-14.6,11.6c3.9-5,8.3-9.8,13.7-13.2c1.4-0.8,3-1.6,4.6-1.6C965.3,90.4,973.1,99.6,977,104.5L977,104.5z"/>
	</g>
	<path class="st73" d="M1109.3,459.3c0,0-16.3,98.8-6.6,170.7"/>
	<path class="st60" d="M142.6,608.7c0,0,3.6,15.1,1.9,21.7c-1.8,6.6,34.8,14.3,34.8,14.3l14.1-14.3c0,0-3.6-12.8,4.8-26.6
		c8.4-13.8,6.7-43.8,6.7-43.8l-57.7,30.6L142.6,608.7z"/>
	<path class="st70" d="M148.4,440.3c0,0,20.7-80.2-16.7-228.1c0,0-52.4-100.8-54.2-112L70,67.8c0,0-9.2,59,23.8,110.5
		s47.1,145.5,47.1,145.5S152.8,419.7,148.4,440.3z"/>
	<path class="st70" d="M38.8,237.1c0,0,94.2,92.6,101.3,187.5c0,0-0.4,39.3-2.2,42c0,0,51.8-99.5-69-212L38.8,237.1z"/>
	<path class="st70" d="M155,371.6c0,0,22.9-120.7,43.6-142.3c0,0,7.5,45.3-23.8,106.1s-26.4,101.8-26.4,101.8L155,371.6z"/>
	<path class="st60" d="M77.5,516.9c0,0,30.6,91.1,33.5,91.6c48.5,8.2,70.8,15.2,118.8-18.8c1.7-1.2,2.7-3.1,2.7-5.2v-95.8
		C232.5,488.8,157.2,467.6,77.5,516.9z"/>
	<path class="st60" d="M60.8,474.6c0,0,11.4,40.2,16.7,42.4c0,0,72.7-46.7,156.3-28.3c0,0,1.7-19.7-3.6-45
		C230.2,443.6,135.2,416.3,60.8,474.6z"/>
	<path class="st74" d="M368.6,421.7c0,0,25-4.2,57.9,26.2c32.9,30.4,70.4,94.8,70.4,94.8s21.9,51.7,10.4,87.3H398.6l-29.9,37.1
		c0,0-91.6,0.4-122.4-101.7s48-135.6,48-135.6"/>
	<path class="st60" d="M309.5,398.4c0,0,5.2,17.2,0,21.4s-15.4,10-15.4,10s53.3,62.9,66.1,61.4c0,0,7-14.1,8.4-69.5
		c0,0-15.4-5.3-9.7-25.3c5.7-19.9-2.6-37.4-2.6-37.4l-35.2,19.4L309.5,398.4z"/>
	<path class="st60" d="M220.2,221.3c0,0,8.8,47.2,17.6,52.7s162.1,30.5,166.5-34.6s-114.5-65.1-131.2-61.6S218.4,212.3,220.2,221.3z
		"/>
	<path class="st60" d="M237.8,274.1L264,376.2c1.1,4.2,3.9,7.7,7.7,9.8c16.5,8.7,64,28.1,116.2-4c5.5-3.4,9.1-9.2,9.6-15.7l6.8-99.8
		v-18.2C404.3,248.4,392.4,302.9,237.8,274.1z"/>
	<path class="st60" d="M505,419.8c0,0,2-6.7,8.4-4.8c0,0,4.9,15.4-2.7,38.8c0,0,4.5,3.3,5.5,13.4c0,0,5.2,3.3,4.3,14.2
		c-0.9,10.9-18.8,49.9-29.3,50.1c-10.6,0.2-21.6-17.3-21.6-17.3s-2.8-29.1-2.5-30.2c0.3-1.2,16.3-57.8,16.8-59
		C484.4,424,505,419.8,505,419.8z"/>
	<path class="st65" d="M447.6,384.6c0,0,18.2-11.6,42.3-5.3l-5.3,16.6l-22.5,8.4L447.6,384.6z"/>
	<path class="st75" d="M497,542.7c-2.5-2-16.1-30-11.8-51.5l-14.6-5.2c0,0-14.8,25-14.8,27c0,2,4.6,34.7,4.6,34.7l16,3.9L497,542.7z
		"/>
	<path class="st76" d="M358,560c0,0-23.8-36.1,10.6-75.7s75-38.7,75-38.7l0.4-12.2l40.3,10.4l10.2,1.9c0,0,4,22.5-9.2,45.6
		C472,514.3,472,514.3,472,514.3l0.3,36C472.3,550.3,423.8,535,358,560z"/>
	<path class="st60" d="M437.5,370.5c0,0-3.6,67.2,18.5,80.4c0,0,29.4,13.4,42.4-4.8s-0.5-79.3-2.8-83.7c0,0-4.5-9.6-8.8,6.5
		s-8.6,22.8-8.6,22.8s-9.2,4.3-14.9,0c-5.6-4.3-17.8-18.9-17.8-18.9S442.4,367.4,437.5,370.5z"/>
	<path class="st65" d="M224.9,216c0,0-4,8.1,16.8,7.7s81.9,3,91.5,0c9.6-3,36.7-23.5,35.3-24.8c-1.3-1.3-70.2-26.9-97.4-20.6
		c-27.2,6.4-44,14.3-44,14.3L224.9,216z"/>
	<path class="st77" d="M305.5,198.6c0,0-36.3-27.4-4.3-53.5s102.7-3.6,127.2,26.8c24.4,30.4,33,42,35,48.9c2,6.9,6.6,26.9-4.3,56.9
		c-10.9,30-21.9,41.8-21.9,41.8s-11.2,9.3-10.5-7.5c0.7-16.8,0.7-27.1-8.6-36.8s-93.5-11.7-110.3-19.8
		c-16.8-8.1-35.7-32.2-19.8-45.1C303.9,197.2,305.5,198.6,305.5,198.6z"/>
	<path class="st77" d="M150.3,200.5c0,0,48.6-9.1,57.4-26.9c4.4-8.8,13-14.8,22.9-14.7c6,0.1,12.8,1.7,19.5,6.6
		c0,0,14.3-0.2,21.2,12.8c6.9,13-11.3,23.8-29.8,25.3c0,0-29.4,17.4-51.5,14.6S134.1,210.1,150.3,200.5z"/>
	<g class="st61">
		<path class="st8" d="M327,621.3c-3-10.6-1.6-22.2,2.6-32.3c1.7-4.1,4.1-8.3,6.8-11.8c1.5-2.2,3.9-4.7,5.7-6.6
			c1.6-1.5,3.4-3.1,5.1-4.5c-0.8,1-1.7,2-2.5,2.9c-0.4,0.5-1.5,1.7-1.9,2.1c-1.1,1.4-3,3.9-4,5.3c-0.6,1-2.4,3.7-3.1,4.8
			c-0.6,1.2-2.1,3.9-2.7,5c-0.4,0.9-1.1,2.6-1.5,3.5C327.4,599.7,325.7,610.6,327,621.3L327,621.3z"/>
	</g>
	<g class="st61">
		<path class="st8" d="M314.8,618.3c0.2-12.8,6-26.8,16.8-34.2c0.7-0.5,1.5-0.9,2.2-1.4c-0.9,0.9-1.9,1.8-2.8,2.7
			C322.3,594.5,317.6,606.3,314.8,618.3L314.8,618.3z"/>
	</g>
	<g class="st61">
		<path class="st8" d="M398.6,630c13.6-4.6,27-9.7,40.1-15.6c9.7-4.5,19.4-9.3,27.9-15.8c2.8-2.2,5.4-4.6,7.4-7.4l-0.1,0.4l0.8-20
			l0.9-20l0.7,0.9c-13.5-3-27.2-4.8-41-5.2c-24.8-0.6-49.8,3.1-72.8,12.4c-5.4,2.2-10.8,4.7-15.7,7.8c0,0-0.3-1.1-0.3-1.1l-3.7-12.3
			c-5.4-16.2-12.7-32.1-23.6-45.4c-8.3-9.5-19.1-18.4-32-20.1c13.1,1.3,24.1,10.2,32.6,19.5c2,2.5,4.2,5,6,7.7
			c4.3,6.2,8.1,12.8,11.2,19.7c4.4,9.1,8.2,20.7,11.1,30.4c0,0-1.3-0.5-1.3-0.5c4.8-2.9,9.9-5.3,15-7.4
			c23.2-9.4,48.5-13.4,73.5-12.7c13.9,0.5,27.8,2.3,41.3,5.4c0,0,0.7,0.2,0.7,0.2l0,0.7l-0.9,20l-1,20l0,0.2c-2.2,3.1-5,5.6-7.9,7.8
			c-8.7,6.5-18.5,11.2-28.4,15.6C425.8,620.9,412.3,625.8,398.6,630L398.6,630z"/>
	</g>
	<path class="st60" d="M474.6,591.6c3.6,11.2,13.6,38.4,13.6,38.4"/>
	<g class="st61">
		<path class="st78" d="M509.6,454.2c0,0-14.7,4.9-15.1,8.4"/>
		<path class="st8" d="M509.6,454.2c-3.7,2.5-7.8,4.1-11.7,6c-1.2,0.7-2.7,1.2-3.4,2.4C494.9,457.9,505.5,454.3,509.6,454.2
			L509.6,454.2z"/>
	</g>
	<g class="st61">
		<line class="st78" x1="493.3" y1="469.8" x2="492" y2="484.2"/>
		<path class="st8" d="M493.3,469.8c0.9,4.8,0.5,9.9-1.4,14.5C491,479.4,491.5,474.3,493.3,469.8L493.3,469.8z"/>
	</g>
	<g class="st61">
		<path class="st8" d="M516.2,467.2c-3.8,2.4-7.8,4.5-11.8,6.7c0,0,0.5-0.6,0.5-0.6c-0.3,2.6-0.6,5.2-1,7.7
			c-0.4,2.6-0.8,5.1-1.2,7.7c0,0-0.4-0.9-0.4-0.9c2.1,1.5,4.8,1.1,6.1-1.3c1.1-1.6,1.6-4.3,3.5-5.4c0.8,0,0.9-0.9,1.2-1.4
			c-0.1,0.5-0.1,1.1-0.5,1.6c-0.2,0.2-0.4,0.2-0.5,0.3c-1.4,1.4-1.5,3.7-2.6,5.6c-1.5,3.3-5.3,4.1-8.3,2.2c0,0-0.5-0.3-0.5-0.3
			l0.1-0.6c0.7-5.1,1.5-10.3,2.4-15.4l0.1-0.5l0.4-0.2C507.8,470.5,511.9,468.8,516.2,467.2L516.2,467.2z"/>
	</g>
	<path class="st79" d="M463.2,384.6c0,0,0.8-55.8-17.2-66.8c0,0-4.8-9.2,10.6,0s23.6,49.9,19,63.6S463.2,384.6,463.2,384.6z"/>
	<path class="st60" d="M476.4,551.6c0,0,16.3-9.2,20.6-8.9c4.2,0.3,11.2,11.4,11.2,11.4s4.5,19-3,24.9s-16.3,10.4-16.3,10.4
		l-14.2,0.8L476.4,551.6z"/>
	<g class="st61">
		<path class="st44" d="M678,477.5c0,0,13.2,14.9,18,29.5"/>
		<path class="st8" d="M678,477.5c7.9,8.4,14.8,18.3,18,29.5c-0.6-1.3-1.1-2.7-1.8-4C689.8,493.9,684,485.6,678,477.5L678,477.5z"/>
	</g>
	<g class="st61">
		<line class="st44" x1="712.8" y1="437.3" x2="708.1" y2="459.3"/>
		<path class="st8" d="M712.8,437.3c-0.9,7.5-2.4,14.8-4.6,22C709,451.8,710.6,444.5,712.8,437.3L712.8,437.3z"/>
	</g>
	<g class="st61">
		<line class="st44" x1="727.9" y1="450.6" x2="725.7" y2="462.6"/>
		<path class="st8" d="M727.9,450.6c-0.1,4.1-0.8,8.2-2.2,12.1C725.7,458.5,726.5,454.4,727.9,450.6L727.9,450.6z"/>
	</g>
	<g class="st61">
		<line class="st44" x1="744.4" y1="458.3" x2="738.2" y2="467.4"/>
		<path class="st8" d="M744.4,458.3c-1.5,3.4-3.6,6.5-6.2,9.1C739.7,464,741.7,460.9,744.4,458.3L744.4,458.3z"/>
	</g>
	<g class="st61">
		<path class="st80" d="M825.4,209.3c5.9-4.2,8-10.4,6-17.1c-0.7-2.5-1.7-4.9-3-7.2c-3.3-6.2-6.9-12.2-9.3-19.1
			c-2.3-5.9-1.6-11.8,1.6-17.1c-0.4,2.8-0.8,5.6-0.5,8.2c0.3,2.6,1.3,5,2.5,7.4c4,8.1,9.8,15.8,12.5,24.6c0.3,1.5,0.7,3,0.7,4.6
			c0,0.6,0.1,1.7,0,2.3C835.8,202.1,831.3,208,825.4,209.3L825.4,209.3z"/>
	</g>
	<path class="st81" d="M876.3,45.6c0,0-6.3,33.6-50.9,48.1c-44.6,14.5-5.4,54.9-5.4,54.9s8.7-12,34.1-20.3s34.3-34,31-51.9
		C881.9,58.7,885.2,40.8,876.3,45.6z"/>
	
		<ellipse transform="matrix(0.9859 -0.1673 0.1673 0.9859 -20.6136 170.047)" class="st65" cx="998.8" cy="207.3" rx="5.4" ry="12.3"/>
	
		<ellipse transform="matrix(0.9859 -0.1673 0.1673 0.9859 -18.3553 176.7839)" class="st65" cx="1039.9" cy="197.3" rx="5.9" ry="13.4"/>
	<path class="st65" d="M987.4,193.8c0,0,4,3.9,7.4,2.8s0,4.5,0,4.5S990.2,201.4,987.4,193.8z"/>
	<path class="st65" d="M1040.6,185.1c0,0,5.2-1.1,7-6.9c0,0-0.3,9.4-4.3,10.8C1039.4,190.5,1040.6,185.1,1040.6,185.1z"/>
	<g class="st61">
		<path class="st8" d="M1014.6,245.5c10.6,9.1,18,7.6,25.8-3.6C1035.7,255.4,1022.8,257.4,1014.6,245.5L1014.6,245.5z"/>
	</g>
	<g class="st61">
		<path class="st8" d="M852.1,309.9c2.5-9.6,13.7-16.8,21.5-7.9c2,2.3,3.3,5,4,7.9C867,298.7,863,300,852.1,309.9L852.1,309.9z"/>
	</g>
	<g class="st61">
		<path class="st8" d="M793.7,309.9c2.5-9.6,13.7-16.8,21.5-7.9c2,2.3,3.3,5,4,7.9C808.6,298.7,804.5,300,793.7,309.9L793.7,309.9z"
			/>
	</g>
	<g class="st61">
		<path class="st8" d="M826.7,331.2c6.8,1.7,14.1,2.6,20.8,0C841.4,335.2,833,334.3,826.7,331.2L826.7,331.2z"/>
	</g>
	<path class="st65" d="M280.8,315c0.1-0.4,20.2,4,30.7,3.4c2.4-0.1,3.8,2.7,2.1,4.4c-1.1,1.1-3.3,2.2-7.4,2.8
		C294.3,327.2,279.4,322.8,280.8,315z"/>
	<path class="st65" d="M379.4,306.2c-0.1-0.4-17.7,6-27.1,6.7c-2.1,0.2-3.1,2.9-1.4,4.2c1.1,0.9,3.2,1.6,7,1.6
		C368.7,318.7,381.5,313,379.4,306.2z"/>
	<g class="st61">
		<path class="st8" d="M326.2,347c4.7-0.8,9.2-0.8,13.9-1c4.5-0.3,8.8,0.1,13.1-2C349.1,352.3,333,350.9,326.2,347L326.2,347z"/>
	</g>
	<g class="st61">
		<path class="st8" d="M126.9,540.6c10.1-4.4,23.1-1.6,30.6,6.4C147.7,542.7,137.5,540.5,126.9,540.6L126.9,540.6z"/>
	</g>
	<g class="st61">
		<path class="st8" d="M221.5,524.1c-10.4,2.4-19.7,7-28.2,13.5C198.6,528,210.6,522.2,221.5,524.1L221.5,524.1z"/>
	</g>
	<g class="st61">
		<path class="st8" d="M169.4,563c9,4.4,15.4,5.9,19.5-5.1C188.4,570.5,176.6,570.8,169.4,563L169.4,563z"/>
	</g>
	<path class="st65" d="M472.6,425c2-0.5,5.3-1,8.1-0.6c0.8,0.1,1.2,1,0.8,1.7l-2.9,5.4c-0.4,0.7-1.3,0.8-1.8,0.3l-4.7-4.8
		C471.4,426.3,471.7,425.2,472.6,425z"/>
	<ellipse transform="matrix(0.1264 -0.992 0.992 0.1264 -14.433 822.4105)" class="st65" cx="459.7" cy="419.4" rx="2.1" ry="5.7"/>
	
		<ellipse transform="matrix(0.9754 -0.2203 0.2203 0.9754 -79.6322 117.8392)" class="st65" cx="488.5" cy="415.9" rx="5.7" ry="2.1"/>
	<g class="st61">
		<path class="st44" d="M467,435.1c0,0,8,4.6,10.8-3.1c0,0,5.5,7.7,11.4,1.2"/>
		<path class="st8" d="M467,435.1c4,1.3,8.4,1.2,9.9-3.4c0,0,0.7-1.6,0.7-1.6c2.3,3.4,6,6.6,10.2,4.1c0.5-0.3,0.9-0.6,1.4-0.9
			c-0.3,0.5-0.7,0.9-1.1,1.4c-3.4,3.6-8.6,1.5-11.2-2c0,0,1.7-0.2,1.7-0.2C476.9,437.8,471.2,438.5,467,435.1L467,435.1z"/>
	</g>
	<rect x="137.9" y="41" class="st82" width="756.7" height="118.9"/>
	<text transform="matrix(1 0 0 1 137.9156 104.5802)" class="st67 st83 st84">Verde Plant Studio</text>
</g>
</svg>
