<?xml version="1.0" encoding="utf-8"?>
<!-- Generator: Adobe Illustrator 27.0.1, SVG Export Plug-In . SVG Version: 6.00 Build 0)  -->
<svg version="1.1" id="Layer_1" xmlns="http://www.w3.org/2000/svg" xmlns:xlink="http://www.w3.org/1999/xlink" x="0px" y="0px"
	 viewBox="0 0 500 500" style="enable-background:new 0 0 500 500;" xml:space="preserve">
<style type="text/css">
	.st0{display:none;}
	.st1{fill:#1F3838;}
	.st2{fill:#CB6637;stroke:#5E2817;stroke-width:4;stroke-miterlimit:10;}
	.st3{fill:#5E2817;}
	.st4{fill:#FFFFFF;}
	.st5{fill:#DE8E6F;}
</style>
<g id="Layer_1_00000134972526994288614480000018419474779696272831_" class="st0">
</g>
<circle class="st1" cx="259.7" cy="256.1" r="210.1"/>
<path class="st2" d="M70.1,140.4c0,0,75.9-50.5,189.6-49.8c52.9,0.4,114,11.8,179.4,44.7c6.6,3.4,10.6,10.5,9.8,17.9
	c-0.4,3-0.8,6.8-1.5,11.4c-3.1,20.4-19.7,56.2-19.7,56.2s-6,3.6-14.5,1.2c-8.5-2.4-306,2.8-306,2.8s-12.3,4.5-17.5-6.4
	C84.6,207.4,60.1,150.4,70.1,140.4z"/>
<path class="st2" d="M105.2,224.7c0,0,24.4,109.6,36.9,144.1c4.7,13.2,12.7,42.7,30.5,52.6c10.9,6,23.8,13.1,40.4,17.5
	c28.8,7.7,59.1,8,88.2,1.5c14-3.1,29.4-7.7,42.6-14.1c0,0,18.5-8,26.1-22.8c7.6-14.9,32.3-118.3,32.3-118.3l12.2-63.8
	C414.3,221,266.2,146.8,105.2,224.7z"/>
<path class="st3" d="M295.1,272.7c1.1-2.8,2.9-5.2,5.2-7.1c4.5-4,14.3-11.1,26.2-9.9c24.3,2.4,25.1-5.7,25.1-5.7s3,3.1,1.8,9.1
	c0,0,4.8-0.7,6.8-3.7c0,0,2.9,5.4-2.7,12.8c-5.7,7.7-17.5,6.2-22.1,5.3c-6.5-1.3-13.3,0.2-18.4,4.6c-0.8,0.7-1.7,1.6-2.5,2.4
	c-3.1,3.5-7.9,5.3-12.5,4.2c-1.3-0.4-2.8-0.8-4.4-1.7C293.3,280.3,293.8,276,295.1,272.7z"/>
<path class="st3" d="M225.1,272.7c-1.1-2.8-2.9-5.2-5.2-7.1c-4.5-4-14.3-11.1-26.2-9.9c-24.3,2.4-25.1-5.7-25.1-5.7s-3,3.1-1.8,9.1
	c0,0-4.8-0.7-6.8-3.7c0,0-2.9,5.4,2.7,12.8c5.7,7.7,17.5,6.2,22.1,5.3c6.5-1.3,13.3,0.2,18.4,4.6c0.8,0.7,1.7,1.6,2.5,2.4
	c3.1,3.5,7.9,5.3,12.5,4.2c1.3-0.4,2.8-0.8,4.4-1.7C226.9,280.3,226.4,276,225.1,272.7z"/>
<g>
	<path class="st3" d="M227.3,340.4c14.5,12,34.3,17.5,52,9.6c5.7-2.4,11-5.8,16.1-9.6c-4.4,4.6-9.6,8.5-15.4,11.4
		C262.3,360.8,240.2,354.9,227.3,340.4L227.3,340.4z"/>
</g>
<path class="st3" d="M231.5,342.9c2.1,1.9-3.1,1.7-5.4,1.2c-1.7-0.4-4.5-1.9-4.5-4.5c0-2.4,1.9-4.5,4.5-4.5S229.8,341.2,231.5,342.9
	z"/>
<path class="st3" d="M290.6,342.9c-2.1,1.9,3.1,1.7,5.4,1.2c1.7-0.4,4.5-1.9,4.5-4.5c0-2.4-1.9-4.5-4.5-4.5S292.4,341.2,290.6,342.9
	z"/>
<path class="st4" d="M111.3,113.5c-15.4,16.1-27.2,35.3-36.1,55.7c-10.5,24.3-16.8,50.4-19.7,76.8c-0.5,10.2,0.3,22,5.2,31.3
	c-6.5,9.2-10.5,20.1-12.3,31C44.1,334.9,54,362,68.4,384c-10.9-19-18.7-40.3-18.4-62.4c0.3-14.3,4.5-29.2,12.8-40.9
	c1.2,1.8,2.6,3.4,4.3,4.9c7.4,6.5,19.8,6.9,27.6,0.6c6.2-5.1,6.6-14.9,1.7-21c-5-6.8-14.1-6.6-20.7-2.5c-4.4,2.8-8.3,6.3-11.7,10.3
	c-0.2-0.4-0.3-0.7-0.4-1.1c-3-8.1-3.7-17-3.4-25.6c0.5-4.1,1-8.5,1.6-12.5c3.3-21.6,8.7-43,17.2-63.2c8.3-20.2,19.6-39.4,34.2-55.7
	c8.6-10.4,20.6-17.6,34.1-11.8C134.4,95.7,120.2,102.9,111.3,113.5z M77.7,266.3c3.3-1.9,7.3-3,10.9-1.7c7.1,2.5,9.1,13.3,3,18
	c-3.4,3-9.1,3.7-13.8,3c-5.2-1-9.2-4.5-11.9-8.9C69.3,272.6,73.2,269.1,77.7,266.3z"/>
<path class="st4" d="M74.7,303.1c0,0,6.5-13.3,33.1,4c0,0-3.6,1.1-7.9,4.1c-3.7,2.8-8.3,4.4-13.1,3.9c-3.4-0.4-6.9-1.6-9.3-4.7
	C77.7,310.5,75.1,307,74.7,303.1z"/>
<g>
	<path class="st4" d="M85.2,305.2c-12.2-0.8-24.5-7.5-30.3-18.5c1,1.1,1.8,2.4,2.9,3.5C64.9,298.2,74.9,302.9,85.2,305.2L85.2,305.2
		z"/>
</g>
<ellipse class="st5" cx="165.9" cy="306.4" rx="30.5" ry="15.7"/>
<ellipse class="st5" cx="349.7" cy="310" rx="30.5" ry="15.7"/>
</svg>
